<?xml version="1.0" encoding="UTF-8" standalone="no"?>
<!DOCTYPE svg PUBLIC "-//W3C//DTD SVG 1.1//EN"
 "http://www.w3.org/Graphics/SVG/1.1/DTD/svg11.dtd">
<!-- Generated by graphviz version 2.38.0 (20140413.2041)
 -->
<!-- Title: SICAD::initSICAD Pages: 1 -->
<svg width="363pt" height="28pt"
 viewBox="0.00 0.00 363.00 28.00" xmlns="http://www.w3.org/2000/svg" xmlns:xlink="http://www.w3.org/1999/xlink">
<g id="graph0" class="graph" transform="scale(1 1) rotate(0) translate(4 24)">
<title>SICAD::initSICAD</title>
<polygon fill="white" stroke="none" points="-4,4 -4,-24 359,-24 359,4 -4,4"/>
<!-- Node28 -->
<g id="node1" class="node"><title>Node28</title>
<polygon fill="#bfbfbf" stroke="black" points="0,-0.5 0,-19.5 94,-19.5 94,-0.5 0,-0.5"/>
<text text-anchor="middle" x="47" y="-7.5" font-family="Helvetica,sans-Serif" font-size="10.00">SICAD::initSICAD</text>
</g>
<!-- Node29 -->
<g id="node2" class="node"><title>Node29</title>
<g id="a_node2"><a xlink:href="classSICAD.html#a102619690ab32e300405d22d52e36a5e" target="_top" xlink:title="SICAD::initOGL">
<polygon fill="white" stroke="black" points="130,-0.5 130,-19.5 215,-19.5 215,-0.5 130,-0.5"/>
<text text-anchor="middle" x="172.5" y="-7.5" font-family="Helvetica,sans-Serif" font-size="10.00">SICAD::initOGL</text>
</a>
</g>
</g>
<!-- Node28&#45;&gt;Node29 -->
<g id="edge1" class="edge"><title>Node28&#45;&gt;Node29</title>
<path fill="none" stroke="midnightblue" d="M94.3382,-10C102.61,-10 111.277,-10 119.69,-10"/>
<polygon fill="midnightblue" stroke="midnightblue" points="119.784,-13.5001 129.784,-10 119.784,-6.5001 119.784,-13.5001"/>
</g>
<!-- Node30 -->
<g id="node3" class="node"><title>Node30</title>
<g id="a_node3"><a xlink:href="classSICAD.html#a2603ec5cb9a31bc7be0a335ef513ab0d" target="_top" xlink:title="SICAD::factorize_int">
<polygon fill="white" stroke="black" points="251,-0.5 251,-19.5 355,-19.5 355,-0.5 251,-0.5"/>
<text text-anchor="middle" x="303" y="-7.5" font-family="Helvetica,sans-Serif" font-size="10.00">SICAD::factorize_int</text>
</a>
</g>
</g>
<!-- Node29&#45;&gt;Node30 -->
<g id="edge2" class="edge"><title>Node29&#45;&gt;Node30</title>
<path fill="none" stroke="midnightblue" d="M215.22,-10C223.332,-10 231.992,-10 240.584,-10"/>
<polygon fill="midnightblue" stroke="midnightblue" points="240.603,-13.5001 250.603,-10 240.603,-6.5001 240.603,-13.5001"/>
</g>
</g>
</svg>
