<?xml version="1.0" encoding="UTF-8" standalone="no"?>
<!DOCTYPE svg PUBLIC "-//W3C//DTD SVG 1.1//EN"
 "http://www.w3.org/Graphics/SVG/1.1/DTD/svg11.dtd">
<!-- Generated by graphviz version 2.38.0 (20140413.2041)
 -->
<!-- Title: SICAD::superimpose Pages: 1 -->
<svg width="458pt" height="306pt"
 viewBox="0.00 0.00 458.00 306.00" xmlns="http://www.w3.org/2000/svg" xmlns:xlink="http://www.w3.org/1999/xlink">
<g id="graph0" class="graph" transform="scale(1 1) rotate(0) translate(4 302)">
<title>SICAD::superimpose</title>
<polygon fill="white" stroke="none" points="-4,4 -4,-302 454,-302 454,4 -4,4"/>
<!-- Node61 -->
<g id="node1" class="node"><title>Node61</title>
<polygon fill="#bfbfbf" stroke="black" points="0,-133.5 0,-152.5 107,-152.5 107,-133.5 0,-133.5"/>
<text text-anchor="middle" x="53.5" y="-140.5" font-family="Helvetica,sans-Serif" font-size="10.00">SICAD::superimpose</text>
</g>
<!-- Node62 -->
<g id="node2" class="node"><title>Node62</title>
<g id="a_node2"><a xlink:href="classSICAD.html#a170bd325654aed9eb81062ac610608fa" target="_top" xlink:title="SICAD::getBackgroundOpt">
<polygon fill="white" stroke="black" points="151.5,-278.5 151.5,-297.5 284.5,-297.5 284.5,-278.5 151.5,-278.5"/>
<text text-anchor="middle" x="218" y="-285.5" font-family="Helvetica,sans-Serif" font-size="10.00">SICAD::getBackgroundOpt</text>
</a>
</g>
</g>
<!-- Node61&#45;&gt;Node62 -->
<g id="edge1" class="edge"><title>Node61&#45;&gt;Node62</title>
<path fill="none" stroke="midnightblue" d="M58.4188,-152.646C68.5787,-176.39 98.1436,-237.988 143,-269 145.869,-270.984 148.93,-272.76 152.112,-274.351"/>
<polygon fill="midnightblue" stroke="midnightblue" points="150.778,-277.588 161.345,-278.362 153.568,-271.168 150.778,-277.588"/>
</g>
<!-- Node63 -->
<g id="node3" class="node"><title>Node63</title>
<g id="a_node3"><a xlink:href="classSICAD.html#a1bdece095865249df4cb4e6a7ad2901e" target="_top" xlink:title="SICAD::getViewTransformation\lMatrix">
<polygon fill="white" stroke="black" points="143,-229 143,-259 293,-259 293,-229 143,-229"/>
<text text-anchor="start" x="151" y="-247" font-family="Helvetica,sans-Serif" font-size="10.00">SICAD::getViewTransformation</text>
<text text-anchor="middle" x="218" y="-236" font-family="Helvetica,sans-Serif" font-size="10.00">Matrix</text>
</a>
</g>
</g>
<!-- Node61&#45;&gt;Node63 -->
<g id="edge2" class="edge"><title>Node61&#45;&gt;Node63</title>
<path fill="none" stroke="midnightblue" d="M63.1496,-152.503C78.0373,-168.345 110.09,-200.258 143,-219 146.712,-221.114 150.631,-223.086 154.649,-224.919"/>
<polygon fill="midnightblue" stroke="midnightblue" points="153.584,-228.269 164.157,-228.947 156.314,-221.823 153.584,-228.269"/>
</g>
<!-- Node64 -->
<g id="node4" class="node"><title>Node64</title>
<g id="a_node4"><a xlink:href="classSICAD.html#af65b5ad73e2c0e872face157b56bd68b" target="_top" xlink:title="SICAD::getWireframeOpt">
<polygon fill="white" stroke="black" points="155.5,-190.5 155.5,-209.5 280.5,-209.5 280.5,-190.5 155.5,-190.5"/>
<text text-anchor="middle" x="218" y="-197.5" font-family="Helvetica,sans-Serif" font-size="10.00">SICAD::getWireframeOpt</text>
</a>
</g>
</g>
<!-- Node61&#45;&gt;Node64 -->
<g id="edge3" class="edge"><title>Node61&#45;&gt;Node64</title>
<path fill="none" stroke="midnightblue" d="M79.192,-152.534C96.8855,-159.285 121.321,-168.447 143,-176 153.937,-179.811 165.849,-183.761 176.857,-187.33"/>
<polygon fill="midnightblue" stroke="midnightblue" points="176.066,-190.753 186.658,-190.486 178.212,-184.089 176.066,-190.753"/>
</g>
<!-- Node65 -->
<g id="node5" class="node"><title>Node65</title>
<g id="a_node5"><a xlink:href="classShader.html#a8e53260be208ebf6c804a0d309e74097" target="_top" xlink:title="Shader::install">
<polygon fill="white" stroke="black" points="350,-133.5 350,-152.5 429,-152.5 429,-133.5 350,-133.5"/>
<text text-anchor="middle" x="389.5" y="-140.5" font-family="Helvetica,sans-Serif" font-size="10.00">Shader::install</text>
</a>
</g>
</g>
<!-- Node61&#45;&gt;Node65 -->
<g id="edge4" class="edge"><title>Node61&#45;&gt;Node65</title>
<path fill="none" stroke="midnightblue" d="M107.055,-143C170.789,-143 277.373,-143 339.474,-143"/>
<polygon fill="midnightblue" stroke="midnightblue" points="339.789,-146.5 349.789,-143 339.789,-139.5 339.789,-146.5"/>
</g>
<!-- Node66 -->
<g id="node6" class="node"><title>Node66</title>
<g id="a_node6"><a xlink:href="classSICAD.html#a8238a2b2c488c8b7ba85d5b2a0bf00ac" target="_top" xlink:title="SICAD::pollOrPostEvent">
<polygon fill="white" stroke="black" points="157,-114.5 157,-133.5 279,-133.5 279,-114.5 157,-114.5"/>
<text text-anchor="middle" x="218" y="-121.5" font-family="Helvetica,sans-Serif" font-size="10.00">SICAD::pollOrPostEvent</text>
</a>
</g>
</g>
<!-- Node61&#45;&gt;Node66 -->
<g id="edge5" class="edge"><title>Node61&#45;&gt;Node66</title>
<path fill="none" stroke="midnightblue" d="M107.259,-136.831C119.887,-135.355 133.567,-133.755 146.844,-132.203"/>
<polygon fill="midnightblue" stroke="midnightblue" points="147.368,-135.665 156.894,-131.028 146.555,-128.713 147.368,-135.665"/>
</g>
<!-- Node67 -->
<g id="node7" class="node"><title>Node67</title>
<g id="a_node7"><a xlink:href="classSICAD.html#a25b180f54f2e93d69b291cc225600c8e" target="_top" xlink:title="SICAD::setBackground">
<polygon fill="white" stroke="black" points="159.5,-76.5 159.5,-95.5 276.5,-95.5 276.5,-76.5 159.5,-76.5"/>
<text text-anchor="middle" x="218" y="-83.5" font-family="Helvetica,sans-Serif" font-size="10.00">SICAD::setBackground</text>
</a>
</g>
</g>
<!-- Node61&#45;&gt;Node67 -->
<g id="edge6" class="edge"><title>Node61&#45;&gt;Node67</title>
<path fill="none" stroke="midnightblue" d="M74.5393,-133.34C92.2537,-125.058 118.943,-113.199 143,-105 150.158,-102.561 157.799,-100.265 165.351,-98.1708"/>
<polygon fill="midnightblue" stroke="midnightblue" points="166.427,-101.506 175.181,-95.5381 164.616,-94.7444 166.427,-101.506"/>
</g>
<!-- Node69 -->
<g id="node9" class="node"><title>Node69</title>
<g id="a_node9"><a xlink:href="classShader.html#afa6fb33b37c9385cf62a836092da570b" target="_top" xlink:title="Shader::uninstall">
<polygon fill="white" stroke="black" points="345,-38.5 345,-57.5 434,-57.5 434,-38.5 345,-38.5"/>
<text text-anchor="middle" x="389.5" y="-45.5" font-family="Helvetica,sans-Serif" font-size="10.00">Shader::uninstall</text>
</a>
</g>
</g>
<!-- Node61&#45;&gt;Node69 -->
<g id="edge11" class="edge"><title>Node61&#45;&gt;Node69</title>
<path fill="none" stroke="midnightblue" d="M62.0272,-133.391C75.925,-116.47 107.46,-81.7504 143,-67 205.057,-41.2444 283.452,-39.9524 334.732,-42.7933"/>
<polygon fill="midnightblue" stroke="midnightblue" points="334.731,-46.3 344.93,-43.4327 335.169,-39.3137 334.731,-46.3"/>
</g>
<!-- Node70 -->
<g id="node10" class="node"><title>Node70</title>
<g id="a_node10"><a xlink:href="classSICAD.html#ae7af7aba5d81b9f1cc3e273a55811a70" target="_top" xlink:title="SICAD::setWireframe">
<polygon fill="white" stroke="black" points="163,-0.5 163,-19.5 273,-19.5 273,-0.5 163,-0.5"/>
<text text-anchor="middle" x="218" y="-7.5" font-family="Helvetica,sans-Serif" font-size="10.00">SICAD::setWireframe</text>
</a>
</g>
</g>
<!-- Node61&#45;&gt;Node70 -->
<g id="edge10" class="edge"><title>Node61&#45;&gt;Node70</title>
<path fill="none" stroke="midnightblue" d="M59.7593,-133.276C71.7095,-112.083 102.998,-61.4384 143,-34 149.422,-29.5952 156.704,-25.9572 164.134,-22.9639"/>
<polygon fill="midnightblue" stroke="midnightblue" points="165.384,-26.2335 173.571,-19.5081 162.977,-19.6604 165.384,-26.2335"/>
</g>
<!-- Node67&#45;&gt;Node65 -->
<g id="edge8" class="edge"><title>Node67&#45;&gt;Node65</title>
<path fill="none" stroke="midnightblue" d="M259.981,-95.5306C270.798,-98.3157 282.407,-101.548 293,-105 314.86,-112.123 338.906,-121.702 357.402,-129.46"/>
<polygon fill="midnightblue" stroke="midnightblue" points="356.218,-132.76 366.791,-133.442 358.951,-126.315 356.218,-132.76"/>
</g>
<!-- Node68 -->
<g id="node8" class="node"><title>Node68</title>
<g id="a_node8"><a xlink:href="classSICAD.html#a8033a99745f595ea5205e3830cabc389" target="_top" xlink:title="SICAD::getMipmapsOpt">
<polygon fill="white" stroke="black" points="329,-76.5 329,-95.5 450,-95.5 450,-76.5 329,-76.5"/>
<text text-anchor="middle" x="389.5" y="-83.5" font-family="Helvetica,sans-Serif" font-size="10.00">SICAD::getMipmapsOpt</text>
</a>
</g>
</g>
<!-- Node67&#45;&gt;Node68 -->
<g id="edge7" class="edge"><title>Node67&#45;&gt;Node68</title>
<path fill="none" stroke="midnightblue" d="M276.858,-86C290.363,-86 304.885,-86 318.842,-86"/>
<polygon fill="midnightblue" stroke="midnightblue" points="318.883,-89.5001 328.883,-86 318.883,-82.5001 318.883,-89.5001"/>
</g>
<!-- Node67&#45;&gt;Node69 -->
<g id="edge9" class="edge"><title>Node67&#45;&gt;Node69</title>
<path fill="none" stroke="midnightblue" d="M261.772,-76.411C284.341,-71.3513 312.223,-65.1004 336.083,-59.7512"/>
<polygon fill="midnightblue" stroke="midnightblue" points="337.043,-63.1229 346.036,-57.5201 335.512,-56.2925 337.043,-63.1229"/>
</g>
</g>
</svg>
