<?xml version="1.0" encoding="UTF-8" standalone="no"?>
<!DOCTYPE svg PUBLIC "-//W3C//DTD SVG 1.1//EN"
 "http://www.w3.org/Graphics/SVG/1.1/DTD/svg11.dtd">
<!-- Generated by graphviz version 2.38.0 (20140413.2041)
 -->
<!-- Title: SICAD::setBackground Pages: 1 -->
<svg width="282pt" height="104pt"
 viewBox="0.00 0.00 282.00 104.00" xmlns="http://www.w3.org/2000/svg" xmlns:xlink="http://www.w3.org/1999/xlink">
<g id="graph0" class="graph" transform="scale(1 1) rotate(0) translate(4 100)">
<title>SICAD::setBackground</title>
<polygon fill="white" stroke="none" points="-4,4 -4,-100 278,-100 278,4 -4,4"/>
<!-- Node39 -->
<g id="node1" class="node"><title>Node39</title>
<polygon fill="#bfbfbf" stroke="black" points="0,-38.5 0,-57.5 117,-57.5 117,-38.5 0,-38.5"/>
<text text-anchor="middle" x="58.5" y="-45.5" font-family="Helvetica,sans-Serif" font-size="10.00">SICAD::setBackground</text>
</g>
<!-- Node40 -->
<g id="node2" class="node"><title>Node40</title>
<g id="a_node2"><a xlink:href="classSICAD.html#a8033a99745f595ea5205e3830cabc389" target="_top" xlink:title="SICAD::getMipmapsOpt">
<polygon fill="white" stroke="black" points="153,-76.5 153,-95.5 274,-95.5 274,-76.5 153,-76.5"/>
<text text-anchor="middle" x="213.5" y="-83.5" font-family="Helvetica,sans-Serif" font-size="10.00">SICAD::getMipmapsOpt</text>
</a>
</g>
</g>
<!-- Node39&#45;&gt;Node40 -->
<g id="edge1" class="edge"><title>Node39&#45;&gt;Node40</title>
<path fill="none" stroke="midnightblue" d="M98.1084,-57.589C118.207,-62.5809 142.975,-68.7324 164.319,-74.0334"/>
<polygon fill="midnightblue" stroke="midnightblue" points="163.62,-77.4662 174.169,-76.4799 165.308,-70.6726 163.62,-77.4662"/>
</g>
<!-- Node41 -->
<g id="node3" class="node"><title>Node41</title>
<g id="a_node3"><a xlink:href="classShader.html#a8e53260be208ebf6c804a0d309e74097" target="_top" xlink:title="Shader::install">
<polygon fill="white" stroke="black" points="174,-38.5 174,-57.5 253,-57.5 253,-38.5 174,-38.5"/>
<text text-anchor="middle" x="213.5" y="-45.5" font-family="Helvetica,sans-Serif" font-size="10.00">Shader::install</text>
</a>
</g>
</g>
<!-- Node39&#45;&gt;Node41 -->
<g id="edge2" class="edge"><title>Node39&#45;&gt;Node41</title>
<path fill="none" stroke="midnightblue" d="M117.343,-48C132.46,-48 148.612,-48 163.237,-48"/>
<polygon fill="midnightblue" stroke="midnightblue" points="163.579,-51.5001 173.579,-48 163.579,-44.5001 163.579,-51.5001"/>
</g>
<!-- Node42 -->
<g id="node4" class="node"><title>Node42</title>
<g id="a_node4"><a xlink:href="classShader.html#afa6fb33b37c9385cf62a836092da570b" target="_top" xlink:title="Shader::uninstall">
<polygon fill="white" stroke="black" points="169,-0.5 169,-19.5 258,-19.5 258,-0.5 169,-0.5"/>
<text text-anchor="middle" x="213.5" y="-7.5" font-family="Helvetica,sans-Serif" font-size="10.00">Shader::uninstall</text>
</a>
</g>
</g>
<!-- Node39&#45;&gt;Node42 -->
<g id="edge3" class="edge"><title>Node39&#45;&gt;Node42</title>
<path fill="none" stroke="midnightblue" d="M98.1084,-38.411C118.207,-33.4191 142.975,-27.2676 164.319,-21.9666"/>
<polygon fill="midnightblue" stroke="midnightblue" points="165.308,-25.3274 174.169,-19.5201 163.62,-18.5338 165.308,-25.3274"/>
</g>
</g>
</svg>
