<?xml version="1.0" encoding="UTF-8" standalone="no"?>
<!DOCTYPE svg PUBLIC "-//W3C//DTD SVG 1.1//EN"
 "http://www.w3.org/Graphics/SVG/1.1/DTD/svg11.dtd">
<!-- Generated by graphviz version 2.38.0 (20140413.2041)
 -->
<!-- Title: Model::loadModel Pages: 1 -->
<svg width="386pt" height="28pt"
 viewBox="0.00 0.00 386.00 28.00" xmlns="http://www.w3.org/2000/svg" xmlns:xlink="http://www.w3.org/1999/xlink">
<g id="graph0" class="graph" transform="scale(1 1) rotate(0) translate(4 24)">
<title>Model::loadModel</title>
<polygon fill="white" stroke="none" points="-4,4 -4,-24 382,-24 382,4 -4,4"/>
<!-- Node5 -->
<g id="node1" class="node"><title>Node5</title>
<polygon fill="#bfbfbf" stroke="black" points="0,-0.5 0,-19.5 93,-19.5 93,-0.5 0,-0.5"/>
<text text-anchor="middle" x="46.5" y="-7.5" font-family="Helvetica,sans-Serif" font-size="10.00">Model::loadModel</text>
</g>
<!-- Node6 -->
<g id="node2" class="node"><title>Node6</title>
<g id="a_node2"><a xlink:href="classModel.html#a23b167ce0d33f7e6ab5693cd5e81a9a5" target="_top" xlink:title="Model::processNode">
<polygon fill="white" stroke="black" points="129,-0.5 129,-19.5 235,-19.5 235,-0.5 129,-0.5"/>
<text text-anchor="middle" x="182" y="-7.5" font-family="Helvetica,sans-Serif" font-size="10.00">Model::processNode</text>
</a>
</g>
</g>
<!-- Node5&#45;&gt;Node6 -->
<g id="edge1" class="edge"><title>Node5&#45;&gt;Node6</title>
<path fill="none" stroke="midnightblue" d="M93.0697,-10C101.322,-10 110.056,-10 118.69,-10"/>
<polygon fill="midnightblue" stroke="midnightblue" points="118.746,-13.5001 128.746,-10 118.746,-6.5001 118.746,-13.5001"/>
</g>
<!-- Node7 -->
<g id="node3" class="node"><title>Node7</title>
<g id="a_node3"><a xlink:href="classModel.html#a95ae1a9980ded3d98b1c8785cb889d96" target="_top" xlink:title="Model::processMesh">
<polygon fill="white" stroke="black" points="271,-0.5 271,-19.5 378,-19.5 378,-0.5 271,-0.5"/>
<text text-anchor="middle" x="324.5" y="-7.5" font-family="Helvetica,sans-Serif" font-size="10.00">Model::processMesh</text>
</a>
</g>
</g>
<!-- Node6&#45;&gt;Node7 -->
<g id="edge2" class="edge"><title>Node6&#45;&gt;Node7</title>
<path fill="none" stroke="midnightblue" d="M235.317,-10C243.526,-10 252.085,-10 260.504,-10"/>
<polygon fill="midnightblue" stroke="midnightblue" points="260.671,-13.5001 270.671,-10 260.671,-6.5001 260.671,-13.5001"/>
</g>
</g>
</svg>
