<?xml version="1.0" encoding="UTF-8" standalone="no"?>
<!DOCTYPE svg PUBLIC "-//W3C//DTD SVG 1.1//EN"
 "http://www.w3.org/Graphics/SVG/1.1/DTD/svg11.dtd">
<!-- Generated by graphviz version 2.38.0 (20140413.2041)
 -->
<!-- Title: Model::Model Pages: 1 -->
<svg width="497pt" height="28pt"
 viewBox="0.00 0.00 497.00 28.00" xmlns="http://www.w3.org/2000/svg" xmlns:xlink="http://www.w3.org/1999/xlink">
<g id="graph0" class="graph" transform="scale(1 1) rotate(0) translate(4 24)">
<title>Model::Model</title>
<polygon fill="white" stroke="none" points="-4,4 -4,-24 493,-24 493,4 -4,4"/>
<!-- Node0 -->
<g id="node1" class="node"><title>Node0</title>
<polygon fill="#bfbfbf" stroke="black" points="0,-0.5 0,-19.5 75,-19.5 75,-0.5 0,-0.5"/>
<text text-anchor="middle" x="37.5" y="-7.5" font-family="Helvetica,sans-Serif" font-size="10.00">Model::Model</text>
</g>
<!-- Node1 -->
<g id="node2" class="node"><title>Node1</title>
<g id="a_node2"><a xlink:href="classModel.html#a3cd88224a93dc81a8503d42be807eb86" target="_top" xlink:title="Model::loadModel">
<polygon fill="white" stroke="black" points="111,-0.5 111,-19.5 204,-19.5 204,-0.5 111,-0.5"/>
<text text-anchor="middle" x="157.5" y="-7.5" font-family="Helvetica,sans-Serif" font-size="10.00">Model::loadModel</text>
</a>
</g>
</g>
<!-- Node0&#45;&gt;Node1 -->
<g id="edge1" class="edge"><title>Node0&#45;&gt;Node1</title>
<path fill="none" stroke="midnightblue" d="M75.1891,-10C83.2612,-10 91.9866,-10 100.623,-10"/>
<polygon fill="midnightblue" stroke="midnightblue" points="100.675,-13.5001 110.675,-10 100.675,-6.5001 100.675,-13.5001"/>
</g>
<!-- Node2 -->
<g id="node3" class="node"><title>Node2</title>
<g id="a_node3"><a xlink:href="classModel.html#a23b167ce0d33f7e6ab5693cd5e81a9a5" target="_top" xlink:title="Model::processNode">
<polygon fill="white" stroke="black" points="240,-0.5 240,-19.5 346,-19.5 346,-0.5 240,-0.5"/>
<text text-anchor="middle" x="293" y="-7.5" font-family="Helvetica,sans-Serif" font-size="10.00">Model::processNode</text>
</a>
</g>
</g>
<!-- Node1&#45;&gt;Node2 -->
<g id="edge2" class="edge"><title>Node1&#45;&gt;Node2</title>
<path fill="none" stroke="midnightblue" d="M204.07,-10C212.322,-10 221.056,-10 229.69,-10"/>
<polygon fill="midnightblue" stroke="midnightblue" points="229.746,-13.5001 239.746,-10 229.746,-6.5001 229.746,-13.5001"/>
</g>
<!-- Node3 -->
<g id="node4" class="node"><title>Node3</title>
<g id="a_node4"><a xlink:href="classModel.html#a95ae1a9980ded3d98b1c8785cb889d96" target="_top" xlink:title="Model::processMesh">
<polygon fill="white" stroke="black" points="382,-0.5 382,-19.5 489,-19.5 489,-0.5 382,-0.5"/>
<text text-anchor="middle" x="435.5" y="-7.5" font-family="Helvetica,sans-Serif" font-size="10.00">Model::processMesh</text>
</a>
</g>
</g>
<!-- Node2&#45;&gt;Node3 -->
<g id="edge3" class="edge"><title>Node2&#45;&gt;Node3</title>
<path fill="none" stroke="midnightblue" d="M346.317,-10C354.526,-10 363.085,-10 371.504,-10"/>
<polygon fill="midnightblue" stroke="midnightblue" points="371.671,-13.5001 381.671,-10 371.671,-6.5001 371.671,-13.5001"/>
</g>
</g>
</svg>
