<?xml version="1.0" encoding="UTF-8" standalone="no"?>
<!DOCTYPE svg PUBLIC "-//W3C//DTD SVG 1.1//EN"
 "http://www.w3.org/Graphics/SVG/1.1/DTD/svg11.dtd">
<!-- Generated by graphviz version 2.38.0 (20140413.2041)
 -->
<!-- Title: SICAD::SICAD Pages: 1 -->
<svg width="386pt" height="66pt"
 viewBox="0.00 0.00 386.00 66.00" xmlns="http://www.w3.org/2000/svg" xmlns:xlink="http://www.w3.org/1999/xlink">
<g id="graph0" class="graph" transform="scale(1 1) rotate(0) translate(4 62)">
<title>SICAD::SICAD</title>
<polygon fill="white" stroke="none" points="-4,4 -4,-62 382,-62 382,4 -4,4"/>
<!-- Node11 -->
<g id="node1" class="node"><title>Node11</title>
<polygon fill="#bfbfbf" stroke="black" points="0,-19.5 0,-38.5 81,-38.5 81,-19.5 0,-19.5"/>
<text text-anchor="middle" x="40.5" y="-26.5" font-family="Helvetica,sans-Serif" font-size="10.00">SICAD::SICAD</text>
</g>
<!-- Node12 -->
<g id="node2" class="node"><title>Node12</title>
<g id="a_node2"><a xlink:href="classSICAD.html#a39cdff6871d32429d8ba95b776e0b874" target="_top" xlink:title="SICAD::setProjectionMatrix">
<polygon fill="white" stroke="black" points="117,-19.5 117,-38.5 253,-38.5 253,-19.5 117,-19.5"/>
<text text-anchor="middle" x="185" y="-26.5" font-family="Helvetica,sans-Serif" font-size="10.00">SICAD::setProjectionMatrix</text>
</a>
</g>
</g>
<!-- Node11&#45;&gt;Node12 -->
<g id="edge1" class="edge"><title>Node11&#45;&gt;Node12</title>
<path fill="none" stroke="midnightblue" d="M81.1942,-29C89.2718,-29 98.0276,-29 106.905,-29"/>
<polygon fill="midnightblue" stroke="midnightblue" points="106.95,-32.5001 116.95,-29 106.95,-25.5001 106.95,-32.5001"/>
</g>
<!-- Node13 -->
<g id="node3" class="node"><title>Node13</title>
<g id="a_node3"><a xlink:href="classShader.html#a8e53260be208ebf6c804a0d309e74097" target="_top" xlink:title="Shader::install">
<polygon fill="white" stroke="black" points="294,-38.5 294,-57.5 373,-57.5 373,-38.5 294,-38.5"/>
<text text-anchor="middle" x="333.5" y="-45.5" font-family="Helvetica,sans-Serif" font-size="10.00">Shader::install</text>
</a>
</g>
</g>
<!-- Node12&#45;&gt;Node13 -->
<g id="edge2" class="edge"><title>Node12&#45;&gt;Node13</title>
<path fill="none" stroke="midnightblue" d="M253.247,-37.7215C263.411,-39.0397 273.73,-40.378 283.415,-41.634"/>
<polygon fill="midnightblue" stroke="midnightblue" points="283.27,-45.1445 293.637,-42.9598 284.171,-38.2026 283.27,-45.1445"/>
</g>
<!-- Node14 -->
<g id="node4" class="node"><title>Node14</title>
<g id="a_node4"><a xlink:href="classShader.html#afa6fb33b37c9385cf62a836092da570b" target="_top" xlink:title="Shader::uninstall">
<polygon fill="white" stroke="black" points="289,-0.5 289,-19.5 378,-19.5 378,-0.5 289,-0.5"/>
<text text-anchor="middle" x="333.5" y="-7.5" font-family="Helvetica,sans-Serif" font-size="10.00">Shader::uninstall</text>
</a>
</g>
</g>
<!-- Node12&#45;&gt;Node14 -->
<g id="edge3" class="edge"><title>Node12&#45;&gt;Node14</title>
<path fill="none" stroke="midnightblue" d="M253.247,-20.2785C261.803,-19.1688 270.47,-18.0449 278.775,-16.9678"/>
<polygon fill="midnightblue" stroke="midnightblue" points="279.227,-20.4385 288.694,-15.6813 278.327,-13.4966 279.227,-20.4385"/>
</g>
</g>
</svg>
