<?xml version="1.0" encoding="UTF-8" standalone="no"?>
<!DOCTYPE svg PUBLIC "-//W3C//DTD SVG 1.1//EN"
 "http://www.w3.org/Graphics/SVG/1.1/DTD/svg11.dtd">
<!-- Generated by graphviz version 2.38.0 (20140413.2041)
 -->
<!-- Title: SICAD::initSICAD Pages: 1 -->
<!--zoomable 104 -->
<svg id="main" version="1.1" xmlns="http://www.w3.org/2000/svg" xmlns:xlink="http://www.w3.org/1999/xlink" xml:space="preserve" onload="init(evt)">
<style type="text/css"><![CDATA[
.edge:hover path { stroke: red; }
.edge:hover polygon { stroke: red; fill: red; }
]]></style>
<script type="text/javascript"><![CDATA[
var edges = document.getElementsByTagName('g');
if (edges && edges.length) {
  for (var i=0;i<edges.length;i++) {
    if (edges[i].id.substr(0,4)=='edge') {
      edges[i].setAttribute('class','edge');
    }
  }
}
]]></script>
        <defs>
                <circle id="rim" cx="0" cy="0" r="7"/>
                <circle id="rim2" cx="0" cy="0" r="3.5"/>
                <g id="zoomPlus">
                        <use xlink:href="#rim" fill="#404040">
                                <set attributeName="fill" to="#808080" begin="zoomplus.mouseover" end="zoomplus.mouseout"/>
                        </use>
                        <path d="M-4,0h8M0,-4v8" fill="none" stroke="white" stroke-width="1.5" pointer-events="none"/>
                </g>
                <g id="zoomMin">
                        <use xlink:href="#rim" fill="#404040">
                                <set attributeName="fill" to="#808080" begin="zoomminus.mouseover" end="zoomminus.mouseout"/>
                        </use>
                        <path d="M-4,0h8" fill="none" stroke="white" stroke-width="1.5" pointer-events="none"/>
                </g>
                <g id="dirArrow">
                        <path fill="none" stroke="white" stroke-width="1.5" d="M0,-3.0v7 M-2.5,-0.5L0,-3.0L2.5,-0.5"/>
                </g>
               <g id="resetDef">
                       <use xlink:href="#rim2" fill="#404040">
                               <set attributeName="fill" to="#808080" begin="reset.mouseover" end="reset.mouseout"/>
                       </use>
               </g>
        </defs>

<script type="text/javascript">
var viewWidth = 539;
var viewHeight = 104;
var sectionId = 'dynsection-5';
</script>
<script xlink:href="svgpan.js"/>
<svg id="graph" class="graph">
<g id="viewport">
<title>SICAD::initSICAD</title>
<polygon fill="white" stroke="none" points="-4,4 -4,-100 535,-100 535,4 -4,4"/>
<!-- Node31 -->
<g id="node1" class="node"><title>Node31</title>
<polygon fill="#bfbfbf" stroke="black" points="0,-57.5 0,-76.5 94,-76.5 94,-57.5 0,-57.5"/>
<text text-anchor="middle" x="47" y="-64.5" font-family="Helvetica,sans-Serif" font-size="10.00">SICAD::initSICAD</text>
</g>
<!-- Node32 -->
<g id="node2" class="node"><title>Node32</title>
<g id="a_node2"><a xlink:href="classSICAD.html#a04e1291dc1a51b2dee87dbe9a5b3a316" target="_top" xlink:title="SICAD::initSICAD">
<polygon fill="white" stroke="black" points="151,-76.5 151,-95.5 245,-95.5 245,-76.5 151,-76.5"/>
<text text-anchor="middle" x="198" y="-83.5" font-family="Helvetica,sans-Serif" font-size="10.00">SICAD::initSICAD</text>
</a>
</g>
</g>
<!-- Node31&#45;&gt;Node32 -->
<g id="edge1" class="edge"><title>Node31&#45;&gt;Node32</title>
<path fill="none" stroke="midnightblue" d="M94.3278,-72.9076C109.114,-74.7931 125.637,-76.9 141.032,-78.8632"/>
<polygon fill="midnightblue" stroke="midnightblue" points="140.595,-82.3356 150.957,-80.1287 141.48,-75.3918 140.595,-82.3356"/>
</g>
<!-- Node35 -->
<g id="node5" class="node"><title>Node35</title>
<g id="a_node5"><a xlink:href="classSICAD.html#a39cdff6871d32429d8ba95b776e0b874" target="_top" xlink:title="SICAD::setProjectionMatrix">
<polygon fill="white" stroke="black" points="130,-38.5 130,-57.5 266,-57.5 266,-38.5 130,-38.5"/>
<text text-anchor="middle" x="198" y="-45.5" font-family="Helvetica,sans-Serif" font-size="10.00">SICAD::setProjectionMatrix</text>
</a>
</g>
</g>
<!-- Node31&#45;&gt;Node35 -->
<g id="edge4" class="edge"><title>Node31&#45;&gt;Node35</title>
<path fill="none" stroke="midnightblue" d="M94.3278,-61.0924C102.433,-60.0589 111.059,-58.9589 119.736,-57.8524"/>
<polygon fill="midnightblue" stroke="midnightblue" points="120.44,-61.2911 129.917,-56.5542 119.554,-54.3474 120.44,-61.2911"/>
</g>
<!-- Node33 -->
<g id="node3" class="node"><title>Node33</title>
<g id="a_node3"><a xlink:href="classSICAD.html#a102619690ab32e300405d22d52e36a5e" target="_top" xlink:title="SICAD::initOGL">
<polygon fill="white" stroke="black" points="304,-76.5 304,-95.5 389,-95.5 389,-76.5 304,-76.5"/>
<text text-anchor="middle" x="346.5" y="-83.5" font-family="Helvetica,sans-Serif" font-size="10.00">SICAD::initOGL</text>
</a>
</g>
</g>
<!-- Node32&#45;&gt;Node33 -->
<g id="edge2" class="edge"><title>Node32&#45;&gt;Node33</title>
<path fill="none" stroke="midnightblue" d="M245.354,-86C260.757,-86 278.003,-86 293.785,-86"/>
<polygon fill="midnightblue" stroke="midnightblue" points="293.911,-89.5001 303.911,-86 293.911,-82.5001 293.911,-89.5001"/>
</g>
<!-- Node34 -->
<g id="node4" class="node"><title>Node34</title>
<g id="a_node4"><a xlink:href="classSICAD.html#a2603ec5cb9a31bc7be0a335ef513ab0d" target="_top" xlink:title="SICAD::factorize_int">
<polygon fill="white" stroke="black" points="427,-76.5 427,-95.5 531,-95.5 531,-76.5 427,-76.5"/>
<text text-anchor="middle" x="479" y="-83.5" font-family="Helvetica,sans-Serif" font-size="10.00">SICAD::factorize_int</text>
</a>
</g>
</g>
<!-- Node33&#45;&gt;Node34 -->
<g id="edge3" class="edge"><title>Node33&#45;&gt;Node34</title>
<path fill="none" stroke="midnightblue" d="M389.15,-86C397.915,-86 407.336,-86 416.651,-86"/>
<polygon fill="midnightblue" stroke="midnightblue" points="416.681,-89.5001 426.68,-86 416.68,-82.5001 416.681,-89.5001"/>
</g>
<!-- Node36 -->
<g id="node6" class="node"><title>Node36</title>
<g id="a_node6"><a xlink:href="classShader.html#a8e53260be208ebf6c804a0d309e74097" target="_top" xlink:title="Shader::install">
<polygon fill="white" stroke="black" points="307,-38.5 307,-57.5 386,-57.5 386,-38.5 307,-38.5"/>
<text text-anchor="middle" x="346.5" y="-45.5" font-family="Helvetica,sans-Serif" font-size="10.00">Shader::install</text>
</a>
</g>
</g>
<!-- Node35&#45;&gt;Node36 -->
<g id="edge5" class="edge"><title>Node35&#45;&gt;Node36</title>
<path fill="none" stroke="midnightblue" d="M266.247,-48C276.411,-48 286.73,-48 296.415,-48"/>
<polygon fill="midnightblue" stroke="midnightblue" points="296.637,-51.5001 306.637,-48 296.637,-44.5001 296.637,-51.5001"/>
</g>
<!-- Node37 -->
<g id="node7" class="node"><title>Node37</title>
<g id="a_node7"><a xlink:href="classShader.html#afa6fb33b37c9385cf62a836092da570b" target="_top" xlink:title="Shader::uninstall">
<polygon fill="white" stroke="black" points="302,-0.5 302,-19.5 391,-19.5 391,-0.5 302,-0.5"/>
<text text-anchor="middle" x="346.5" y="-7.5" font-family="Helvetica,sans-Serif" font-size="10.00">Shader::uninstall</text>
</a>
</g>
</g>
<!-- Node35&#45;&gt;Node37 -->
<g id="edge6" class="edge"><title>Node35&#45;&gt;Node37</title>
<path fill="none" stroke="midnightblue" d="M235.968,-38.411C255.126,-33.4417 278.714,-27.3233 299.088,-22.0387"/>
<polygon fill="midnightblue" stroke="midnightblue" points="299.997,-25.4188 308.798,-19.5201 298.239,-18.643 299.997,-25.4188"/>
</g>
</g>
</svg>
        <g id="navigator" transform="translate(0 0)" fill="#404254">
                <rect fill="#f2f5e9" fill-opacity="0.5" stroke="#606060" stroke-width=".5" x="0" y="0" width="60" height="60"/>
                <use id="zoomplus" xlink:href="#zoomPlus" x="17" y="9" onmousedown="handleZoom(evt,'in')"/>
                <use id="zoomminus" xlink:href="#zoomMin" x="42" y="9" onmousedown="handleZoom(evt,'out')"/>
                <use id="reset" xlink:href="#resetDef" x="30" y="36" onmousedown="handleReset()"/>
                <g id="arrowUp" xlink:href="#dirArrow" transform="translate(30 24)" onmousedown="handlePan(0,-1)">
                  <use xlink:href="#rim" fill="#404040">
                        <set attributeName="fill" to="#808080" begin="arrowUp.mouseover" end="arrowUp.mouseout"/>
                  </use>
                  <path fill="none" stroke="white" stroke-width="1.5" d="M0,-3.0v7 M-2.5,-0.5L0,-3.0L2.5,-0.5"/>
                </g>
                <g id="arrowRight" xlink:href="#dirArrow" transform="rotate(90) translate(36 -43)" onmousedown="handlePan(1,0)">
                  <use xlink:href="#rim" fill="#404040">
                        <set attributeName="fill" to="#808080" begin="arrowRight.mouseover" end="arrowRight.mouseout"/>
                  </use>
                  <path fill="none" stroke="white" stroke-width="1.5" d="M0,-3.0v7 M-2.5,-0.5L0,-3.0L2.5,-0.5"/>
                </g>
                <g id="arrowDown" xlink:href="#dirArrow" transform="rotate(180) translate(-30 -48)" onmousedown="handlePan(0,1)">
                  <use xlink:href="#rim" fill="#404040">
                        <set attributeName="fill" to="#808080" begin="arrowDown.mouseover" end="arrowDown.mouseout"/>
                  </use>
                  <path fill="none" stroke="white" stroke-width="1.5" d="M0,-3.0v7 M-2.5,-0.5L0,-3.0L2.5,-0.5"/>
                </g>
                <g id="arrowLeft" xlink:href="#dirArrow" transform="rotate(270) translate(-36 17)" onmousedown="handlePan(-1,0)">
                  <use xlink:href="#rim" fill="#404040">
                        <set attributeName="fill" to="#808080" begin="arrowLeft.mouseover" end="arrowLeft.mouseout"/>
                  </use>
                  <path fill="none" stroke="white" stroke-width="1.5" d="M0,-3.0v7 M-2.5,-0.5L0,-3.0L2.5,-0.5"/>
                </g>
        </g>
        <svg viewBox="0 0 15 15" width="100%" height="30px" preserveAspectRatio="xMaxYMin meet">
         <g id="arrow_out" transform="scale(0.3 0.3)">
          <a xlink:href="classSICAD_abb2b0250a885435828d5255645e06ac8_cgraph_org.svg" target="_base">
           <rect id="button" ry="5" rx="5" y="6" x="6" height="38" width="38"
                fill="#f2f5e9" fill-opacity="0.5" stroke="#606060" stroke-width="1.0"/>
           <path id="arrow"
             d="M 11.500037,31.436501 C 11.940474,20.09759 22.043105,11.32322 32.158766,21.979434 L 37.068811,17.246167 C 37.068811,17.246167 37.088388,32 37.088388,32 L 22.160133,31.978069 C 22.160133,31.978069 26.997745,27.140456 26.997745,27.140456 C 18.528582,18.264221 13.291696,25.230495 11.500037,31.436501 z"
             style="fill:#404040;"/>
          </a>
         </g>
        </svg>
</svg>
