<?xml version="1.0" encoding="UTF-8" standalone="no"?>
<!DOCTYPE svg PUBLIC "-//W3C//DTD SVG 1.1//EN"
 "http://www.w3.org/Graphics/SVG/1.1/DTD/svg11.dtd">
<!-- Generated by graphviz version 2.38.0 (20140413.2041)
 -->
<!-- Title: SICAD::SICAD Pages: 1 -->
<svg width="480pt" height="28pt"
 viewBox="0.00 0.00 480.00 28.00" xmlns="http://www.w3.org/2000/svg" xmlns:xlink="http://www.w3.org/1999/xlink">
<g id="graph0" class="graph" transform="scale(1 1) rotate(0) translate(4 24)">
<title>SICAD::SICAD</title>
<polygon fill="white" stroke="none" points="-4,4 -4,-24 476,-24 476,4 -4,4"/>
<!-- Node5 -->
<g id="node1" class="node"><title>Node5</title>
<polygon fill="#bfbfbf" stroke="black" points="0,-0.5 0,-19.5 81,-19.5 81,-0.5 0,-0.5"/>
<text text-anchor="middle" x="40.5" y="-7.5" font-family="Helvetica,sans-Serif" font-size="10.00">SICAD::SICAD</text>
</g>
<!-- Node6 -->
<g id="node2" class="node"><title>Node6</title>
<g id="a_node2"><a xlink:href="classSICAD.html#a04e1291dc1a51b2dee87dbe9a5b3a316" target="_top" xlink:title="SICAD::initSICAD">
<polygon fill="white" stroke="black" points="117,-0.5 117,-19.5 211,-19.5 211,-0.5 117,-0.5"/>
<text text-anchor="middle" x="164" y="-7.5" font-family="Helvetica,sans-Serif" font-size="10.00">SICAD::initSICAD</text>
</a>
</g>
</g>
<!-- Node5&#45;&gt;Node6 -->
<g id="edge1" class="edge"><title>Node5&#45;&gt;Node6</title>
<path fill="none" stroke="midnightblue" d="M81.2836,-10C89.4415,-10 98.1744,-10 106.785,-10"/>
<polygon fill="midnightblue" stroke="midnightblue" points="106.795,-13.5001 116.795,-10 106.795,-6.5001 106.795,-13.5001"/>
</g>
<!-- Node7 -->
<g id="node3" class="node"><title>Node7</title>
<g id="a_node3"><a xlink:href="classSICAD.html#a102619690ab32e300405d22d52e36a5e" target="_top" xlink:title="SICAD::initOGL">
<polygon fill="white" stroke="black" points="247,-0.5 247,-19.5 332,-19.5 332,-0.5 247,-0.5"/>
<text text-anchor="middle" x="289.5" y="-7.5" font-family="Helvetica,sans-Serif" font-size="10.00">SICAD::initOGL</text>
</a>
</g>
</g>
<!-- Node6&#45;&gt;Node7 -->
<g id="edge2" class="edge"><title>Node6&#45;&gt;Node7</title>
<path fill="none" stroke="midnightblue" d="M211.338,-10C219.61,-10 228.277,-10 236.69,-10"/>
<polygon fill="midnightblue" stroke="midnightblue" points="236.784,-13.5001 246.784,-10 236.784,-6.5001 236.784,-13.5001"/>
</g>
<!-- Node8 -->
<g id="node4" class="node"><title>Node8</title>
<g id="a_node4"><a xlink:href="classSICAD.html#a2603ec5cb9a31bc7be0a335ef513ab0d" target="_top" xlink:title="SICAD::factorize_int">
<polygon fill="white" stroke="black" points="368,-0.5 368,-19.5 472,-19.5 472,-0.5 368,-0.5"/>
<text text-anchor="middle" x="420" y="-7.5" font-family="Helvetica,sans-Serif" font-size="10.00">SICAD::factorize_int</text>
</a>
</g>
</g>
<!-- Node7&#45;&gt;Node8 -->
<g id="edge3" class="edge"><title>Node7&#45;&gt;Node8</title>
<path fill="none" stroke="midnightblue" d="M332.22,-10C340.332,-10 348.992,-10 357.584,-10"/>
<polygon fill="midnightblue" stroke="midnightblue" points="357.603,-13.5001 367.603,-10 357.603,-6.5001 357.603,-13.5001"/>
</g>
</g>
</svg>
