<?xml version="1.0" encoding="UTF-8" standalone="no"?>
<!DOCTYPE svg PUBLIC "-//W3C//DTD SVG 1.1//EN"
 "http://www.w3.org/Graphics/SVG/1.1/DTD/svg11.dtd">
<!-- Generated by graphviz version 2.38.0 (20140413.2041)
 -->
<!-- Title: SICAD::superimpose Pages: 1 -->
<svg width="601pt" height="344pt"
 viewBox="0.00 0.00 601.00 343.50" xmlns="http://www.w3.org/2000/svg" xmlns:xlink="http://www.w3.org/1999/xlink">
<g id="graph0" class="graph" transform="scale(1 1) rotate(0) translate(4 339.5)">
<title>SICAD::superimpose</title>
<polygon fill="white" stroke="none" points="-4,4 -4,-339.5 597,-339.5 597,4 -4,4"/>
<!-- Node71 -->
<g id="node1" class="node"><title>Node71</title>
<polygon fill="#bfbfbf" stroke="black" points="0,-211 0,-230 107,-230 107,-211 0,-211"/>
<text text-anchor="middle" x="53.5" y="-218" font-family="Helvetica,sans-Serif" font-size="10.00">SICAD::superimpose</text>
</g>
<!-- Node72 -->
<g id="node2" class="node"><title>Node72</title>
<g id="a_node2"><a xlink:href="classSICAD.html#a39cdff6871d32429d8ba95b776e0b874" target="_top" xlink:title="SICAD::setProjectionMatrix">
<polygon fill="white" stroke="black" points="293,-316 293,-335 429,-335 429,-316 293,-316"/>
<text text-anchor="middle" x="361" y="-323" font-family="Helvetica,sans-Serif" font-size="10.00">SICAD::setProjectionMatrix</text>
</a>
</g>
</g>
<!-- Node71&#45;&gt;Node72 -->
<g id="edge1" class="edge"><title>Node71&#45;&gt;Node72</title>
<path fill="none" stroke="midnightblue" d="M81.1666,-230.054C124.171,-245.411 211.555,-276.408 286,-301.5 297.186,-305.27 309.359,-309.263 320.541,-312.888"/>
<polygon fill="midnightblue" stroke="midnightblue" points="319.472,-316.221 330.064,-315.963 321.623,-309.559 319.472,-316.221"/>
</g>
<!-- Node75 -->
<g id="node5" class="node"><title>Node75</title>
<g id="a_node5"><a xlink:href="classSICAD.html#a356e0ac8a0f130952a72326bedd4ab60" target="_top" xlink:title="Superimpose one of the mesh models loaded during SICAD object construction in a given pose from a par...">
<polygon fill="white" stroke="black" points="143,-164 143,-183 250,-183 250,-164 143,-164"/>
<text text-anchor="middle" x="196.5" y="-171" font-family="Helvetica,sans-Serif" font-size="10.00">SICAD::superimpose</text>
</a>
</g>
</g>
<!-- Node71&#45;&gt;Node75 -->
<g id="edge4" class="edge"><title>Node71&#45;&gt;Node75</title>
<path fill="none" stroke="midnightblue" d="M83.0335,-210.989C104.298,-203.901 133.57,-194.143 156.921,-186.36"/>
<polygon fill="midnightblue" stroke="midnightblue" points="158.145,-189.641 166.525,-183.158 155.931,-183 158.145,-189.641"/>
</g>
<!-- Node73 -->
<g id="node3" class="node"><title>Node73</title>
<g id="a_node3"><a xlink:href="classShader.html#a8e53260be208ebf6c804a0d309e74097" target="_top" xlink:title="Shader::install">
<polygon fill="white" stroke="black" points="493,-278 493,-297 572,-297 572,-278 493,-278"/>
<text text-anchor="middle" x="532.5" y="-285" font-family="Helvetica,sans-Serif" font-size="10.00">Shader::install</text>
</a>
</g>
</g>
<!-- Node72&#45;&gt;Node73 -->
<g id="edge2" class="edge"><title>Node72&#45;&gt;Node73</title>
<path fill="none" stroke="midnightblue" d="M404.772,-315.911C428.562,-310.578 458.256,-303.92 482.92,-298.391"/>
<polygon fill="midnightblue" stroke="midnightblue" points="483.807,-301.779 492.799,-296.176 482.276,-294.949 483.807,-301.779"/>
</g>
<!-- Node74 -->
<g id="node4" class="node"><title>Node74</title>
<g id="a_node4"><a xlink:href="classShader.html#afa6fb33b37c9385cf62a836092da570b" target="_top" xlink:title="Shader::uninstall">
<polygon fill="white" stroke="black" points="488,-145 488,-164 577,-164 577,-145 488,-145"/>
<text text-anchor="middle" x="532.5" y="-152" font-family="Helvetica,sans-Serif" font-size="10.00">Shader::uninstall</text>
</a>
</g>
</g>
<!-- Node72&#45;&gt;Node74 -->
<g id="edge3" class="edge"><title>Node72&#45;&gt;Node74</title>
<path fill="none" stroke="midnightblue" d="M376.368,-315.842C391.84,-305.13 416.813,-286.917 436,-268.5 468.394,-237.406 500.849,-195.947 518.332,-172.556"/>
<polygon fill="midnightblue" stroke="midnightblue" points="521.334,-174.383 524.468,-164.262 515.706,-170.22 521.334,-174.383"/>
</g>
<!-- Node75&#45;&gt;Node73 -->
<g id="edge8" class="edge"><title>Node75&#45;&gt;Node73</title>
<path fill="none" stroke="midnightblue" d="M203.061,-183.241C215.153,-203.358 245.996,-249.224 286,-268.5 348.691,-298.708 430.92,-298.181 482.491,-293.792"/>
<polygon fill="midnightblue" stroke="midnightblue" points="483.066,-297.254 492.697,-292.839 482.415,-290.284 483.066,-297.254"/>
</g>
<!-- Node75&#45;&gt;Node74 -->
<g id="edge15" class="edge"><title>Node75&#45;&gt;Node74</title>
<path fill="none" stroke="midnightblue" d="M207.924,-163.866C223.509,-150.192 254.441,-125.784 286,-116.5 349.957,-97.686 371.289,-100.471 436,-116.5 453.561,-120.85 455.318,-128.499 472,-135.5 477.187,-137.677 482.715,-139.752 488.233,-141.676"/>
<polygon fill="midnightblue" stroke="midnightblue" points="487.484,-145.117 498.078,-144.968 489.704,-138.478 487.484,-145.117"/>
</g>
<!-- Node76 -->
<g id="node6" class="node"><title>Node76</title>
<g id="a_node6"><a xlink:href="classSICAD.html#a170bd325654aed9eb81062ac610608fa" target="_top" xlink:title="SICAD::getBackgroundOpt">
<polygon fill="white" stroke="black" points="294.5,-50 294.5,-69 427.5,-69 427.5,-50 294.5,-50"/>
<text text-anchor="middle" x="361" y="-57" font-family="Helvetica,sans-Serif" font-size="10.00">SICAD::getBackgroundOpt</text>
</a>
</g>
</g>
<!-- Node75&#45;&gt;Node76 -->
<g id="edge5" class="edge"><title>Node75&#45;&gt;Node76</title>
<path fill="none" stroke="midnightblue" d="M204.405,-163.872C217.993,-145.6 250.026,-105.74 286,-83.5 293.024,-79.1577 300.914,-75.5206 308.855,-72.4996"/>
<polygon fill="midnightblue" stroke="midnightblue" points="310.234,-75.7252 318.513,-69.114 307.918,-69.1193 310.234,-75.7252"/>
</g>
<!-- Node77 -->
<g id="node7" class="node"><title>Node77</title>
<g id="a_node7"><a xlink:href="classSICAD.html#a1bdece095865249df4cb4e6a7ad2901e" target="_top" xlink:title="SICAD::getViewTransformation\lMatrix">
<polygon fill="white" stroke="black" points="286,-0.5 286,-30.5 436,-30.5 436,-0.5 286,-0.5"/>
<text text-anchor="start" x="294" y="-18.5" font-family="Helvetica,sans-Serif" font-size="10.00">SICAD::getViewTransformation</text>
<text text-anchor="middle" x="361" y="-7.5" font-family="Helvetica,sans-Serif" font-size="10.00">Matrix</text>
</a>
</g>
</g>
<!-- Node75&#45;&gt;Node77 -->
<g id="edge6" class="edge"><title>Node75&#45;&gt;Node77</title>
<path fill="none" stroke="midnightblue" d="M201.268,-163.89C211.28,-139.581 240.901,-75.1227 286,-40.5 288.449,-38.6201 291.047,-36.8768 293.749,-35.2608"/>
<polygon fill="midnightblue" stroke="midnightblue" points="295.485,-38.302 302.676,-30.5209 292.202,-32.1195 295.485,-38.302"/>
</g>
<!-- Node78 -->
<g id="node8" class="node"><title>Node78</title>
<g id="a_node8"><a xlink:href="classSICAD.html#af65b5ad73e2c0e872face157b56bd68b" target="_top" xlink:title="SICAD::getWireframeOpt">
<polygon fill="white" stroke="black" points="298.5,-240 298.5,-259 423.5,-259 423.5,-240 298.5,-240"/>
<text text-anchor="middle" x="361" y="-247" font-family="Helvetica,sans-Serif" font-size="10.00">SICAD::getWireframeOpt</text>
</a>
</g>
</g>
<!-- Node75&#45;&gt;Node78 -->
<g id="edge7" class="edge"><title>Node75&#45;&gt;Node78</title>
<path fill="none" stroke="midnightblue" d="M209.671,-183.164C226.097,-195.764 256.691,-217.7 286,-230.5 291.664,-232.973 297.717,-235.176 303.831,-237.124"/>
<polygon fill="midnightblue" stroke="midnightblue" points="302.857,-240.486 313.44,-239.979 304.851,-233.776 302.857,-240.486"/>
</g>
<!-- Node79 -->
<g id="node9" class="node"><title>Node79</title>
<g id="a_node9"><a xlink:href="classSICAD.html#a8238a2b2c488c8b7ba85d5b2a0bf00ac" target="_top" xlink:title="SICAD::pollOrPostEvent">
<polygon fill="white" stroke="black" points="300,-202 300,-221 422,-221 422,-202 300,-202"/>
<text text-anchor="middle" x="361" y="-209" font-family="Helvetica,sans-Serif" font-size="10.00">SICAD::pollOrPostEvent</text>
</a>
</g>
</g>
<!-- Node75&#45;&gt;Node79 -->
<g id="edge9" class="edge"><title>Node75&#45;&gt;Node79</title>
<path fill="none" stroke="midnightblue" d="M238.506,-183.089C260.046,-188.126 286.635,-194.344 309.441,-199.677"/>
<polygon fill="midnightblue" stroke="midnightblue" points="308.755,-203.111 319.289,-201.98 310.349,-196.295 308.755,-203.111"/>
</g>
<!-- Node80 -->
<g id="node10" class="node"><title>Node80</title>
<g id="a_node10"><a xlink:href="classSICAD.html#a25b180f54f2e93d69b291cc225600c8e" target="_top" xlink:title="SICAD::setBackground">
<polygon fill="white" stroke="black" points="302.5,-126 302.5,-145 419.5,-145 419.5,-126 302.5,-126"/>
<text text-anchor="middle" x="361" y="-133" font-family="Helvetica,sans-Serif" font-size="10.00">SICAD::setBackground</text>
</a>
</g>
</g>
<!-- Node75&#45;&gt;Node80 -->
<g id="edge10" class="edge"><title>Node75&#45;&gt;Node80</title>
<path fill="none" stroke="midnightblue" d="M238.506,-163.911C260.046,-158.874 286.635,-152.656 309.441,-147.323"/>
<polygon fill="midnightblue" stroke="midnightblue" points="310.349,-150.705 319.289,-145.02 308.755,-143.889 310.349,-150.705"/>
</g>
<!-- Node82 -->
<g id="node12" class="node"><title>Node82</title>
<g id="a_node12"><a xlink:href="classSICAD.html#ae7af7aba5d81b9f1cc3e273a55811a70" target="_top" xlink:title="SICAD::setWireframe">
<polygon fill="white" stroke="black" points="306,-164 306,-183 416,-183 416,-164 306,-164"/>
<text text-anchor="middle" x="361" y="-171" font-family="Helvetica,sans-Serif" font-size="10.00">SICAD::setWireframe</text>
</a>
</g>
</g>
<!-- Node75&#45;&gt;Node82 -->
<g id="edge14" class="edge"><title>Node75&#45;&gt;Node82</title>
<path fill="none" stroke="midnightblue" d="M250.259,-173.5C264.716,-173.5 280.551,-173.5 295.582,-173.5"/>
<polygon fill="midnightblue" stroke="midnightblue" points="295.833,-177 305.833,-173.5 295.833,-170 295.833,-177"/>
</g>
<!-- Node80&#45;&gt;Node73 -->
<g id="edge12" class="edge"><title>Node80&#45;&gt;Node73</title>
<path fill="none" stroke="midnightblue" d="M417.234,-145.051C423.872,-147.512 430.306,-150.607 436,-154.5 479.032,-183.92 509.417,-239.437 523.193,-268.566"/>
<polygon fill="midnightblue" stroke="midnightblue" points="520.022,-270.048 527.367,-277.684 526.387,-267.134 520.022,-270.048"/>
</g>
<!-- Node80&#45;&gt;Node74 -->
<g id="edge13" class="edge"><title>Node80&#45;&gt;Node74</title>
<path fill="none" stroke="midnightblue" d="M419.858,-141.986C438.631,-144.09 459.369,-146.414 477.824,-148.483"/>
<polygon fill="midnightblue" stroke="midnightblue" points="477.487,-151.967 487.815,-149.603 478.267,-145.011 477.487,-151.967"/>
</g>
<!-- Node81 -->
<g id="node11" class="node"><title>Node81</title>
<g id="a_node11"><a xlink:href="classSICAD.html#a8033a99745f595ea5205e3830cabc389" target="_top" xlink:title="SICAD::getMipmapsOpt">
<polygon fill="white" stroke="black" points="472,-107 472,-126 593,-126 593,-107 472,-107"/>
<text text-anchor="middle" x="532.5" y="-114" font-family="Helvetica,sans-Serif" font-size="10.00">SICAD::getMipmapsOpt</text>
</a>
</g>
</g>
<!-- Node80&#45;&gt;Node81 -->
<g id="edge11" class="edge"><title>Node80&#45;&gt;Node81</title>
<path fill="none" stroke="midnightblue" d="M419.858,-129.014C433.363,-127.501 447.885,-125.873 461.842,-124.308"/>
<polygon fill="midnightblue" stroke="midnightblue" points="462.335,-127.775 471.883,-123.183 461.555,-120.819 462.335,-127.775"/>
</g>
</g>
</svg>
