<?xml version="1.0" encoding="UTF-8" standalone="no"?>
<!DOCTYPE svg PUBLIC "-//W3C//DTD SVG 1.1//EN"
 "http://www.w3.org/Graphics/SVG/1.1/DTD/svg11.dtd">
<!-- Generated by graphviz version 2.38.0 (20140413.2041)
 -->
<!-- Title: C:/Users/cfantacci/GitHub/superimpose&#45;mesh&#45;lib/src/SuperimposeMesh/include/SuperimposeMesh/Mesh.h Pages: 1 -->
<svg width="589pt" height="328pt"
 viewBox="0.00 0.00 589.00 328.00" xmlns="http://www.w3.org/2000/svg" xmlns:xlink="http://www.w3.org/1999/xlink">
<g id="graph0" class="graph" transform="scale(1 1) rotate(0) translate(4 324)">
<title>C:/Users/cfantacci/GitHub/superimpose&#45;mesh&#45;lib/src/SuperimposeMesh/include/SuperimposeMesh/Mesh.h</title>
<polygon fill="white" stroke="none" points="-4,4 -4,-324 585,-324 585,4 -4,4"/>
<!-- Node8 -->
<g id="node1" class="node"><title>Node8</title>
<polygon fill="#bfbfbf" stroke="black" points="325.5,-267.5 325.5,-319.5 495.5,-319.5 495.5,-267.5 325.5,-267.5"/>
<text text-anchor="start" x="333.5" y="-307.5" font-family="Helvetica,sans-Serif" font-size="10.00">C:/Users/cfantacci</text>
<text text-anchor="start" x="333.5" y="-296.5" font-family="Helvetica,sans-Serif" font-size="10.00">/GitHub/superimpose</text>
<text text-anchor="start" x="333.5" y="-285.5" font-family="Helvetica,sans-Serif" font-size="10.00">&#45;mesh&#45;lib/src/SuperimposeMesh</text>
<text text-anchor="middle" x="410.5" y="-274.5" font-family="Helvetica,sans-Serif" font-size="10.00">/include/SuperimposeMesh/Mesh.h</text>
</g>
<!-- Node9 -->
<g id="node2" class="node"><title>Node9</title>
<g id="a_node2"><a xlink:href="Model_8h.html" target="_top" xlink:title="C:/Users/cfantacci\l/GitHub/superimpose\l&#45;mesh&#45;lib/src/SuperimposeMesh\l/include/SuperimposeMesh/Model.h">
<polygon fill="white" stroke="black" points="233.5,-178.5 233.5,-230.5 405.5,-230.5 405.5,-178.5 233.5,-178.5"/>
<text text-anchor="start" x="241.5" y="-218.5" font-family="Helvetica,sans-Serif" font-size="10.00">C:/Users/cfantacci</text>
<text text-anchor="start" x="241.5" y="-207.5" font-family="Helvetica,sans-Serif" font-size="10.00">/GitHub/superimpose</text>
<text text-anchor="start" x="241.5" y="-196.5" font-family="Helvetica,sans-Serif" font-size="10.00">&#45;mesh&#45;lib/src/SuperimposeMesh</text>
<text text-anchor="middle" x="319.5" y="-185.5" font-family="Helvetica,sans-Serif" font-size="10.00">/include/SuperimposeMesh/Model.h</text>
</a>
</g>
</g>
<!-- Node8&#45;&gt;Node9 -->
<g id="edge1" class="edge"><title>Node8&#45;&gt;Node9</title>
<path fill="none" stroke="midnightblue" d="M376.886,-260.363C366.613,-250.542 355.471,-239.89 345.762,-230.607"/>
<polygon fill="midnightblue" stroke="midnightblue" points="374.532,-262.955 384.179,-267.336 379.37,-257.896 374.532,-262.955"/>
</g>
<!-- Node15 -->
<g id="node8" class="node"><title>Node15</title>
<g id="a_node8"><a xlink:href="Mesh_8cpp.html" target="_top" xlink:title="C:/Users/cfantacci\l/GitHub/superimpose\l&#45;mesh&#45;lib/src/SuperimposeMesh\l/src/Mesh.cpp">
<polygon fill="white" stroke="black" points="424,-178.5 424,-230.5 581,-230.5 581,-178.5 424,-178.5"/>
<text text-anchor="start" x="432" y="-218.5" font-family="Helvetica,sans-Serif" font-size="10.00">C:/Users/cfantacci</text>
<text text-anchor="start" x="432" y="-207.5" font-family="Helvetica,sans-Serif" font-size="10.00">/GitHub/superimpose</text>
<text text-anchor="start" x="432" y="-196.5" font-family="Helvetica,sans-Serif" font-size="10.00">&#45;mesh&#45;lib/src/SuperimposeMesh</text>
<text text-anchor="middle" x="502.5" y="-185.5" font-family="Helvetica,sans-Serif" font-size="10.00">/src/Mesh.cpp</text>
</a>
</g>
</g>
<!-- Node8&#45;&gt;Node15 -->
<g id="edge7" class="edge"><title>Node8&#45;&gt;Node15</title>
<path fill="none" stroke="midnightblue" d="M444.484,-260.363C454.869,-250.542 466.134,-239.89 475.95,-230.607"/>
<polygon fill="midnightblue" stroke="midnightblue" points="441.971,-257.922 437.11,-267.336 446.781,-263.008 441.971,-257.922"/>
</g>
<!-- Node10 -->
<g id="node3" class="node"><title>Node10</title>
<g id="a_node3"><a xlink:href="SICAD_8h.html" target="_top" xlink:title="C:/Users/cfantacci\l/GitHub/superimpose\l&#45;mesh&#45;lib/src/SuperimposeMesh\l/include/SuperimposeMesh/SICAD.h">
<polygon fill="white" stroke="black" points="140,-89.5 140,-141.5 315,-141.5 315,-89.5 140,-89.5"/>
<text text-anchor="start" x="148" y="-129.5" font-family="Helvetica,sans-Serif" font-size="10.00">C:/Users/cfantacci</text>
<text text-anchor="start" x="148" y="-118.5" font-family="Helvetica,sans-Serif" font-size="10.00">/GitHub/superimpose</text>
<text text-anchor="start" x="148" y="-107.5" font-family="Helvetica,sans-Serif" font-size="10.00">&#45;mesh&#45;lib/src/SuperimposeMesh</text>
<text text-anchor="middle" x="227.5" y="-96.5" font-family="Helvetica,sans-Serif" font-size="10.00">/include/SuperimposeMesh/SICAD.h</text>
</a>
</g>
</g>
<!-- Node9&#45;&gt;Node10 -->
<g id="edge2" class="edge"><title>Node9&#45;&gt;Node10</title>
<path fill="none" stroke="midnightblue" d="M285.516,-171.363C275.131,-161.542 263.866,-150.89 254.05,-141.607"/>
<polygon fill="midnightblue" stroke="midnightblue" points="283.219,-174.008 292.89,-178.336 288.029,-168.922 283.219,-174.008"/>
</g>
<!-- Node14 -->
<g id="node7" class="node"><title>Node14</title>
<g id="a_node7"><a xlink:href="Model_8cpp.html" target="_top" xlink:title="C:/Users/cfantacci\l/GitHub/superimpose\l&#45;mesh&#45;lib/src/SuperimposeMesh\l/src/Model.cpp">
<polygon fill="white" stroke="black" points="333,-89.5 333,-141.5 490,-141.5 490,-89.5 333,-89.5"/>
<text text-anchor="start" x="341" y="-129.5" font-family="Helvetica,sans-Serif" font-size="10.00">C:/Users/cfantacci</text>
<text text-anchor="start" x="341" y="-118.5" font-family="Helvetica,sans-Serif" font-size="10.00">/GitHub/superimpose</text>
<text text-anchor="start" x="341" y="-107.5" font-family="Helvetica,sans-Serif" font-size="10.00">&#45;mesh&#45;lib/src/SuperimposeMesh</text>
<text text-anchor="middle" x="411.5" y="-96.5" font-family="Helvetica,sans-Serif" font-size="10.00">/src/Model.cpp</text>
</a>
</g>
</g>
<!-- Node9&#45;&gt;Node14 -->
<g id="edge6" class="edge"><title>Node9&#45;&gt;Node14</title>
<path fill="none" stroke="midnightblue" d="M353.484,-171.363C363.869,-161.542 375.134,-150.89 384.95,-141.607"/>
<polygon fill="midnightblue" stroke="midnightblue" points="350.971,-168.922 346.11,-178.336 355.781,-174.008 350.971,-168.922"/>
</g>
<!-- Node11 -->
<g id="node4" class="node"><title>Node11</title>
<g id="a_node4"><a xlink:href="SICAD_8cpp.html" target="_top" xlink:title="C:/Users/cfantacci\l/GitHub/superimpose\l&#45;mesh&#45;lib/src/SuperimposeMesh\l/src/SICAD.cpp">
<polygon fill="white" stroke="black" points="0,-0.5 0,-52.5 157,-52.5 157,-0.5 0,-0.5"/>
<text text-anchor="start" x="8" y="-40.5" font-family="Helvetica,sans-Serif" font-size="10.00">C:/Users/cfantacci</text>
<text text-anchor="start" x="8" y="-29.5" font-family="Helvetica,sans-Serif" font-size="10.00">/GitHub/superimpose</text>
<text text-anchor="start" x="8" y="-18.5" font-family="Helvetica,sans-Serif" font-size="10.00">&#45;mesh&#45;lib/src/SuperimposeMesh</text>
<text text-anchor="middle" x="78.5" y="-7.5" font-family="Helvetica,sans-Serif" font-size="10.00">/src/SICAD.cpp</text>
</a>
</g>
</g>
<!-- Node10&#45;&gt;Node11 -->
<g id="edge3" class="edge"><title>Node10&#45;&gt;Node11</title>
<path fill="none" stroke="midnightblue" d="M175.385,-84.0705C157.774,-73.7877 138.324,-62.4307 121.5,-52.6075"/>
<polygon fill="midnightblue" stroke="midnightblue" points="174.003,-87.3161 184.403,-89.336 177.532,-81.2711 174.003,-87.3161"/>
</g>
<!-- Node12 -->
<g id="node5" class="node"><title>Node12</title>
<g id="a_node5"><a xlink:href="tutorial__background_8cpp.html" target="_top" xlink:title="tutorial_code/tutorial\l_background.cpp">
<polygon fill="white" stroke="black" points="175.5,-11.5 175.5,-41.5 279.5,-41.5 279.5,-11.5 175.5,-11.5"/>
<text text-anchor="start" x="183.5" y="-29.5" font-family="Helvetica,sans-Serif" font-size="10.00">tutorial_code/tutorial</text>
<text text-anchor="middle" x="227.5" y="-18.5" font-family="Helvetica,sans-Serif" font-size="10.00">_background.cpp</text>
</a>
</g>
</g>
<!-- Node10&#45;&gt;Node12 -->
<g id="edge4" class="edge"><title>Node10&#45;&gt;Node12</title>
<path fill="none" stroke="midnightblue" d="M227.5,-79.1453C227.5,-66.0465 227.5,-51.9258 227.5,-41.7658"/>
<polygon fill="midnightblue" stroke="midnightblue" points="224,-79.336 227.5,-89.336 231,-79.336 224,-79.336"/>
</g>
<!-- Node13 -->
<g id="node6" class="node"><title>Node13</title>
<g id="a_node6"><a xlink:href="tutorial__superimpose_8cpp.html" target="_top" xlink:title="tutorial_code/tutorial\l_superimpose.cpp">
<polygon fill="white" stroke="black" points="297.5,-11.5 297.5,-41.5 401.5,-41.5 401.5,-11.5 297.5,-11.5"/>
<text text-anchor="start" x="305.5" y="-29.5" font-family="Helvetica,sans-Serif" font-size="10.00">tutorial_code/tutorial</text>
<text text-anchor="middle" x="349.5" y="-18.5" font-family="Helvetica,sans-Serif" font-size="10.00">_superimpose.cpp</text>
</a>
</g>
</g>
<!-- Node10&#45;&gt;Node13 -->
<g id="edge5" class="edge"><title>Node10&#45;&gt;Node13</title>
<path fill="none" stroke="midnightblue" d="M271.192,-83.3427C291.257,-69.0338 314.047,-52.7823 329.846,-41.5158"/>
<polygon fill="midnightblue" stroke="midnightblue" points="268.897,-80.6802 262.787,-89.336 272.961,-86.3795 268.897,-80.6802"/>
</g>
</g>
</svg>
