<?xml version="1.0" encoding="UTF-8" standalone="no"?>
<!DOCTYPE svg PUBLIC "-//W3C//DTD SVG 1.1//EN"
 "http://www.w3.org/Graphics/SVG/1.1/DTD/svg11.dtd">
<!-- Generated by graphviz version 2.38.0 (20140413.2041)
 -->
<!-- Title: C:/Users/cfantacci/GitHub/superimpose&#45;mesh&#45;lib/src/SuperimposeMesh/include/SuperimposeMesh/Mesh.h Pages: 1 -->
<svg width="474pt" height="173pt"
 viewBox="0.00 0.00 473.50 173.00" xmlns="http://www.w3.org/2000/svg" xmlns:xlink="http://www.w3.org/1999/xlink">
<g id="graph0" class="graph" transform="scale(1 1) rotate(0) translate(4 169)">
<title>C:/Users/cfantacci/GitHub/superimpose&#45;mesh&#45;lib/src/SuperimposeMesh/include/SuperimposeMesh/Mesh.h</title>
<polygon fill="white" stroke="none" points="-4,4 -4,-169 469.5,-169 469.5,4 -4,4"/>
<!-- Node0 -->
<g id="node1" class="node"><title>Node0</title>
<polygon fill="#bfbfbf" stroke="black" points="109.5,-112.5 109.5,-164.5 279.5,-164.5 279.5,-112.5 109.5,-112.5"/>
<text text-anchor="start" x="117.5" y="-152.5" font-family="Helvetica,sans-Serif" font-size="10.00">C:/Users/cfantacci</text>
<text text-anchor="start" x="117.5" y="-141.5" font-family="Helvetica,sans-Serif" font-size="10.00">/GitHub/superimpose</text>
<text text-anchor="start" x="117.5" y="-130.5" font-family="Helvetica,sans-Serif" font-size="10.00">&#45;mesh&#45;lib/src/SuperimposeMesh</text>
<text text-anchor="middle" x="194.5" y="-119.5" font-family="Helvetica,sans-Serif" font-size="10.00">/include/SuperimposeMesh/Mesh.h</text>
</g>
<!-- Node1 -->
<g id="node2" class="node"><title>Node1</title>
<g id="a_node2"><a xlink:href="Shader_8h.html" target="_top" xlink:title="Shader.h">
<polygon fill="white" stroke="black" points="23.5,-56.5 23.5,-75.5 79.5,-75.5 79.5,-56.5 23.5,-56.5"/>
<text text-anchor="middle" x="51.5" y="-63.5" font-family="Helvetica,sans-Serif" font-size="10.00">Shader.h</text>
</a>
</g>
</g>
<!-- Node0&#45;&gt;Node1 -->
<g id="edge1" class="edge"><title>Node0&#45;&gt;Node1</title>
<path fill="none" stroke="midnightblue" d="M143.681,-112.446C121.497,-101.509 96.4075,-89.1397 78.0106,-80.0699"/>
<polygon fill="midnightblue" stroke="midnightblue" points="79.3128,-76.8097 68.7958,-75.527 76.2174,-83.0881 79.3128,-76.8097"/>
</g>
<!-- Node3 -->
<g id="node4" class="node"><title>Node3</title>
<polygon fill="white" stroke="#bfbfbf" points="77.5,-0.5 77.5,-19.5 137.5,-19.5 137.5,-0.5 77.5,-0.5"/>
<text text-anchor="middle" x="107.5" y="-7.5" font-family="Helvetica,sans-Serif" font-size="10.00">GL/glew.h</text>
</g>
<!-- Node0&#45;&gt;Node3 -->
<g id="edge5" class="edge"><title>Node0&#45;&gt;Node3</title>
<path fill="none" stroke="midnightblue" d="M159.645,-112.444C147.671,-102.314 135.124,-89.7563 126.5,-76 117.621,-61.8362 112.744,-43.3542 110.162,-29.7202"/>
<polygon fill="midnightblue" stroke="midnightblue" points="113.575,-28.907 108.496,-19.6091 106.668,-30.0452 113.575,-28.907"/>
</g>
<!-- Node4 -->
<g id="node5" class="node"><title>Node4</title>
<polygon fill="white" stroke="#bfbfbf" points="135.5,-56.5 135.5,-75.5 177.5,-75.5 177.5,-56.5 135.5,-56.5"/>
<text text-anchor="middle" x="156.5" y="-63.5" font-family="Helvetica,sans-Serif" font-size="10.00">vector</text>
</g>
<!-- Node0&#45;&gt;Node4 -->
<g id="edge4" class="edge"><title>Node0&#45;&gt;Node4</title>
<path fill="none" stroke="midnightblue" d="M180.996,-112.446C176.028,-103.229 170.512,-92.9951 165.973,-84.5757"/>
<polygon fill="midnightblue" stroke="midnightblue" points="169.013,-82.8375 161.187,-75.6955 162.851,-86.1589 169.013,-82.8375"/>
</g>
<!-- Node5 -->
<g id="node6" class="node"><title>Node5</title>
<polygon fill="white" stroke="#bfbfbf" points="195.5,-56.5 195.5,-75.5 269.5,-75.5 269.5,-56.5 195.5,-56.5"/>
<text text-anchor="middle" x="232.5" y="-63.5" font-family="Helvetica,sans-Serif" font-size="10.00">glm/vec2.hpp</text>
</g>
<!-- Node0&#45;&gt;Node5 -->
<g id="edge6" class="edge"><title>Node0&#45;&gt;Node5</title>
<path fill="none" stroke="midnightblue" d="M208.004,-112.446C212.972,-103.229 218.488,-92.9951 223.027,-84.5757"/>
<polygon fill="midnightblue" stroke="midnightblue" points="226.149,-86.1589 227.813,-75.6955 219.987,-82.8375 226.149,-86.1589"/>
</g>
<!-- Node6 -->
<g id="node7" class="node"><title>Node6</title>
<polygon fill="white" stroke="#bfbfbf" points="287.5,-56.5 287.5,-75.5 361.5,-75.5 361.5,-56.5 287.5,-56.5"/>
<text text-anchor="middle" x="324.5" y="-63.5" font-family="Helvetica,sans-Serif" font-size="10.00">glm/vec3.hpp</text>
</g>
<!-- Node0&#45;&gt;Node6 -->
<g id="edge7" class="edge"><title>Node0&#45;&gt;Node6</title>
<path fill="none" stroke="midnightblue" d="M240.699,-112.446C260.587,-101.66 283.045,-89.4814 299.702,-80.448"/>
<polygon fill="midnightblue" stroke="midnightblue" points="301.654,-83.3709 308.777,-75.527 298.317,-77.2175 301.654,-83.3709"/>
</g>
<!-- Node7 -->
<g id="node8" class="node"><title>Node7</title>
<polygon fill="white" stroke="#bfbfbf" points="379.5,-56.5 379.5,-75.5 465.5,-75.5 465.5,-56.5 379.5,-56.5"/>
<text text-anchor="middle" x="422.5" y="-63.5" font-family="Helvetica,sans-Serif" font-size="10.00">assimp/scene.h</text>
</g>
<!-- Node0&#45;&gt;Node7 -->
<g id="edge8" class="edge"><title>Node0&#45;&gt;Node7</title>
<path fill="none" stroke="midnightblue" d="M275.526,-112.446C312.852,-100.904 355.338,-87.7673 384.997,-78.5963"/>
<polygon fill="midnightblue" stroke="midnightblue" points="386.404,-81.8249 394.923,-75.527 384.336,-75.1374 386.404,-81.8249"/>
</g>
<!-- Node2 -->
<g id="node3" class="node"><title>Node2</title>
<polygon fill="white" stroke="#bfbfbf" points="0,-0.5 0,-19.5 59,-19.5 59,-0.5 0,-0.5"/>
<text text-anchor="middle" x="29.5" y="-7.5" font-family="Helvetica,sans-Serif" font-size="10.00">exception</text>
</g>
<!-- Node1&#45;&gt;Node2 -->
<g id="edge2" class="edge"><title>Node1&#45;&gt;Node2</title>
<path fill="none" stroke="midnightblue" d="M47.8671,-56.083C44.8878,-48.77 40.5739,-38.1814 36.8755,-29.1034"/>
<polygon fill="midnightblue" stroke="midnightblue" points="40.0796,-27.6914 33.0653,-19.7511 33.597,-30.3326 40.0796,-27.6914"/>
</g>
<!-- Node1&#45;&gt;Node3 -->
<g id="edge3" class="edge"><title>Node1&#45;&gt;Node3</title>
<path fill="none" stroke="midnightblue" d="M60.4974,-56.324C68.6944,-48.4196 81.0055,-36.5482 90.972,-26.9377"/>
<polygon fill="midnightblue" stroke="midnightblue" points="93.5699,-29.2947 98.3389,-19.8339 88.711,-24.2558 93.5699,-29.2947"/>
</g>
</g>
</svg>
