<?xml version="1.0" encoding="UTF-8" standalone="no"?>
<!DOCTYPE svg PUBLIC "-//W3C//DTD SVG 1.1//EN"
 "http://www.w3.org/Graphics/SVG/1.1/DTD/svg11.dtd">
<!-- Generated by graphviz version 2.38.0 (20140413.2041)
 -->
<!-- Title: C:/Users/cfantacci/GitHub/superimpose&#45;mesh&#45;lib/src/SuperimposeMesh/src/Model.cpp Pages: 1 -->
<svg width="783pt" height="285pt"
 viewBox="0.00 0.00 782.50 285.00" xmlns="http://www.w3.org/2000/svg" xmlns:xlink="http://www.w3.org/1999/xlink">
<g id="graph0" class="graph" transform="scale(1 1) rotate(0) translate(4 281)">
<title>C:/Users/cfantacci/GitHub/superimpose&#45;mesh&#45;lib/src/SuperimposeMesh/src/Model.cpp</title>
<polygon fill="white" stroke="none" points="-4,4 -4,-281 778.5,-281 778.5,4 -4,4"/>
<!-- Node0 -->
<g id="node1" class="node"><title>Node0</title>
<polygon fill="#bfbfbf" stroke="black" points="424,-224.5 424,-276.5 581,-276.5 581,-224.5 424,-224.5"/>
<text text-anchor="start" x="432" y="-264.5" font-family="Helvetica,sans-Serif" font-size="10.00">C:/Users/cfantacci</text>
<text text-anchor="start" x="432" y="-253.5" font-family="Helvetica,sans-Serif" font-size="10.00">/GitHub/superimpose</text>
<text text-anchor="start" x="432" y="-242.5" font-family="Helvetica,sans-Serif" font-size="10.00">&#45;mesh&#45;lib/src/SuperimposeMesh</text>
<text text-anchor="middle" x="502.5" y="-231.5" font-family="Helvetica,sans-Serif" font-size="10.00">/src/Model.cpp</text>
</g>
<!-- Node1 -->
<g id="node2" class="node"><title>Node1</title>
<g id="a_node2"><a xlink:href="Model_8h.html" target="_top" xlink:title="SuperimposeMesh/Model.h">
<polygon fill="white" stroke="black" points="224,-168.5 224,-187.5 359,-187.5 359,-168.5 224,-168.5"/>
<text text-anchor="middle" x="291.5" y="-175.5" font-family="Helvetica,sans-Serif" font-size="10.00">SuperimposeMesh/Model.h</text>
</a>
</g>
</g>
<!-- Node0&#45;&gt;Node1 -->
<g id="edge1" class="edge"><title>Node0&#45;&gt;Node1</title>
<path fill="none" stroke="midnightblue" d="M427.515,-224.446C393.123,-212.955 353.998,-199.882 326.567,-190.717"/>
<polygon fill="midnightblue" stroke="midnightblue" points="327.614,-187.376 317.02,-187.527 325.396,-194.016 327.614,-187.376"/>
</g>
<!-- Node11 -->
<g id="node12" class="node"><title>Node11</title>
<polygon fill="white" stroke="#bfbfbf" points="377.5,-168.5 377.5,-187.5 431.5,-187.5 431.5,-168.5 377.5,-168.5"/>
<text text-anchor="middle" x="404.5" y="-175.5" font-family="Helvetica,sans-Serif" font-size="10.00">iostream</text>
</g>
<!-- Node0&#45;&gt;Node11 -->
<g id="edge16" class="edge"><title>Node0&#45;&gt;Node11</title>
<path fill="none" stroke="midnightblue" d="M467.673,-224.446C453.329,-214.127 437.213,-202.533 424.848,-193.638"/>
<polygon fill="midnightblue" stroke="midnightblue" points="426.749,-190.694 416.587,-187.695 422.661,-196.376 426.749,-190.694"/>
</g>
<!-- Node12 -->
<g id="node13" class="node"><title>Node12</title>
<polygon fill="white" stroke="#bfbfbf" points="450,-168.5 450,-187.5 555,-187.5 555,-168.5 450,-168.5"/>
<text text-anchor="middle" x="502.5" y="-175.5" font-family="Helvetica,sans-Serif" font-size="10.00">assimp/Importer.hpp</text>
</g>
<!-- Node0&#45;&gt;Node12 -->
<g id="edge17" class="edge"><title>Node0&#45;&gt;Node12</title>
<path fill="none" stroke="midnightblue" d="M502.5,-224.446C502.5,-215.73 502.5,-206.104 502.5,-197.964"/>
<polygon fill="midnightblue" stroke="midnightblue" points="506,-197.695 502.5,-187.695 499,-197.696 506,-197.695"/>
</g>
<!-- Node13 -->
<g id="node14" class="node"><title>Node13</title>
<polygon fill="white" stroke="#bfbfbf" points="573,-168.5 573,-187.5 686,-187.5 686,-168.5 573,-168.5"/>
<text text-anchor="middle" x="629.5" y="-175.5" font-family="Helvetica,sans-Serif" font-size="10.00">assimp/postprocess.h</text>
</g>
<!-- Node0&#45;&gt;Node13 -->
<g id="edge18" class="edge"><title>Node0&#45;&gt;Node13</title>
<path fill="none" stroke="midnightblue" d="M547.633,-224.446C567.062,-213.66 589.002,-201.481 605.275,-192.448"/>
<polygon fill="midnightblue" stroke="midnightblue" points="607.095,-195.441 614.139,-187.527 603.697,-189.32 607.095,-195.441"/>
</g>
<!-- Node14 -->
<g id="node15" class="node"><title>Node14</title>
<polygon fill="white" stroke="#bfbfbf" points="704.5,-168.5 704.5,-187.5 774.5,-187.5 774.5,-168.5 704.5,-168.5"/>
<text text-anchor="middle" x="739.5" y="-175.5" font-family="Helvetica,sans-Serif" font-size="10.00">glm/glm.hpp</text>
</g>
<!-- Node0&#45;&gt;Node14 -->
<g id="edge19" class="edge"><title>Node0&#45;&gt;Node14</title>
<path fill="none" stroke="midnightblue" d="M581.088,-226.122C621.333,-214.151 668.531,-200.111 700.875,-190.49"/>
<polygon fill="midnightblue" stroke="midnightblue" points="702.24,-193.735 710.827,-187.529 700.244,-187.026 702.24,-193.735"/>
</g>
<!-- Node2 -->
<g id="node3" class="node"><title>Node2</title>
<g id="a_node3"><a xlink:href="Shader_8h.html" target="_top" xlink:title="Shader.h">
<polygon fill="white" stroke="black" points="1.5,-56.5 1.5,-75.5 57.5,-75.5 57.5,-56.5 1.5,-56.5"/>
<text text-anchor="middle" x="29.5" y="-63.5" font-family="Helvetica,sans-Serif" font-size="10.00">Shader.h</text>
</a>
</g>
</g>
<!-- Node1&#45;&gt;Node2 -->
<g id="edge2" class="edge"><title>Node1&#45;&gt;Node2</title>
<path fill="none" stroke="midnightblue" d="M265.586,-168.374C240.314,-159.78 200.91,-145.896 167.5,-132 127.691,-115.442 82.7025,-93.656 55.2231,-79.9879"/>
<polygon fill="midnightblue" stroke="midnightblue" points="56.7805,-76.8535 46.2707,-75.5138 53.6512,-83.1151 56.7805,-76.8535"/>
</g>
<!-- Node4 -->
<g id="node5" class="node"><title>Node4</title>
<polygon fill="white" stroke="#bfbfbf" points="207.5,-0.5 207.5,-19.5 267.5,-19.5 267.5,-0.5 207.5,-0.5"/>
<text text-anchor="middle" x="237.5" y="-7.5" font-family="Helvetica,sans-Serif" font-size="10.00">GL/glew.h</text>
</g>
<!-- Node1&#45;&gt;Node4 -->
<g id="edge14" class="edge"><title>Node1&#45;&gt;Node4</title>
<path fill="none" stroke="midnightblue" d="M322.782,-168.41C380.758,-150.99 495.271,-108.649 452.5,-56 430.927,-29.4443 333.969,-18.0074 277.902,-13.5417"/>
<polygon fill="midnightblue" stroke="midnightblue" points="277.838,-10.027 267.602,-12.763 277.31,-17.0071 277.838,-10.027"/>
</g>
<!-- Node5 -->
<g id="node6" class="node"><title>Node5</title>
<g id="a_node6"><a xlink:href="Mesh_8h.html" target="_top" xlink:title="Mesh.h">
<polygon fill="white" stroke="black" points="213,-112.5 213,-131.5 262,-131.5 262,-112.5 213,-112.5"/>
<text text-anchor="middle" x="237.5" y="-119.5" font-family="Helvetica,sans-Serif" font-size="10.00">Mesh.h</text>
</a>
</g>
</g>
<!-- Node1&#45;&gt;Node5 -->
<g id="edge5" class="edge"><title>Node1&#45;&gt;Node5</title>
<path fill="none" stroke="midnightblue" d="M282.583,-168.083C274.72,-160.22 263.069,-148.569 253.581,-139.081"/>
<polygon fill="midnightblue" stroke="midnightblue" points="255.797,-136.347 246.251,-131.751 250.847,-141.297 255.797,-136.347"/>
</g>
<!-- Node6 -->
<g id="node7" class="node"><title>Node6</title>
<polygon fill="white" stroke="#bfbfbf" points="75.5,-56.5 75.5,-75.5 117.5,-75.5 117.5,-56.5 75.5,-56.5"/>
<text text-anchor="middle" x="96.5" y="-63.5" font-family="Helvetica,sans-Serif" font-size="10.00">vector</text>
</g>
<!-- Node1&#45;&gt;Node6 -->
<g id="edge12" class="edge"><title>Node1&#45;&gt;Node6</title>
<path fill="none" stroke="midnightblue" d="M273.769,-168.409C255.853,-159.618 227.471,-145.386 203.5,-132 173.58,-115.291 139.927,-94.5082 118.489,-81.0074"/>
<polygon fill="midnightblue" stroke="midnightblue" points="120.149,-77.9157 109.826,-75.529 116.407,-83.832 120.149,-77.9157"/>
</g>
<!-- Node9 -->
<g id="node10" class="node"><title>Node9</title>
<polygon fill="white" stroke="#bfbfbf" points="357.5,-56.5 357.5,-75.5 443.5,-75.5 443.5,-56.5 357.5,-56.5"/>
<text text-anchor="middle" x="400.5" y="-63.5" font-family="Helvetica,sans-Serif" font-size="10.00">assimp/scene.h</text>
</g>
<!-- Node1&#45;&gt;Node9 -->
<g id="edge15" class="edge"><title>Node1&#45;&gt;Node9</title>
<path fill="none" stroke="midnightblue" d="M300.053,-168.368C318.36,-149.894 361.565,-106.293 384.9,-82.7436"/>
<polygon fill="midnightblue" stroke="midnightblue" points="387.434,-85.1583 391.987,-75.5914 382.462,-80.2312 387.434,-85.1583"/>
</g>
<!-- Node10 -->
<g id="node11" class="node"><title>Node10</title>
<polygon fill="white" stroke="#bfbfbf" points="500,-112.5 500,-131.5 541,-131.5 541,-112.5 500,-112.5"/>
<text text-anchor="middle" x="520.5" y="-119.5" font-family="Helvetica,sans-Serif" font-size="10.00">string</text>
</g>
<!-- Node1&#45;&gt;Node10 -->
<g id="edge13" class="edge"><title>Node1&#45;&gt;Node10</title>
<path fill="none" stroke="midnightblue" d="M329.48,-168.471C368.637,-159.611 431.428,-145.221 485.5,-132 486.947,-131.646 488.428,-131.28 489.922,-130.908"/>
<polygon fill="midnightblue" stroke="midnightblue" points="490.956,-134.257 499.792,-128.412 489.239,-127.471 490.956,-134.257"/>
</g>
<!-- Node3 -->
<g id="node4" class="node"><title>Node3</title>
<polygon fill="white" stroke="#bfbfbf" points="0,-0.5 0,-19.5 59,-19.5 59,-0.5 0,-0.5"/>
<text text-anchor="middle" x="29.5" y="-7.5" font-family="Helvetica,sans-Serif" font-size="10.00">exception</text>
</g>
<!-- Node2&#45;&gt;Node3 -->
<g id="edge3" class="edge"><title>Node2&#45;&gt;Node3</title>
<path fill="none" stroke="midnightblue" d="M29.5,-56.083C29.5,-49.0059 29.5,-38.8611 29.5,-29.9865"/>
<polygon fill="midnightblue" stroke="midnightblue" points="33.0001,-29.751 29.5,-19.7511 26.0001,-29.7511 33.0001,-29.751"/>
</g>
<!-- Node2&#45;&gt;Node4 -->
<g id="edge4" class="edge"><title>Node2&#45;&gt;Node4</title>
<path fill="none" stroke="midnightblue" d="M57.5518,-57.7173C93.6115,-48.3557 156.456,-32.0404 197.515,-21.3808"/>
<polygon fill="midnightblue" stroke="midnightblue" points="198.4,-24.7671 207.199,-18.8665 196.641,-17.9917 198.4,-24.7671"/>
</g>
<!-- Node5&#45;&gt;Node2 -->
<g id="edge6" class="edge"><title>Node5&#45;&gt;Node2</title>
<path fill="none" stroke="midnightblue" d="M212.823,-114.593C176.934,-105.276 110.018,-87.9038 67.7225,-76.9232"/>
<polygon fill="midnightblue" stroke="midnightblue" points="68.3523,-73.4707 57.7937,-74.3455 66.5933,-80.2461 68.3523,-73.4707"/>
</g>
<!-- Node5&#45;&gt;Node4 -->
<g id="edge8" class="edge"><title>Node5&#45;&gt;Node4</title>
<path fill="none" stroke="midnightblue" d="M237.5,-112.368C237.5,-94.617 237.5,-53.6664 237.5,-29.5974"/>
<polygon fill="midnightblue" stroke="midnightblue" points="241,-29.5914 237.5,-19.5914 234,-29.5915 241,-29.5914"/>
</g>
<!-- Node5&#45;&gt;Node6 -->
<g id="edge7" class="edge"><title>Node5&#45;&gt;Node6</title>
<path fill="none" stroke="midnightblue" d="M215.158,-112.444C191.472,-103.372 153.892,-88.98 127.381,-78.8268"/>
<polygon fill="midnightblue" stroke="midnightblue" points="128.405,-75.471 117.814,-75.1629 125.901,-82.008 128.405,-75.471"/>
</g>
<!-- Node7 -->
<g id="node8" class="node"><title>Node7</title>
<polygon fill="white" stroke="#bfbfbf" points="265.5,-56.5 265.5,-75.5 339.5,-75.5 339.5,-56.5 265.5,-56.5"/>
<text text-anchor="middle" x="302.5" y="-63.5" font-family="Helvetica,sans-Serif" font-size="10.00">glm/vec2.hpp</text>
</g>
<!-- Node5&#45;&gt;Node7 -->
<g id="edge9" class="edge"><title>Node5&#45;&gt;Node7</title>
<path fill="none" stroke="midnightblue" d="M247.943,-112.324C257.646,-104.263 272.315,-92.0765 284,-82.3695"/>
<polygon fill="midnightblue" stroke="midnightblue" points="286.411,-84.9163 291.867,-75.8339 281.938,-79.532 286.411,-84.9163"/>
</g>
<!-- Node8 -->
<g id="node9" class="node"><title>Node8</title>
<polygon fill="white" stroke="#bfbfbf" points="135.5,-56.5 135.5,-75.5 209.5,-75.5 209.5,-56.5 135.5,-56.5"/>
<text text-anchor="middle" x="172.5" y="-63.5" font-family="Helvetica,sans-Serif" font-size="10.00">glm/vec3.hpp</text>
</g>
<!-- Node5&#45;&gt;Node8 -->
<g id="edge10" class="edge"><title>Node5&#45;&gt;Node8</title>
<path fill="none" stroke="midnightblue" d="M227.057,-112.324C217.354,-104.263 202.685,-92.0765 191,-82.3695"/>
<polygon fill="midnightblue" stroke="midnightblue" points="193.062,-79.532 183.133,-75.8339 188.589,-84.9163 193.062,-79.532"/>
</g>
<!-- Node5&#45;&gt;Node9 -->
<g id="edge11" class="edge"><title>Node5&#45;&gt;Node9</title>
<path fill="none" stroke="midnightblue" d="M262.256,-112.799C289.66,-103.72 334.055,-89.0123 365.122,-78.7203"/>
<polygon fill="midnightblue" stroke="midnightblue" points="366.31,-82.014 374.702,-75.5467 364.108,-75.3691 366.31,-82.014"/>
</g>
</g>
</svg>
