<?xml version="1.0" encoding="UTF-8" standalone="no"?>
<!DOCTYPE svg PUBLIC "-//W3C//DTD SVG 1.1//EN"
 "http://www.w3.org/Graphics/SVG/1.1/DTD/svg11.dtd">
<!-- Generated by graphviz version 2.38.0 (20140413.2041)
 -->
<!-- Title: C:/Users/cfantacci/GitHub/superimpose&#45;mesh&#45;lib/src/SuperimposeMesh/include/SuperimposeMesh/Model.h Pages: 1 -->
<!--zoomable 229 -->
<svg id="main" version="1.1" xmlns="http://www.w3.org/2000/svg" xmlns:xlink="http://www.w3.org/1999/xlink" xml:space="preserve" onload="init(evt)">
<style type="text/css"><![CDATA[
.edge:hover path { stroke: red; }
.edge:hover polygon { stroke: red; fill: red; }
]]></style>
<script type="text/javascript"><![CDATA[
var edges = document.getElementsByTagName('g');
if (edges && edges.length) {
  for (var i=0;i<edges.length;i++) {
    if (edges[i].id.substr(0,4)=='edge') {
      edges[i].setAttribute('class','edge');
    }
  }
}
]]></script>
        <defs>
                <circle id="rim" cx="0" cy="0" r="7"/>
                <circle id="rim2" cx="0" cy="0" r="3.5"/>
                <g id="zoomPlus">
                        <use xlink:href="#rim" fill="#404040">
                                <set attributeName="fill" to="#808080" begin="zoomplus.mouseover" end="zoomplus.mouseout"/>
                        </use>
                        <path d="M-4,0h8M0,-4v8" fill="none" stroke="white" stroke-width="1.5" pointer-events="none"/>
                </g>
                <g id="zoomMin">
                        <use xlink:href="#rim" fill="#404040">
                                <set attributeName="fill" to="#808080" begin="zoomminus.mouseover" end="zoomminus.mouseout"/>
                        </use>
                        <path d="M-4,0h8" fill="none" stroke="white" stroke-width="1.5" pointer-events="none"/>
                </g>
                <g id="dirArrow">
                        <path fill="none" stroke="white" stroke-width="1.5" d="M0,-3.0v7 M-2.5,-0.5L0,-3.0L2.5,-0.5"/>
                </g>
               <g id="resetDef">
                       <use xlink:href="#rim2" fill="#404040">
                               <set attributeName="fill" to="#808080" begin="reset.mouseover" end="reset.mouseout"/>
                       </use>
               </g>
        </defs>

<script type="text/javascript">
var viewWidth = 549;
var viewHeight = 229;
var sectionId = 'dynsection-0';
</script>
<script xlink:href="svgpan.js"/>
<svg id="graph" class="graph">
<g id="viewport">
<title>C:/Users/cfantacci/GitHub/superimpose&#45;mesh&#45;lib/src/SuperimposeMesh/include/SuperimposeMesh/Model.h</title>
<polygon fill="white" stroke="none" points="-4,4 -4,-225 545,-225 545,4 -4,4"/>
<!-- Node0 -->
<g id="node1" class="node"><title>Node0</title>
<polygon fill="#bfbfbf" stroke="black" points="205.5,-168.5 205.5,-220.5 377.5,-220.5 377.5,-168.5 205.5,-168.5"/>
<text text-anchor="start" x="213.5" y="-208.5" font-family="Helvetica,sans-Serif" font-size="10.00">C:/Users/cfantacci</text>
<text text-anchor="start" x="213.5" y="-197.5" font-family="Helvetica,sans-Serif" font-size="10.00">/GitHub/superimpose</text>
<text text-anchor="start" x="213.5" y="-186.5" font-family="Helvetica,sans-Serif" font-size="10.00">&#45;mesh&#45;lib/src/SuperimposeMesh</text>
<text text-anchor="middle" x="291.5" y="-175.5" font-family="Helvetica,sans-Serif" font-size="10.00">/include/SuperimposeMesh/Model.h</text>
</g>
<!-- Node1 -->
<g id="node2" class="node"><title>Node1</title>
<g id="a_node2"><a xlink:href="Shader_8h.html" target="_top" xlink:title="Shader.h">
<polygon fill="white" stroke="black" points="1.5,-56.5 1.5,-75.5 57.5,-75.5 57.5,-56.5 1.5,-56.5"/>
<text text-anchor="middle" x="29.5" y="-63.5" font-family="Helvetica,sans-Serif" font-size="10.00">Shader.h</text>
</a>
</g>
</g>
<!-- Node0&#45;&gt;Node1 -->
<g id="edge1" class="edge"><title>Node0&#45;&gt;Node1</title>
<path fill="none" stroke="midnightblue" d="M239.424,-168.356C184.322,-141.752 99.5173,-100.806 56.5091,-80.0407"/>
<polygon fill="midnightblue" stroke="midnightblue" points="57.7805,-76.768 47.2534,-75.5718 54.7369,-83.0717 57.7805,-76.768"/>
</g>
<!-- Node3 -->
<g id="node4" class="node"><title>Node3</title>
<polygon fill="white" stroke="#bfbfbf" points="207.5,-0.5 207.5,-19.5 267.5,-19.5 267.5,-0.5 207.5,-0.5"/>
<text text-anchor="middle" x="237.5" y="-7.5" font-family="Helvetica,sans-Serif" font-size="10.00">GL/glew.h</text>
</g>
<!-- Node0&#45;&gt;Node3 -->
<g id="edge13" class="edge"><title>Node0&#45;&gt;Node3</title>
<path fill="none" stroke="midnightblue" d="M360.037,-168.416C418.987,-143.021 489.177,-101.149 452.5,-56 430.927,-29.4443 333.969,-18.0074 277.902,-13.5417"/>
<polygon fill="midnightblue" stroke="midnightblue" points="277.838,-10.027 267.602,-12.763 277.31,-17.0071 277.838,-10.027"/>
</g>
<!-- Node4 -->
<g id="node5" class="node"><title>Node4</title>
<g id="a_node5"><a xlink:href="Mesh_8h.html" target="_top" xlink:title="Mesh.h">
<polygon fill="white" stroke="black" points="213,-112.5 213,-131.5 262,-131.5 262,-112.5 213,-112.5"/>
<text text-anchor="middle" x="237.5" y="-119.5" font-family="Helvetica,sans-Serif" font-size="10.00">Mesh.h</text>
</a>
</g>
</g>
<!-- Node0&#45;&gt;Node4 -->
<g id="edge4" class="edge"><title>Node0&#45;&gt;Node4</title>
<path fill="none" stroke="midnightblue" d="M272.31,-168.446C265.02,-158.929 256.899,-148.327 250.336,-139.758"/>
<polygon fill="midnightblue" stroke="midnightblue" points="253.02,-137.506 244.16,-131.695 247.463,-141.763 253.02,-137.506"/>
</g>
<!-- Node5 -->
<g id="node6" class="node"><title>Node5</title>
<polygon fill="white" stroke="#bfbfbf" points="75.5,-56.5 75.5,-75.5 117.5,-75.5 117.5,-56.5 75.5,-56.5"/>
<text text-anchor="middle" x="96.5" y="-63.5" font-family="Helvetica,sans-Serif" font-size="10.00">vector</text>
</g>
<!-- Node0&#45;&gt;Node5 -->
<g id="edge11" class="edge"><title>Node0&#45;&gt;Node5</title>
<path fill="none" stroke="midnightblue" d="M252.508,-168.205C212.246,-142.087 150.864,-102.267 118.4,-81.2067"/>
<polygon fill="midnightblue" stroke="midnightblue" points="119.974,-78.0558 109.679,-75.5497 116.164,-83.9284 119.974,-78.0558"/>
</g>
<!-- Node8 -->
<g id="node9" class="node"><title>Node8</title>
<polygon fill="white" stroke="#bfbfbf" points="357.5,-56.5 357.5,-75.5 443.5,-75.5 443.5,-56.5 357.5,-56.5"/>
<text text-anchor="middle" x="400.5" y="-63.5" font-family="Helvetica,sans-Serif" font-size="10.00">assimp/scene.h</text>
</g>
<!-- Node0&#45;&gt;Node8 -->
<g id="edge14" class="edge"><title>Node0&#45;&gt;Node8</title>
<path fill="none" stroke="midnightblue" d="M313.296,-168.205C335.125,-142.871 368.061,-104.647 386.58,-83.1547"/>
<polygon fill="midnightblue" stroke="midnightblue" points="389.257,-85.4101 393.133,-75.5497 383.954,-80.8407 389.257,-85.4101"/>
</g>
<!-- Node9 -->
<g id="node10" class="node"><title>Node9</title>
<polygon fill="white" stroke="#bfbfbf" points="500,-112.5 500,-131.5 541,-131.5 541,-112.5 500,-112.5"/>
<text text-anchor="middle" x="520.5" y="-119.5" font-family="Helvetica,sans-Serif" font-size="10.00">string</text>
</g>
<!-- Node0&#45;&gt;Node9 -->
<g id="edge12" class="edge"><title>Node0&#45;&gt;Node9</title>
<path fill="none" stroke="midnightblue" d="M372.882,-168.446C413.361,-155.984 459.883,-141.662 489.705,-132.481"/>
<polygon fill="midnightblue" stroke="midnightblue" points="490.992,-135.746 499.52,-129.459 488.933,-129.056 490.992,-135.746"/>
</g>
<!-- Node2 -->
<g id="node3" class="node"><title>Node2</title>
<polygon fill="white" stroke="#bfbfbf" points="0,-0.5 0,-19.5 59,-19.5 59,-0.5 0,-0.5"/>
<text text-anchor="middle" x="29.5" y="-7.5" font-family="Helvetica,sans-Serif" font-size="10.00">exception</text>
</g>
<!-- Node1&#45;&gt;Node2 -->
<g id="edge2" class="edge"><title>Node1&#45;&gt;Node2</title>
<path fill="none" stroke="midnightblue" d="M29.5,-56.083C29.5,-49.0059 29.5,-38.8611 29.5,-29.9865"/>
<polygon fill="midnightblue" stroke="midnightblue" points="33.0001,-29.751 29.5,-19.7511 26.0001,-29.7511 33.0001,-29.751"/>
</g>
<!-- Node1&#45;&gt;Node3 -->
<g id="edge3" class="edge"><title>Node1&#45;&gt;Node3</title>
<path fill="none" stroke="midnightblue" d="M57.5518,-57.7173C93.6115,-48.3557 156.456,-32.0404 197.515,-21.3808"/>
<polygon fill="midnightblue" stroke="midnightblue" points="198.4,-24.7671 207.199,-18.8665 196.641,-17.9917 198.4,-24.7671"/>
</g>
<!-- Node4&#45;&gt;Node1 -->
<g id="edge5" class="edge"><title>Node4&#45;&gt;Node1</title>
<path fill="none" stroke="midnightblue" d="M212.823,-114.593C176.934,-105.276 110.018,-87.9038 67.7225,-76.9232"/>
<polygon fill="midnightblue" stroke="midnightblue" points="68.3523,-73.4707 57.7937,-74.3455 66.5933,-80.2461 68.3523,-73.4707"/>
</g>
<!-- Node4&#45;&gt;Node3 -->
<g id="edge7" class="edge"><title>Node4&#45;&gt;Node3</title>
<path fill="none" stroke="midnightblue" d="M237.5,-112.368C237.5,-94.617 237.5,-53.6664 237.5,-29.5974"/>
<polygon fill="midnightblue" stroke="midnightblue" points="241,-29.5914 237.5,-19.5914 234,-29.5915 241,-29.5914"/>
</g>
<!-- Node4&#45;&gt;Node5 -->
<g id="edge6" class="edge"><title>Node4&#45;&gt;Node5</title>
<path fill="none" stroke="midnightblue" d="M215.158,-112.444C191.472,-103.372 153.892,-88.98 127.381,-78.8268"/>
<polygon fill="midnightblue" stroke="midnightblue" points="128.405,-75.471 117.814,-75.1629 125.901,-82.008 128.405,-75.471"/>
</g>
<!-- Node6 -->
<g id="node7" class="node"><title>Node6</title>
<polygon fill="white" stroke="#bfbfbf" points="265.5,-56.5 265.5,-75.5 339.5,-75.5 339.5,-56.5 265.5,-56.5"/>
<text text-anchor="middle" x="302.5" y="-63.5" font-family="Helvetica,sans-Serif" font-size="10.00">glm/vec2.hpp</text>
</g>
<!-- Node4&#45;&gt;Node6 -->
<g id="edge8" class="edge"><title>Node4&#45;&gt;Node6</title>
<path fill="none" stroke="midnightblue" d="M247.943,-112.324C257.646,-104.263 272.315,-92.0765 284,-82.3695"/>
<polygon fill="midnightblue" stroke="midnightblue" points="286.411,-84.9163 291.867,-75.8339 281.938,-79.532 286.411,-84.9163"/>
</g>
<!-- Node7 -->
<g id="node8" class="node"><title>Node7</title>
<polygon fill="white" stroke="#bfbfbf" points="135.5,-56.5 135.5,-75.5 209.5,-75.5 209.5,-56.5 135.5,-56.5"/>
<text text-anchor="middle" x="172.5" y="-63.5" font-family="Helvetica,sans-Serif" font-size="10.00">glm/vec3.hpp</text>
</g>
<!-- Node4&#45;&gt;Node7 -->
<g id="edge9" class="edge"><title>Node4&#45;&gt;Node7</title>
<path fill="none" stroke="midnightblue" d="M227.057,-112.324C217.354,-104.263 202.685,-92.0765 191,-82.3695"/>
<polygon fill="midnightblue" stroke="midnightblue" points="193.062,-79.532 183.133,-75.8339 188.589,-84.9163 193.062,-79.532"/>
</g>
<!-- Node4&#45;&gt;Node8 -->
<g id="edge10" class="edge"><title>Node4&#45;&gt;Node8</title>
<path fill="none" stroke="midnightblue" d="M262.256,-112.799C289.66,-103.72 334.055,-89.0123 365.122,-78.7203"/>
<polygon fill="midnightblue" stroke="midnightblue" points="366.31,-82.014 374.702,-75.5467 364.108,-75.3691 366.31,-82.014"/>
</g>
</g>
</svg>
        <g id="navigator" transform="translate(0 0)" fill="#404254">
                <rect fill="#f2f5e9" fill-opacity="0.5" stroke="#606060" stroke-width=".5" x="0" y="0" width="60" height="60"/>
                <use id="zoomplus" xlink:href="#zoomPlus" x="17" y="9" onmousedown="handleZoom(evt,'in')"/>
                <use id="zoomminus" xlink:href="#zoomMin" x="42" y="9" onmousedown="handleZoom(evt,'out')"/>
                <use id="reset" xlink:href="#resetDef" x="30" y="36" onmousedown="handleReset()"/>
                <g id="arrowUp" xlink:href="#dirArrow" transform="translate(30 24)" onmousedown="handlePan(0,-1)">
                  <use xlink:href="#rim" fill="#404040">
                        <set attributeName="fill" to="#808080" begin="arrowUp.mouseover" end="arrowUp.mouseout"/>
                  </use>
                  <path fill="none" stroke="white" stroke-width="1.5" d="M0,-3.0v7 M-2.5,-0.5L0,-3.0L2.5,-0.5"/>
                </g>
                <g id="arrowRight" xlink:href="#dirArrow" transform="rotate(90) translate(36 -43)" onmousedown="handlePan(1,0)">
                  <use xlink:href="#rim" fill="#404040">
                        <set attributeName="fill" to="#808080" begin="arrowRight.mouseover" end="arrowRight.mouseout"/>
                  </use>
                  <path fill="none" stroke="white" stroke-width="1.5" d="M0,-3.0v7 M-2.5,-0.5L0,-3.0L2.5,-0.5"/>
                </g>
                <g id="arrowDown" xlink:href="#dirArrow" transform="rotate(180) translate(-30 -48)" onmousedown="handlePan(0,1)">
                  <use xlink:href="#rim" fill="#404040">
                        <set attributeName="fill" to="#808080" begin="arrowDown.mouseover" end="arrowDown.mouseout"/>
                  </use>
                  <path fill="none" stroke="white" stroke-width="1.5" d="M0,-3.0v7 M-2.5,-0.5L0,-3.0L2.5,-0.5"/>
                </g>
                <g id="arrowLeft" xlink:href="#dirArrow" transform="rotate(270) translate(-36 17)" onmousedown="handlePan(-1,0)">
                  <use xlink:href="#rim" fill="#404040">
                        <set attributeName="fill" to="#808080" begin="arrowLeft.mouseover" end="arrowLeft.mouseout"/>
                  </use>
                  <path fill="none" stroke="white" stroke-width="1.5" d="M0,-3.0v7 M-2.5,-0.5L0,-3.0L2.5,-0.5"/>
                </g>
        </g>
        <svg viewBox="0 0 15 15" width="100%" height="30px" preserveAspectRatio="xMaxYMin meet">
         <g id="arrow_out" transform="scale(0.3 0.3)">
          <a xlink:href="Model_8h__incl_org.svg" target="_base">
           <rect id="button" ry="5" rx="5" y="6" x="6" height="38" width="38"
                fill="#f2f5e9" fill-opacity="0.5" stroke="#606060" stroke-width="1.0"/>
           <path id="arrow"
             d="M 11.500037,31.436501 C 11.940474,20.09759 22.043105,11.32322 32.158766,21.979434 L 37.068811,17.246167 C 37.068811,17.246167 37.088388,32 37.088388,32 L 22.160133,31.978069 C 22.160133,31.978069 26.997745,27.140456 26.997745,27.140456 C 18.528582,18.264221 13.291696,25.230495 11.500037,31.436501 z"
             style="fill:#404040;"/>
          </a>
         </g>
        </svg>
</svg>
