<?xml version="1.0" encoding="UTF-8" standalone="no"?>
<!DOCTYPE svg PUBLIC "-//W3C//DTD SVG 1.1//EN"
 "http://www.w3.org/Graphics/SVG/1.1/DTD/svg11.dtd">
<!-- Generated by graphviz version 2.38.0 (20140413.2041)
 -->
<!-- Title: C:/Users/cfantacci/GitHub/superimpose&#45;mesh&#45;lib/src/SuperimposeMesh/include/SuperimposeMesh/Shader.h Pages: 1 -->
<!--zoomable 417 -->
<svg id="main" version="1.1" xmlns="http://www.w3.org/2000/svg" xmlns:xlink="http://www.w3.org/1999/xlink" xml:space="preserve" onload="init(evt)">
<style type="text/css"><![CDATA[
.edge:hover path { stroke: red; }
.edge:hover polygon { stroke: red; fill: red; }
]]></style>
<script type="text/javascript"><![CDATA[
var edges = document.getElementsByTagName('g');
if (edges && edges.length) {
  for (var i=0;i<edges.length;i++) {
    if (edges[i].id.substr(0,4)=='edge') {
      edges[i].setAttribute('class','edge');
    }
  }
}
]]></script>
        <defs>
                <circle id="rim" cx="0" cy="0" r="7"/>
                <circle id="rim2" cx="0" cy="0" r="3.5"/>
                <g id="zoomPlus">
                        <use xlink:href="#rim" fill="#404040">
                                <set attributeName="fill" to="#808080" begin="zoomplus.mouseover" end="zoomplus.mouseout"/>
                        </use>
                        <path d="M-4,0h8M0,-4v8" fill="none" stroke="white" stroke-width="1.5" pointer-events="none"/>
                </g>
                <g id="zoomMin">
                        <use xlink:href="#rim" fill="#404040">
                                <set attributeName="fill" to="#808080" begin="zoomminus.mouseover" end="zoomminus.mouseout"/>
                        </use>
                        <path d="M-4,0h8" fill="none" stroke="white" stroke-width="1.5" pointer-events="none"/>
                </g>
                <g id="dirArrow">
                        <path fill="none" stroke="white" stroke-width="1.5" d="M0,-3.0v7 M-2.5,-0.5L0,-3.0L2.5,-0.5"/>
                </g>
               <g id="resetDef">
                       <use xlink:href="#rim2" fill="#404040">
                               <set attributeName="fill" to="#808080" begin="reset.mouseover" end="reset.mouseout"/>
                       </use>
               </g>
        </defs>

<script type="text/javascript">
var viewWidth = 570;
var viewHeight = 417;
var sectionId = 'dynsection-1';
</script>
<script xlink:href="svgpan.js"/>
<svg id="graph" class="graph">
<g id="viewport">
<title>C:/Users/cfantacci/GitHub/superimpose&#45;mesh&#45;lib/src/SuperimposeMesh/include/SuperimposeMesh/Shader.h</title>
<polygon fill="white" stroke="none" points="-4,4 -4,-413 565.5,-413 565.5,4 -4,4"/>
<!-- Node3 -->
<g id="node1" class="node"><title>Node3</title>
<polygon fill="#bfbfbf" stroke="black" points="231,-356.5 231,-408.5 407,-408.5 407,-356.5 231,-356.5"/>
<text text-anchor="start" x="239" y="-396.5" font-family="Helvetica,sans-Serif" font-size="10.00">C:/Users/cfantacci</text>
<text text-anchor="start" x="239" y="-385.5" font-family="Helvetica,sans-Serif" font-size="10.00">/GitHub/superimpose</text>
<text text-anchor="start" x="239" y="-374.5" font-family="Helvetica,sans-Serif" font-size="10.00">&#45;mesh&#45;lib/src/SuperimposeMesh</text>
<text text-anchor="middle" x="319" y="-363.5" font-family="Helvetica,sans-Serif" font-size="10.00">/include/SuperimposeMesh/Shader.h</text>
</g>
<!-- Node4 -->
<g id="node2" class="node"><title>Node4</title>
<g id="a_node2"><a xlink:href="Mesh_8h.html" target="_top" xlink:title="C:/Users/cfantacci\l/GitHub/superimpose\l&#45;mesh&#45;lib/src/SuperimposeMesh\l/include/SuperimposeMesh/Mesh.h">
<polygon fill="white" stroke="black" points="178,-267.5 178,-319.5 348,-319.5 348,-267.5 178,-267.5"/>
<text text-anchor="start" x="186" y="-307.5" font-family="Helvetica,sans-Serif" font-size="10.00">C:/Users/cfantacci</text>
<text text-anchor="start" x="186" y="-296.5" font-family="Helvetica,sans-Serif" font-size="10.00">/GitHub/superimpose</text>
<text text-anchor="start" x="186" y="-285.5" font-family="Helvetica,sans-Serif" font-size="10.00">&#45;mesh&#45;lib/src/SuperimposeMesh</text>
<text text-anchor="middle" x="263" y="-274.5" font-family="Helvetica,sans-Serif" font-size="10.00">/include/SuperimposeMesh/Mesh.h</text>
</a>
</g>
</g>
<!-- Node3&#45;&gt;Node4 -->
<g id="edge1" class="edge"><title>Node3&#45;&gt;Node4</title>
<path fill="none" stroke="midnightblue" d="M297.39,-347.927C291.329,-338.511 284.846,-328.439 279.161,-319.607"/>
<polygon fill="midnightblue" stroke="midnightblue" points="294.447,-349.822 302.802,-356.336 300.333,-346.033 294.447,-349.822"/>
</g>
<!-- Node5 -->
<g id="node3" class="node"><title>Node5</title>
<g id="a_node3"><a xlink:href="Model_8h.html" target="_top" xlink:title="C:/Users/cfantacci\l/GitHub/superimpose\l&#45;mesh&#45;lib/src/SuperimposeMesh\l/include/SuperimposeMesh/Model.h">
<polygon fill="white" stroke="black" points="0,-178.5 0,-230.5 172,-230.5 172,-178.5 0,-178.5"/>
<text text-anchor="start" x="8" y="-218.5" font-family="Helvetica,sans-Serif" font-size="10.00">C:/Users/cfantacci</text>
<text text-anchor="start" x="8" y="-207.5" font-family="Helvetica,sans-Serif" font-size="10.00">/GitHub/superimpose</text>
<text text-anchor="start" x="8" y="-196.5" font-family="Helvetica,sans-Serif" font-size="10.00">&#45;mesh&#45;lib/src/SuperimposeMesh</text>
<text text-anchor="middle" x="86" y="-185.5" font-family="Helvetica,sans-Serif" font-size="10.00">/include/SuperimposeMesh/Model.h</text>
</a>
</g>
</g>
<!-- Node3&#45;&gt;Node5 -->
<g id="edge9" class="edge"><title>Node3&#45;&gt;Node5</title>
<path fill="none" stroke="midnightblue" d="M225.387,-352.494C205.622,-343.882 185.713,-333.141 169,-320 137.734,-295.416 112.801,-256.094 98.7072,-230.532"/>
<polygon fill="midnightblue" stroke="midnightblue" points="224.178,-355.783 234.753,-356.427 226.888,-349.328 224.178,-355.783"/>
</g>
<!-- Node6 -->
<g id="node4" class="node"><title>Node6</title>
<g id="a_node4"><a xlink:href="SICAD_8h.html" target="_top" xlink:title="C:/Users/cfantacci\l/GitHub/superimpose\l&#45;mesh&#45;lib/src/SuperimposeMesh\l/include/SuperimposeMesh/SICAD.h">
<polygon fill="white" stroke="black" points="235.5,-89.5 235.5,-141.5 410.5,-141.5 410.5,-89.5 235.5,-89.5"/>
<text text-anchor="start" x="243.5" y="-129.5" font-family="Helvetica,sans-Serif" font-size="10.00">C:/Users/cfantacci</text>
<text text-anchor="start" x="243.5" y="-118.5" font-family="Helvetica,sans-Serif" font-size="10.00">/GitHub/superimpose</text>
<text text-anchor="start" x="243.5" y="-107.5" font-family="Helvetica,sans-Serif" font-size="10.00">&#45;mesh&#45;lib/src/SuperimposeMesh</text>
<text text-anchor="middle" x="323" y="-96.5" font-family="Helvetica,sans-Serif" font-size="10.00">/include/SuperimposeMesh/SICAD.h</text>
</a>
</g>
</g>
<!-- Node3&#45;&gt;Node6 -->
<g id="edge10" class="edge"><title>Node3&#45;&gt;Node6</title>
<path fill="none" stroke="midnightblue" d="M344.411,-347.769C349.586,-339.145 354.277,-329.588 357,-320 374.243,-259.29 372.768,-239.11 357,-178 353.708,-165.242 347.142,-152.303 340.651,-141.606"/>
<polygon fill="midnightblue" stroke="midnightblue" points="341.344,-346.069 338.905,-356.379 347.241,-349.84 341.344,-346.069"/>
</g>
<!-- Node12 -->
<g id="node10" class="node"><title>Node12</title>
<g id="a_node10"><a xlink:href="Shader_8cpp.html" target="_top" xlink:title="C:/Users/cfantacci\l/GitHub/superimpose\l&#45;mesh&#45;lib/src/SuperimposeMesh\l/src/Shader.cpp">
<polygon fill="white" stroke="black" points="404.5,-267.5 404.5,-319.5 561.5,-319.5 561.5,-267.5 404.5,-267.5"/>
<text text-anchor="start" x="412.5" y="-307.5" font-family="Helvetica,sans-Serif" font-size="10.00">C:/Users/cfantacci</text>
<text text-anchor="start" x="412.5" y="-296.5" font-family="Helvetica,sans-Serif" font-size="10.00">/GitHub/superimpose</text>
<text text-anchor="start" x="412.5" y="-285.5" font-family="Helvetica,sans-Serif" font-size="10.00">&#45;mesh&#45;lib/src/SuperimposeMesh</text>
<text text-anchor="middle" x="483" y="-274.5" font-family="Helvetica,sans-Serif" font-size="10.00">/src/Shader.cpp</text>
</a>
</g>
</g>
<!-- Node3&#45;&gt;Node12 -->
<g id="edge11" class="edge"><title>Node3&#45;&gt;Node12</title>
<path fill="none" stroke="midnightblue" d="M375.296,-351.635C394.958,-341.205 416.814,-329.611 435.671,-319.607"/>
<polygon fill="midnightblue" stroke="midnightblue" points="373.629,-348.558 366.436,-356.336 376.91,-354.742 373.629,-348.558"/>
</g>
<!-- Node4&#45;&gt;Node5 -->
<g id="edge2" class="edge"><title>Node4&#45;&gt;Node5</title>
<path fill="none" stroke="midnightblue" d="M202.814,-262.917C181.446,-252.414 157.616,-240.701 137.081,-230.607"/>
<polygon fill="midnightblue" stroke="midnightblue" points="201.286,-266.066 211.804,-267.336 204.374,-259.784 201.286,-266.066"/>
</g>
<!-- Node11 -->
<g id="node9" class="node"><title>Node11</title>
<g id="a_node9"><a xlink:href="Mesh_8cpp.html" target="_top" xlink:title="C:/Users/cfantacci\l/GitHub/superimpose\l&#45;mesh&#45;lib/src/SuperimposeMesh\l/src/Mesh.cpp">
<polygon fill="white" stroke="black" points="190.5,-178.5 190.5,-230.5 347.5,-230.5 347.5,-178.5 190.5,-178.5"/>
<text text-anchor="start" x="198.5" y="-218.5" font-family="Helvetica,sans-Serif" font-size="10.00">C:/Users/cfantacci</text>
<text text-anchor="start" x="198.5" y="-207.5" font-family="Helvetica,sans-Serif" font-size="10.00">/GitHub/superimpose</text>
<text text-anchor="start" x="198.5" y="-196.5" font-family="Helvetica,sans-Serif" font-size="10.00">&#45;mesh&#45;lib/src/SuperimposeMesh</text>
<text text-anchor="middle" x="269" y="-185.5" font-family="Helvetica,sans-Serif" font-size="10.00">/src/Mesh.cpp</text>
</a>
</g>
</g>
<!-- Node4&#45;&gt;Node11 -->
<g id="edge8" class="edge"><title>Node4&#45;&gt;Node11</title>
<path fill="none" stroke="midnightblue" d="M265.435,-257.191C266.049,-248.282 266.697,-238.899 267.268,-230.607"/>
<polygon fill="midnightblue" stroke="midnightblue" points="261.932,-257.119 264.735,-267.336 268.915,-257.601 261.932,-257.119"/>
</g>
<!-- Node5&#45;&gt;Node6 -->
<g id="edge3" class="edge"><title>Node5&#45;&gt;Node6</title>
<path fill="none" stroke="midnightblue" d="M163.643,-174.998C193.077,-164.193 226.343,-151.982 254.839,-141.521"/>
<polygon fill="midnightblue" stroke="midnightblue" points="162.414,-171.721 154.232,-178.453 164.826,-178.292 162.414,-171.721"/>
</g>
<!-- Node10 -->
<g id="node8" class="node"><title>Node10</title>
<g id="a_node8"><a xlink:href="Model_8cpp.html" target="_top" xlink:title="C:/Users/cfantacci\l/GitHub/superimpose\l&#45;mesh&#45;lib/src/SuperimposeMesh\l/src/Model.cpp">
<polygon fill="white" stroke="black" points="7.5,-89.5 7.5,-141.5 164.5,-141.5 164.5,-89.5 7.5,-89.5"/>
<text text-anchor="start" x="15.5" y="-129.5" font-family="Helvetica,sans-Serif" font-size="10.00">C:/Users/cfantacci</text>
<text text-anchor="start" x="15.5" y="-118.5" font-family="Helvetica,sans-Serif" font-size="10.00">/GitHub/superimpose</text>
<text text-anchor="start" x="15.5" y="-107.5" font-family="Helvetica,sans-Serif" font-size="10.00">&#45;mesh&#45;lib/src/SuperimposeMesh</text>
<text text-anchor="middle" x="86" y="-96.5" font-family="Helvetica,sans-Serif" font-size="10.00">/src/Model.cpp</text>
</a>
</g>
</g>
<!-- Node5&#45;&gt;Node10 -->
<g id="edge7" class="edge"><title>Node5&#45;&gt;Node10</title>
<path fill="none" stroke="midnightblue" d="M86,-168.191C86,-159.282 86,-149.899 86,-141.607"/>
<polygon fill="midnightblue" stroke="midnightblue" points="82.5001,-168.336 86,-178.336 89.5001,-168.336 82.5001,-168.336"/>
</g>
<!-- Node7 -->
<g id="node5" class="node"><title>Node7</title>
<g id="a_node5"><a xlink:href="SICAD_8cpp.html" target="_top" xlink:title="C:/Users/cfantacci\l/GitHub/superimpose\l&#45;mesh&#45;lib/src/SuperimposeMesh\l/src/SICAD.cpp">
<polygon fill="white" stroke="black" points="95.5,-0.5 95.5,-52.5 252.5,-52.5 252.5,-0.5 95.5,-0.5"/>
<text text-anchor="start" x="103.5" y="-40.5" font-family="Helvetica,sans-Serif" font-size="10.00">C:/Users/cfantacci</text>
<text text-anchor="start" x="103.5" y="-29.5" font-family="Helvetica,sans-Serif" font-size="10.00">/GitHub/superimpose</text>
<text text-anchor="start" x="103.5" y="-18.5" font-family="Helvetica,sans-Serif" font-size="10.00">&#45;mesh&#45;lib/src/SuperimposeMesh</text>
<text text-anchor="middle" x="174" y="-7.5" font-family="Helvetica,sans-Serif" font-size="10.00">/src/SICAD.cpp</text>
</a>
</g>
</g>
<!-- Node6&#45;&gt;Node7 -->
<g id="edge4" class="edge"><title>Node6&#45;&gt;Node7</title>
<path fill="none" stroke="midnightblue" d="M270.885,-84.0705C253.274,-73.7877 233.824,-62.4307 217,-52.6075"/>
<polygon fill="midnightblue" stroke="midnightblue" points="269.503,-87.3161 279.903,-89.336 273.032,-81.2711 269.503,-87.3161"/>
</g>
<!-- Node8 -->
<g id="node6" class="node"><title>Node8</title>
<g id="a_node6"><a xlink:href="tutorial__background_8cpp.html" target="_top" xlink:title="tutorial_code/tutorial\l_background.cpp">
<polygon fill="white" stroke="black" points="271,-11.5 271,-41.5 375,-41.5 375,-11.5 271,-11.5"/>
<text text-anchor="start" x="279" y="-29.5" font-family="Helvetica,sans-Serif" font-size="10.00">tutorial_code/tutorial</text>
<text text-anchor="middle" x="323" y="-18.5" font-family="Helvetica,sans-Serif" font-size="10.00">_background.cpp</text>
</a>
</g>
</g>
<!-- Node6&#45;&gt;Node8 -->
<g id="edge5" class="edge"><title>Node6&#45;&gt;Node8</title>
<path fill="none" stroke="midnightblue" d="M323,-79.1453C323,-66.0465 323,-51.9258 323,-41.7658"/>
<polygon fill="midnightblue" stroke="midnightblue" points="319.5,-79.336 323,-89.336 326.5,-79.336 319.5,-79.336"/>
</g>
<!-- Node9 -->
<g id="node7" class="node"><title>Node9</title>
<g id="a_node7"><a xlink:href="tutorial__superimpose_8cpp.html" target="_top" xlink:title="tutorial_code/tutorial\l_superimpose.cpp">
<polygon fill="white" stroke="black" points="393,-11.5 393,-41.5 497,-41.5 497,-11.5 393,-11.5"/>
<text text-anchor="start" x="401" y="-29.5" font-family="Helvetica,sans-Serif" font-size="10.00">tutorial_code/tutorial</text>
<text text-anchor="middle" x="445" y="-18.5" font-family="Helvetica,sans-Serif" font-size="10.00">_superimpose.cpp</text>
</a>
</g>
</g>
<!-- Node6&#45;&gt;Node9 -->
<g id="edge6" class="edge"><title>Node6&#45;&gt;Node9</title>
<path fill="none" stroke="midnightblue" d="M366.692,-83.3427C386.757,-69.0338 409.547,-52.7823 425.346,-41.5158"/>
<polygon fill="midnightblue" stroke="midnightblue" points="364.397,-80.6802 358.287,-89.336 368.461,-86.3795 364.397,-80.6802"/>
</g>
</g>
</svg>
        <g id="navigator" transform="translate(0 0)" fill="#404254">
                <rect fill="#f2f5e9" fill-opacity="0.5" stroke="#606060" stroke-width=".5" x="0" y="0" width="60" height="60"/>
                <use id="zoomplus" xlink:href="#zoomPlus" x="17" y="9" onmousedown="handleZoom(evt,'in')"/>
                <use id="zoomminus" xlink:href="#zoomMin" x="42" y="9" onmousedown="handleZoom(evt,'out')"/>
                <use id="reset" xlink:href="#resetDef" x="30" y="36" onmousedown="handleReset()"/>
                <g id="arrowUp" xlink:href="#dirArrow" transform="translate(30 24)" onmousedown="handlePan(0,-1)">
                  <use xlink:href="#rim" fill="#404040">
                        <set attributeName="fill" to="#808080" begin="arrowUp.mouseover" end="arrowUp.mouseout"/>
                  </use>
                  <path fill="none" stroke="white" stroke-width="1.5" d="M0,-3.0v7 M-2.5,-0.5L0,-3.0L2.5,-0.5"/>
                </g>
                <g id="arrowRight" xlink:href="#dirArrow" transform="rotate(90) translate(36 -43)" onmousedown="handlePan(1,0)">
                  <use xlink:href="#rim" fill="#404040">
                        <set attributeName="fill" to="#808080" begin="arrowRight.mouseover" end="arrowRight.mouseout"/>
                  </use>
                  <path fill="none" stroke="white" stroke-width="1.5" d="M0,-3.0v7 M-2.5,-0.5L0,-3.0L2.5,-0.5"/>
                </g>
                <g id="arrowDown" xlink:href="#dirArrow" transform="rotate(180) translate(-30 -48)" onmousedown="handlePan(0,1)">
                  <use xlink:href="#rim" fill="#404040">
                        <set attributeName="fill" to="#808080" begin="arrowDown.mouseover" end="arrowDown.mouseout"/>
                  </use>
                  <path fill="none" stroke="white" stroke-width="1.5" d="M0,-3.0v7 M-2.5,-0.5L0,-3.0L2.5,-0.5"/>
                </g>
                <g id="arrowLeft" xlink:href="#dirArrow" transform="rotate(270) translate(-36 17)" onmousedown="handlePan(-1,0)">
                  <use xlink:href="#rim" fill="#404040">
                        <set attributeName="fill" to="#808080" begin="arrowLeft.mouseover" end="arrowLeft.mouseout"/>
                  </use>
                  <path fill="none" stroke="white" stroke-width="1.5" d="M0,-3.0v7 M-2.5,-0.5L0,-3.0L2.5,-0.5"/>
                </g>
        </g>
        <svg viewBox="0 0 15 15" width="100%" height="30px" preserveAspectRatio="xMaxYMin meet">
         <g id="arrow_out" transform="scale(0.3 0.3)">
          <a xlink:href="Shader_8h__dep__incl_org.svg" target="_base">
           <rect id="button" ry="5" rx="5" y="6" x="6" height="38" width="38"
                fill="#f2f5e9" fill-opacity="0.5" stroke="#606060" stroke-width="1.0"/>
           <path id="arrow"
             d="M 11.500037,31.436501 C 11.940474,20.09759 22.043105,11.32322 32.158766,21.979434 L 37.068811,17.246167 C 37.068811,17.246167 37.088388,32 37.088388,32 L 22.160133,31.978069 C 22.160133,31.978069 26.997745,27.140456 26.997745,27.140456 C 18.528582,18.264221 13.291696,25.230495 11.500037,31.436501 z"
             style="fill:#404040;"/>
          </a>
         </g>
        </svg>
</svg>
