<?xml version="1.0" encoding="UTF-8" standalone="no"?>
<!DOCTYPE svg PUBLIC "-//W3C//DTD SVG 1.1//EN"
 "http://www.w3.org/Graphics/SVG/1.1/DTD/svg11.dtd">
<!-- Generated by graphviz version 2.38.0 (20140413.2041)
 -->
<!-- Title: C:/Users/cfantacci/GitHub/superimpose&#45;mesh&#45;lib/src/SuperimposeMesh/src/Shader.cpp Pages: 1 -->
<svg width="417pt" height="173pt"
 viewBox="0.00 0.00 417.00 173.00" xmlns="http://www.w3.org/2000/svg" xmlns:xlink="http://www.w3.org/1999/xlink">
<g id="graph0" class="graph" transform="scale(1 1) rotate(0) translate(4 169)">
<title>C:/Users/cfantacci/GitHub/superimpose&#45;mesh&#45;lib/src/SuperimposeMesh/src/Shader.cpp</title>
<polygon fill="white" stroke="none" points="-4,4 -4,-169 413,-169 413,4 -4,4"/>
<!-- Node0 -->
<g id="node1" class="node"><title>Node0</title>
<polygon fill="#bfbfbf" stroke="black" points="163.5,-112.5 163.5,-164.5 320.5,-164.5 320.5,-112.5 163.5,-112.5"/>
<text text-anchor="start" x="171.5" y="-152.5" font-family="Helvetica,sans-Serif" font-size="10.00">C:/Users/cfantacci</text>
<text text-anchor="start" x="171.5" y="-141.5" font-family="Helvetica,sans-Serif" font-size="10.00">/GitHub/superimpose</text>
<text text-anchor="start" x="171.5" y="-130.5" font-family="Helvetica,sans-Serif" font-size="10.00">&#45;mesh&#45;lib/src/SuperimposeMesh</text>
<text text-anchor="middle" x="242" y="-119.5" font-family="Helvetica,sans-Serif" font-size="10.00">/src/Shader.cpp</text>
</g>
<!-- Node1 -->
<g id="node2" class="node"><title>Node1</title>
<g id="a_node2"><a xlink:href="Shader_8h.html" target="_top" xlink:title="SuperimposeMesh/Shader.h">
<polygon fill="white" stroke="black" points="0,-56.5 0,-75.5 140,-75.5 140,-56.5 0,-56.5"/>
<text text-anchor="middle" x="70" y="-63.5" font-family="Helvetica,sans-Serif" font-size="10.00">SuperimposeMesh/Shader.h</text>
</a>
</g>
</g>
<!-- Node0&#45;&gt;Node1 -->
<g id="edge1" class="edge"><title>Node0&#45;&gt;Node1</title>
<path fill="none" stroke="midnightblue" d="M180.875,-112.446C153.455,-101.207 122.343,-88.4546 100.07,-79.3253"/>
<polygon fill="midnightblue" stroke="midnightblue" points="101.384,-76.0811 90.8034,-75.527 98.7289,-82.5582 101.384,-76.0811"/>
</g>
<!-- Node4 -->
<g id="node5" class="node"><title>Node4</title>
<polygon fill="white" stroke="#bfbfbf" points="158.5,-56.5 158.5,-75.5 199.5,-75.5 199.5,-56.5 158.5,-56.5"/>
<text text-anchor="middle" x="179" y="-63.5" font-family="Helvetica,sans-Serif" font-size="10.00">string</text>
</g>
<!-- Node0&#45;&gt;Node4 -->
<g id="edge4" class="edge"><title>Node0&#45;&gt;Node4</title>
<path fill="none" stroke="midnightblue" d="M219.611,-112.446C210.927,-102.728 201.233,-91.8797 193.494,-83.2196"/>
<polygon fill="midnightblue" stroke="midnightblue" points="196.044,-80.8199 186.77,-75.6955 190.824,-85.4842 196.044,-80.8199"/>
</g>
<!-- Node5 -->
<g id="node6" class="node"><title>Node5</title>
<polygon fill="white" stroke="#bfbfbf" points="217.5,-56.5 217.5,-75.5 266.5,-75.5 266.5,-56.5 217.5,-56.5"/>
<text text-anchor="middle" x="242" y="-63.5" font-family="Helvetica,sans-Serif" font-size="10.00">fstream</text>
</g>
<!-- Node0&#45;&gt;Node5 -->
<g id="edge5" class="edge"><title>Node0&#45;&gt;Node5</title>
<path fill="none" stroke="midnightblue" d="M242,-112.446C242,-103.73 242,-94.1045 242,-85.9641"/>
<polygon fill="midnightblue" stroke="midnightblue" points="245.5,-85.6954 242,-75.6955 238.5,-85.6955 245.5,-85.6954"/>
</g>
<!-- Node6 -->
<g id="node7" class="node"><title>Node6</title>
<polygon fill="white" stroke="#bfbfbf" points="285,-56.5 285,-75.5 337,-75.5 337,-56.5 285,-56.5"/>
<text text-anchor="middle" x="311" y="-63.5" font-family="Helvetica,sans-Serif" font-size="10.00">sstream</text>
</g>
<!-- Node0&#45;&gt;Node6 -->
<g id="edge6" class="edge"><title>Node0&#45;&gt;Node6</title>
<path fill="none" stroke="midnightblue" d="M266.521,-112.446C276.13,-102.628 286.869,-91.6559 295.387,-82.9524"/>
<polygon fill="midnightblue" stroke="midnightblue" points="297.996,-85.2903 302.49,-75.6955 292.994,-80.3941 297.996,-85.2903"/>
</g>
<!-- Node7 -->
<g id="node8" class="node"><title>Node7</title>
<polygon fill="white" stroke="#bfbfbf" points="355,-56.5 355,-75.5 409,-75.5 409,-56.5 355,-56.5"/>
<text text-anchor="middle" x="382" y="-63.5" font-family="Helvetica,sans-Serif" font-size="10.00">iostream</text>
</g>
<!-- Node0&#45;&gt;Node7 -->
<g id="edge7" class="edge"><title>Node0&#45;&gt;Node7</title>
<path fill="none" stroke="midnightblue" d="M291.753,-112.446C313.371,-101.56 337.808,-89.2537 355.796,-80.1955"/>
<polygon fill="midnightblue" stroke="midnightblue" points="357.71,-83.1507 365.067,-75.527 354.561,-76.8986 357.71,-83.1507"/>
</g>
<!-- Node2 -->
<g id="node3" class="node"><title>Node2</title>
<polygon fill="white" stroke="#bfbfbf" points="1.5,-0.5 1.5,-19.5 60.5,-19.5 60.5,-0.5 1.5,-0.5"/>
<text text-anchor="middle" x="31" y="-7.5" font-family="Helvetica,sans-Serif" font-size="10.00">exception</text>
</g>
<!-- Node1&#45;&gt;Node2 -->
<g id="edge2" class="edge"><title>Node1&#45;&gt;Node2</title>
<path fill="none" stroke="midnightblue" d="M63.5599,-56.083C58.0511,-48.4554 49.9688,-37.2645 43.235,-27.9408"/>
<polygon fill="midnightblue" stroke="midnightblue" points="46.0126,-25.8087 37.3202,-19.7511 40.3378,-29.9071 46.0126,-25.8087"/>
</g>
<!-- Node3 -->
<g id="node4" class="node"><title>Node3</title>
<polygon fill="white" stroke="#bfbfbf" points="79,-0.5 79,-19.5 139,-19.5 139,-0.5 79,-0.5"/>
<text text-anchor="middle" x="109" y="-7.5" font-family="Helvetica,sans-Serif" font-size="10.00">GL/glew.h</text>
</g>
<!-- Node1&#45;&gt;Node3 -->
<g id="edge3" class="edge"><title>Node1&#45;&gt;Node3</title>
<path fill="none" stroke="midnightblue" d="M76.4401,-56.083C81.9489,-48.4554 90.0312,-37.2645 96.765,-27.9408"/>
<polygon fill="midnightblue" stroke="midnightblue" points="99.6622,-29.9071 102.68,-19.7511 93.9874,-25.8087 99.6622,-29.9071"/>
</g>
</g>
</svg>
