<?xml version="1.0" encoding="UTF-8" standalone="no"?>
<!DOCTYPE svg PUBLIC "-//W3C//DTD SVG 1.1//EN"
 "http://www.w3.org/Graphics/SVG/1.1/DTD/svg11.dtd">
<!-- Generated by graphviz version 2.38.0 (20140413.2041)
 -->
<!-- Title: C:/Users/cfantacci/GitHub/superimpose&#45;mesh&#45;lib/src/SuperimposeMesh/src/SICAD.cpp Pages: 1 -->
<svg width="1257pt" height="341pt"
 viewBox="0.00 0.00 1257.00 341.00" xmlns="http://www.w3.org/2000/svg" xmlns:xlink="http://www.w3.org/1999/xlink">
<g id="graph0" class="graph" transform="scale(1 1) rotate(0) translate(4 337)">
<title>C:/Users/cfantacci/GitHub/superimpose&#45;mesh&#45;lib/src/SuperimposeMesh/src/SICAD.cpp</title>
<polygon fill="white" stroke="none" points="-4,4 -4,-337 1253,-337 1253,4 -4,4"/>
<!-- Node0 -->
<g id="node1" class="node"><title>Node0</title>
<polygon fill="#bfbfbf" stroke="black" points="488.5,-280.5 488.5,-332.5 645.5,-332.5 645.5,-280.5 488.5,-280.5"/>
<text text-anchor="start" x="496.5" y="-320.5" font-family="Helvetica,sans-Serif" font-size="10.00">C:/Users/cfantacci</text>
<text text-anchor="start" x="496.5" y="-309.5" font-family="Helvetica,sans-Serif" font-size="10.00">/GitHub/superimpose</text>
<text text-anchor="start" x="496.5" y="-298.5" font-family="Helvetica,sans-Serif" font-size="10.00">&#45;mesh&#45;lib/src/SuperimposeMesh</text>
<text text-anchor="middle" x="567" y="-287.5" font-family="Helvetica,sans-Serif" font-size="10.00">/src/SICAD.cpp</text>
</g>
<!-- Node1 -->
<g id="node2" class="node"><title>Node1</title>
<g id="a_node2"><a xlink:href="SICAD_8h.html" target="_top" xlink:title="SuperimposeMesh/SICAD.h">
<polygon fill="white" stroke="black" points="335,-224.5 335,-243.5 473,-243.5 473,-224.5 335,-224.5"/>
<text text-anchor="middle" x="404" y="-231.5" font-family="Helvetica,sans-Serif" font-size="10.00">SuperimposeMesh/SICAD.h</text>
</a>
</g>
</g>
<!-- Node0&#45;&gt;Node1 -->
<g id="edge1" class="edge"><title>Node0&#45;&gt;Node1</title>
<path fill="none" stroke="midnightblue" d="M509.073,-280.446C483.321,-269.308 454.133,-256.683 433.067,-247.572"/>
<polygon fill="midnightblue" stroke="midnightblue" points="434.283,-244.284 423.715,-243.527 431.504,-250.709 434.283,-244.284"/>
</g>
<!-- Node3 -->
<g id="node4" class="node"><title>Node3</title>
<polygon fill="white" stroke="#bfbfbf" points="324.5,-112.5 324.5,-131.5 365.5,-131.5 365.5,-112.5 324.5,-112.5"/>
<text text-anchor="middle" x="345" y="-119.5" font-family="Helvetica,sans-Serif" font-size="10.00">string</text>
</g>
<!-- Node0&#45;&gt;Node3 -->
<g id="edge33" class="edge"><title>Node0&#45;&gt;Node3</title>
<path fill="none" stroke="midnightblue" d="M488.413,-295.895C425.989,-286.461 345.968,-269.703 326,-244 302.506,-213.758 321.471,-166.183 334.783,-140.629"/>
<polygon fill="midnightblue" stroke="midnightblue" points="337.935,-142.16 339.673,-131.709 331.796,-138.795 337.935,-142.16"/>
</g>
<!-- Node11 -->
<g id="node12" class="node"><title>Node11</title>
<polygon fill="white" stroke="#bfbfbf" points="6.5,-0.5 6.5,-19.5 65.5,-19.5 65.5,-0.5 6.5,-0.5"/>
<text text-anchor="middle" x="36" y="-7.5" font-family="Helvetica,sans-Serif" font-size="10.00">exception</text>
</g>
<!-- Node0&#45;&gt;Node11 -->
<g id="edge32" class="edge"><title>Node0&#45;&gt;Node11</title>
<path fill="none" stroke="midnightblue" d="M488.459,-304.208C332.789,-299.511 0,-277.904 0,-179 0,-179 0,-179 0,-121 0,-86.9816 15.7442,-49.8497 26.4088,-28.6"/>
<polygon fill="midnightblue" stroke="midnightblue" points="29.6199,-30.0118 31.1449,-19.5273 23.4145,-26.7725 29.6199,-30.0118"/>
</g>
<!-- Node16 -->
<g id="node17" class="node"><title>Node16</title>
<polygon fill="white" stroke="#bfbfbf" points="362,-56.5 362,-75.5 448,-75.5 448,-56.5 362,-56.5"/>
<text text-anchor="middle" x="405" y="-63.5" font-family="Helvetica,sans-Serif" font-size="10.00">assimp/scene.h</text>
</g>
<!-- Node0&#45;&gt;Node16 -->
<g id="edge35" class="edge"><title>Node0&#45;&gt;Node16</title>
<path fill="none" stroke="midnightblue" d="M488.188,-291.332C393.946,-272.436 245.424,-235.746 218,-188 184.064,-128.916 285.437,-93.8425 351.93,-77.7181"/>
<polygon fill="midnightblue" stroke="midnightblue" points="352.936,-81.0771 361.871,-75.384 351.336,-74.2624 352.936,-81.0771"/>
</g>
<!-- Node20 -->
<g id="node21" class="node"><title>Node20</title>
<polygon fill="white" stroke="#bfbfbf" points="491,-224.5 491,-243.5 545,-243.5 545,-224.5 491,-224.5"/>
<text text-anchor="middle" x="518" y="-231.5" font-family="Helvetica,sans-Serif" font-size="10.00">iostream</text>
</g>
<!-- Node0&#45;&gt;Node20 -->
<g id="edge31" class="edge"><title>Node0&#45;&gt;Node20</title>
<path fill="none" stroke="midnightblue" d="M549.586,-280.446C543.041,-271.029 535.758,-260.55 529.836,-252.029"/>
<polygon fill="midnightblue" stroke="midnightblue" points="532.625,-249.909 524.044,-243.695 526.877,-253.904 532.625,-249.909"/>
</g>
<!-- Node21 -->
<g id="node22" class="node"><title>Node21</title>
<polygon fill="white" stroke="#bfbfbf" points="563.5,-224.5 563.5,-243.5 668.5,-243.5 668.5,-224.5 563.5,-224.5"/>
<text text-anchor="middle" x="616" y="-231.5" font-family="Helvetica,sans-Serif" font-size="10.00">assimp/Importer.hpp</text>
</g>
<!-- Node0&#45;&gt;Node21 -->
<g id="edge34" class="edge"><title>Node0&#45;&gt;Node21</title>
<path fill="none" stroke="midnightblue" d="M584.414,-280.446C590.959,-271.029 598.242,-260.55 604.164,-252.029"/>
<polygon fill="midnightblue" stroke="midnightblue" points="607.123,-253.904 609.956,-243.695 601.375,-249.909 607.123,-253.904"/>
</g>
<!-- Node22 -->
<g id="node23" class="node"><title>Node22</title>
<polygon fill="white" stroke="#bfbfbf" points="686.5,-224.5 686.5,-243.5 799.5,-243.5 799.5,-224.5 686.5,-224.5"/>
<text text-anchor="middle" x="743" y="-231.5" font-family="Helvetica,sans-Serif" font-size="10.00">assimp/postprocess.h</text>
</g>
<!-- Node0&#45;&gt;Node22 -->
<g id="edge36" class="edge"><title>Node0&#45;&gt;Node22</title>
<path fill="none" stroke="midnightblue" d="M629.547,-280.446C657.604,-269.207 689.44,-256.455 712.231,-247.325"/>
<polygon fill="midnightblue" stroke="midnightblue" points="713.731,-250.495 721.713,-243.527 711.128,-243.996 713.731,-250.495"/>
</g>
<!-- Node23 -->
<g id="node24" class="node"><title>Node23</title>
<polygon fill="white" stroke="#bfbfbf" points="817.5,-224.5 817.5,-243.5 960.5,-243.5 960.5,-224.5 817.5,-224.5"/>
<text text-anchor="middle" x="889" y="-231.5" font-family="Helvetica,sans-Serif" font-size="10.00">glm/gtc/matrix_transform.hpp</text>
</g>
<!-- Node0&#45;&gt;Node23 -->
<g id="edge37" class="edge"><title>Node0&#45;&gt;Node23</title>
<path fill="none" stroke="midnightblue" d="M645.77,-288.254C706.514,-274.954 788.604,-256.981 840.173,-245.69"/>
<polygon fill="midnightblue" stroke="midnightblue" points="841.044,-249.083 850.064,-243.525 839.547,-242.245 841.044,-249.083"/>
</g>
<!-- Node24 -->
<g id="node25" class="node"><title>Node24</title>
<polygon fill="white" stroke="#bfbfbf" points="979,-224.5 979,-243.5 1085,-243.5 1085,-224.5 979,-224.5"/>
<text text-anchor="middle" x="1032" y="-231.5" font-family="Helvetica,sans-Serif" font-size="10.00">glm/gtc/type_ptr.hpp</text>
</g>
<!-- Node0&#45;&gt;Node24 -->
<g id="edge38" class="edge"><title>Node0&#45;&gt;Node24</title>
<path fill="none" stroke="midnightblue" d="M645.618,-293.581C736.7,-279.771 884.968,-257.292 968.879,-244.57"/>
<polygon fill="midnightblue" stroke="midnightblue" points="969.423,-248.028 978.785,-243.068 968.373,-241.107 969.423,-248.028"/>
</g>
<!-- Node25 -->
<g id="node26" class="node"><title>Node25</title>
<polygon fill="white" stroke="#bfbfbf" points="1103,-224.5 1103,-243.5 1249,-243.5 1249,-224.5 1103,-224.5"/>
<text text-anchor="middle" x="1176" y="-231.5" font-family="Helvetica,sans-Serif" font-size="10.00">opencv2/imgproc/imgproc.hpp</text>
</g>
<!-- Node0&#45;&gt;Node25 -->
<g id="edge39" class="edge"><title>Node0&#45;&gt;Node25</title>
<path fill="none" stroke="midnightblue" d="M645.68,-296.392C760.97,-283.045 974.861,-258.285 1092.71,-244.641"/>
<polygon fill="midnightblue" stroke="midnightblue" points="1093.24,-248.104 1102.77,-243.477 1092.43,-241.151 1093.24,-248.104"/>
</g>
<!-- Node2 -->
<g id="node3" class="node"><title>Node2</title>
<g id="a_node3"><a xlink:href="Superimpose_8h.html" target="_top" xlink:title="Superimpose.h">
<polygon fill="white" stroke="black" points="619,-168.5 619,-187.5 701,-187.5 701,-168.5 619,-168.5"/>
<text text-anchor="middle" x="660" y="-175.5" font-family="Helvetica,sans-Serif" font-size="10.00">Superimpose.h</text>
</a>
</g>
</g>
<!-- Node1&#45;&gt;Node2 -->
<g id="edge2" class="edge"><title>Node1&#45;&gt;Node2</title>
<path fill="none" stroke="midnightblue" d="M444.564,-224.444C489.316,-215.004 561.383,-199.802 609.695,-189.611"/>
<polygon fill="midnightblue" stroke="midnightblue" points="610.564,-193.005 619.626,-187.516 609.119,-186.156 610.564,-193.005"/>
</g>
<!-- Node1&#45;&gt;Node3 -->
<g id="edge25" class="edge"><title>Node1&#45;&gt;Node3</title>
<path fill="none" stroke="midnightblue" d="M394.073,-224.296C385.023,-215.856 371.896,-202.267 364,-188 355.994,-173.535 351.05,-155.348 348.22,-141.893"/>
<polygon fill="midnightblue" stroke="midnightblue" points="351.625,-141.06 346.32,-131.889 344.748,-142.367 351.625,-141.06"/>
</g>
<!-- Node7 -->
<g id="node8" class="node"><title>Node7</title>
<polygon fill="white" stroke="#bfbfbf" points="592,-56.5 592,-75.5 634,-75.5 634,-56.5 592,-56.5"/>
<text text-anchor="middle" x="613" y="-63.5" font-family="Helvetica,sans-Serif" font-size="10.00">vector</text>
</g>
<!-- Node1&#45;&gt;Node7 -->
<g id="edge27" class="edge"><title>Node1&#45;&gt;Node7</title>
<path fill="none" stroke="midnightblue" d="M473.332,-224.513C560.683,-213.57 700.625,-195.104 710,-188 738.34,-166.524 755.333,-141.172 735,-112 714.65,-82.8041 673.102,-72.5014 644.178,-68.8944"/>
<polygon fill="midnightblue" stroke="midnightblue" points="644.466,-65.4055 634.156,-67.8459 643.738,-72.3675 644.466,-65.4055"/>
</g>
<!-- Node9 -->
<g id="node10" class="node"><title>Node9</title>
<g id="a_node10"><a xlink:href="Model_8h.html" target="_top" xlink:title="Model.h">
<polygon fill="white" stroke="black" points="227.5,-168.5 227.5,-187.5 278.5,-187.5 278.5,-168.5 227.5,-168.5"/>
<text text-anchor="middle" x="253" y="-175.5" font-family="Helvetica,sans-Serif" font-size="10.00">Model.h</text>
</a>
</g>
</g>
<!-- Node1&#45;&gt;Node9 -->
<g id="edge9" class="edge"><title>Node1&#45;&gt;Node9</title>
<path fill="none" stroke="midnightblue" d="M380.074,-224.444C354.781,-215.399 314.698,-201.064 286.32,-190.916"/>
<polygon fill="midnightblue" stroke="midnightblue" points="287.409,-187.588 276.814,-187.516 285.052,-194.179 287.409,-187.588"/>
</g>
<!-- Node10 -->
<g id="node11" class="node"><title>Node10</title>
<g id="a_node11"><a xlink:href="Shader_8h.html" target="_top" xlink:title="Shader.h">
<polygon fill="white" stroke="black" points="28,-56.5 28,-75.5 84,-75.5 84,-56.5 28,-56.5"/>
<text text-anchor="middle" x="56" y="-63.5" font-family="Helvetica,sans-Serif" font-size="10.00">Shader.h</text>
</a>
</g>
</g>
<!-- Node1&#45;&gt;Node10 -->
<g id="edge24" class="edge"><title>Node1&#45;&gt;Node10</title>
<path fill="none" stroke="midnightblue" d="M334.821,-230.913C260.485,-224.831 144.014,-203.559 77,-132 65.2307,-119.433 60.0565,-100.213 57.7823,-85.9291"/>
<polygon fill="midnightblue" stroke="midnightblue" points="61.2236,-85.2414 56.5095,-75.7531 54.2777,-86.1102 61.2236,-85.2414"/>
</g>
<!-- Node12 -->
<g id="node13" class="node"><title>Node12</title>
<polygon fill="white" stroke="#bfbfbf" points="101,-0.5 101,-19.5 161,-19.5 161,-0.5 101,-0.5"/>
<text text-anchor="middle" x="131" y="-7.5" font-family="Helvetica,sans-Serif" font-size="10.00">GL/glew.h</text>
</g>
<!-- Node1&#45;&gt;Node12 -->
<g id="edge28" class="edge"><title>Node1&#45;&gt;Node12</title>
<path fill="none" stroke="midnightblue" d="M473.055,-224.502C568.32,-212.648 728.988,-192.133 734,-188 760.861,-165.848 771.197,-141.684 753,-112 724.328,-65.2294 695.734,-71.1228 643,-56 554.476,-30.6136 275.849,-16.9101 171.227,-12.5537"/>
<polygon fill="midnightblue" stroke="midnightblue" points="171.213,-9.05028 161.078,-12.1378 170.926,-16.0444 171.213,-9.05028"/>
</g>
<!-- Node17 -->
<g id="node18" class="node"><title>Node17</title>
<polygon fill="white" stroke="#bfbfbf" points="373,-168.5 373,-187.5 417,-187.5 417,-168.5 373,-168.5"/>
<text text-anchor="middle" x="395" y="-175.5" font-family="Helvetica,sans-Serif" font-size="10.00">thread</text>
</g>
<!-- Node1&#45;&gt;Node17 -->
<g id="edge26" class="edge"><title>Node1&#45;&gt;Node17</title>
<path fill="none" stroke="midnightblue" d="M402.514,-224.083C401.321,-216.927 399.606,-206.635 398.115,-197.691"/>
<polygon fill="midnightblue" stroke="midnightblue" points="401.555,-197.04 396.459,-187.751 394.65,-198.19 401.555,-197.04"/>
</g>
<!-- Node18 -->
<g id="node19" class="node"><title>Node18</title>
<polygon fill="white" stroke="#bfbfbf" points="435,-168.5 435,-187.5 513,-187.5 513,-168.5 435,-168.5"/>
<text text-anchor="middle" x="474" y="-175.5" font-family="Helvetica,sans-Serif" font-size="10.00">GLFW/glfw3.h</text>
</g>
<!-- Node1&#45;&gt;Node18 -->
<g id="edge29" class="edge"><title>Node1&#45;&gt;Node18</title>
<path fill="none" stroke="midnightblue" d="M415.247,-224.324C425.797,-216.185 441.801,-203.839 454.442,-194.087"/>
<polygon fill="midnightblue" stroke="midnightblue" points="456.769,-196.713 462.549,-187.834 452.493,-191.171 456.769,-196.713"/>
</g>
<!-- Node19 -->
<g id="node20" class="node"><title>Node19</title>
<polygon fill="white" stroke="#bfbfbf" points="531,-168.5 531,-187.5 601,-187.5 601,-168.5 531,-168.5"/>
<text text-anchor="middle" x="566" y="-175.5" font-family="Helvetica,sans-Serif" font-size="10.00">glm/glm.hpp</text>
</g>
<!-- Node1&#45;&gt;Node19 -->
<g id="edge30" class="edge"><title>Node1&#45;&gt;Node19</title>
<path fill="none" stroke="midnightblue" d="M429.669,-224.444C456.923,-215.359 500.184,-200.939 530.651,-190.783"/>
<polygon fill="midnightblue" stroke="midnightblue" points="532.071,-193.999 540.451,-187.516 529.857,-187.358 532.071,-193.999"/>
</g>
<!-- Node2&#45;&gt;Node3 -->
<g id="edge3" class="edge"><title>Node2&#45;&gt;Node3</title>
<path fill="none" stroke="midnightblue" d="M618.814,-169.499C615.833,-168.983 612.871,-168.478 610,-168 508.928,-151.165 479.823,-154.979 375.547,-131.827"/>
<polygon fill="midnightblue" stroke="midnightblue" points="376.081,-128.36 365.557,-129.579 374.544,-135.189 376.081,-128.36"/>
</g>
<!-- Node4 -->
<g id="node5" class="node"><title>Node4</title>
<polygon fill="white" stroke="#bfbfbf" points="574.5,-112.5 574.5,-131.5 609.5,-131.5 609.5,-112.5 574.5,-112.5"/>
<text text-anchor="middle" x="592" y="-119.5" font-family="Helvetica,sans-Serif" font-size="10.00">map</text>
</g>
<!-- Node2&#45;&gt;Node4 -->
<g id="edge4" class="edge"><title>Node2&#45;&gt;Node4</title>
<path fill="none" stroke="midnightblue" d="M649.075,-168.324C638.825,-160.185 623.279,-147.839 610.999,-138.087"/>
<polygon fill="midnightblue" stroke="midnightblue" points="613.132,-135.312 603.124,-131.834 608.779,-140.794 613.132,-135.312"/>
</g>
<!-- Node5 -->
<g id="node6" class="node"><title>Node5</title>
<polygon fill="white" stroke="#bfbfbf" points="627.5,-112.5 627.5,-131.5 710.5,-131.5 710.5,-112.5 627.5,-112.5"/>
<text text-anchor="middle" x="669" y="-119.5" font-family="Helvetica,sans-Serif" font-size="10.00">unordered_map</text>
</g>
<!-- Node2&#45;&gt;Node5 -->
<g id="edge5" class="edge"><title>Node2&#45;&gt;Node5</title>
<path fill="none" stroke="midnightblue" d="M661.486,-168.083C662.679,-160.927 664.394,-150.635 665.885,-141.691"/>
<polygon fill="midnightblue" stroke="midnightblue" points="669.35,-142.19 667.541,-131.751 662.445,-141.04 669.35,-142.19"/>
</g>
<!-- Node6 -->
<g id="node7" class="node"><title>Node6</title>
<polygon fill="white" stroke="#bfbfbf" points="384,-112.5 384,-131.5 424,-131.5 424,-112.5 384,-112.5"/>
<text text-anchor="middle" x="404" y="-119.5" font-family="Helvetica,sans-Serif" font-size="10.00">utility</text>
</g>
<!-- Node2&#45;&gt;Node6 -->
<g id="edge6" class="edge"><title>Node2&#45;&gt;Node6</title>
<path fill="none" stroke="midnightblue" d="M618.807,-169.373C567.227,-159.737 480.831,-143.29 434.095,-132.029"/>
<polygon fill="midnightblue" stroke="midnightblue" points="434.754,-128.586 424.204,-129.568 433.063,-135.379 434.754,-128.586"/>
</g>
<!-- Node2&#45;&gt;Node7 -->
<g id="edge7" class="edge"><title>Node2&#45;&gt;Node7</title>
<path fill="none" stroke="midnightblue" d="M678.685,-168.319C701.372,-156.541 734.871,-134.386 720,-112 703.316,-86.8835 669.582,-75.7545 644.429,-70.8423"/>
<polygon fill="midnightblue" stroke="midnightblue" points="644.697,-67.3372 634.249,-69.0951 643.513,-74.2363 644.697,-67.3372"/>
</g>
<!-- Node8 -->
<g id="node9" class="node"><title>Node8</title>
<polygon fill="white" stroke="#bfbfbf" points="442,-112.5 442,-131.5 556,-131.5 556,-112.5 442,-112.5"/>
<text text-anchor="middle" x="499" y="-119.5" font-family="Helvetica,sans-Serif" font-size="10.00">opencv2/core/core.hpp</text>
</g>
<!-- Node2&#45;&gt;Node8 -->
<g id="edge8" class="edge"><title>Node2&#45;&gt;Node8</title>
<path fill="none" stroke="midnightblue" d="M634.489,-168.444C607.404,-159.359 564.41,-144.939 534.131,-134.783"/>
<polygon fill="midnightblue" stroke="midnightblue" points="534.986,-131.378 524.392,-131.516 532.76,-138.015 534.986,-131.378"/>
</g>
<!-- Node9&#45;&gt;Node3 -->
<g id="edge21" class="edge"><title>Node9&#45;&gt;Node3</title>
<path fill="none" stroke="midnightblue" d="M267.781,-168.324C282.267,-159.822 304.573,-146.729 321.493,-136.797"/>
<polygon fill="midnightblue" stroke="midnightblue" points="323.403,-139.735 330.255,-131.655 319.859,-133.698 323.403,-139.735"/>
</g>
<!-- Node9&#45;&gt;Node7 -->
<g id="edge20" class="edge"><title>Node9&#45;&gt;Node7</title>
<path fill="none" stroke="midnightblue" d="M258.599,-168.079C268.196,-153.63 289.264,-125.38 315,-112 361.064,-88.051 514.79,-74.1904 581.577,-69.169"/>
<polygon fill="midnightblue" stroke="midnightblue" points="582.172,-72.6348 591.889,-68.4123 581.66,-65.6536 582.172,-72.6348"/>
</g>
<!-- Node9&#45;&gt;Node10 -->
<g id="edge10" class="edge"><title>Node9&#45;&gt;Node10</title>
<path fill="none" stroke="midnightblue" d="M227.269,-170.45C186.453,-159.908 110.396,-139.594 100,-132 83.3703,-119.852 71.0411,-99.3951 63.7302,-84.6723"/>
<polygon fill="midnightblue" stroke="midnightblue" points="66.8815,-83.1486 59.4794,-75.5685 60.5389,-86.1102 66.8815,-83.1486"/>
</g>
<!-- Node9&#45;&gt;Node12 -->
<g id="edge22" class="edge"><title>Node9&#45;&gt;Node12</title>
<path fill="none" stroke="midnightblue" d="M227.432,-170.943C195.681,-162.854 144.308,-147.711 133,-132 111.19,-101.698 118.695,-55.1607 125.326,-29.5287"/>
<polygon fill="midnightblue" stroke="midnightblue" points="128.768,-30.2179 128.115,-19.6433 122.031,-28.3174 128.768,-30.2179"/>
</g>
<!-- Node13 -->
<g id="node14" class="node"><title>Node13</title>
<g id="a_node14"><a xlink:href="Mesh_8h.html" target="_top" xlink:title="Mesh.h">
<polygon fill="white" stroke="black" points="142.5,-112.5 142.5,-131.5 191.5,-131.5 191.5,-112.5 142.5,-112.5"/>
<text text-anchor="middle" x="167" y="-119.5" font-family="Helvetica,sans-Serif" font-size="10.00">Mesh.h</text>
</a>
</g>
</g>
<!-- Node9&#45;&gt;Node13 -->
<g id="edge13" class="edge"><title>Node9&#45;&gt;Node13</title>
<path fill="none" stroke="midnightblue" d="M239.183,-168.324C225.767,-159.9 205.176,-146.971 189.414,-137.074"/>
<polygon fill="midnightblue" stroke="midnightblue" points="191.113,-134.008 180.783,-131.655 187.391,-139.936 191.113,-134.008"/>
</g>
<!-- Node9&#45;&gt;Node16 -->
<g id="edge23" class="edge"><title>Node9&#45;&gt;Node16</title>
<path fill="none" stroke="midnightblue" d="M254.647,-168.149C257.669,-154.306 265.378,-127.514 282,-112 301.199,-94.0802 328.112,-83.1702 351.869,-76.5924"/>
<polygon fill="midnightblue" stroke="midnightblue" points="353.014,-79.9121 361.826,-74.0308 351.269,-73.1328 353.014,-79.9121"/>
</g>
<!-- Node10&#45;&gt;Node11 -->
<g id="edge11" class="edge"><title>Node10&#45;&gt;Node11</title>
<path fill="none" stroke="midnightblue" d="M52.6974,-56.083C50.018,-48.8486 46.1514,-38.4087 42.8136,-29.3968"/>
<polygon fill="midnightblue" stroke="midnightblue" points="45.9965,-27.9129 39.2411,-19.7511 39.4322,-30.3442 45.9965,-27.9129"/>
</g>
<!-- Node10&#45;&gt;Node12 -->
<g id="edge12" class="edge"><title>Node10&#45;&gt;Node12</title>
<path fill="none" stroke="midnightblue" d="M68.05,-56.324C79.4631,-48.1066 96.831,-35.6017 110.435,-25.8069"/>
<polygon fill="midnightblue" stroke="midnightblue" points="112.66,-28.5174 118.731,-19.8339 108.57,-22.8366 112.66,-28.5174"/>
</g>
<!-- Node13&#45;&gt;Node7 -->
<g id="edge15" class="edge"><title>Node13&#45;&gt;Node7</title>
<path fill="none" stroke="midnightblue" d="M191.614,-118.02C267.531,-108.828 497.972,-80.9272 581.955,-70.7588"/>
<polygon fill="midnightblue" stroke="midnightblue" points="582.397,-74.231 591.903,-69.5543 581.555,-67.2817 582.397,-74.231"/>
</g>
<!-- Node13&#45;&gt;Node10 -->
<g id="edge14" class="edge"><title>Node13&#45;&gt;Node10</title>
<path fill="none" stroke="midnightblue" d="M149.166,-112.324C131.284,-103.625 103.525,-90.1202 82.9544,-80.113"/>
<polygon fill="midnightblue" stroke="midnightblue" points="84.3133,-76.8819 73.7898,-75.6545 81.251,-83.1765 84.3133,-76.8819"/>
</g>
<!-- Node13&#45;&gt;Node12 -->
<g id="edge16" class="edge"><title>Node13&#45;&gt;Node12</title>
<path fill="none" stroke="midnightblue" d="M191.509,-115.231C231.595,-105.552 307.504,-86.1138 315,-76 320.293,-68.8587 320.488,-62.9922 315,-56 297.502,-33.707 220.163,-21.0345 171.491,-15.1332"/>
<polygon fill="midnightblue" stroke="midnightblue" points="171.613,-11.6238 161.275,-13.9424 170.802,-18.5767 171.613,-11.6238"/>
</g>
<!-- Node14 -->
<g id="node15" class="node"><title>Node14</title>
<polygon fill="white" stroke="#bfbfbf" points="140,-56.5 140,-75.5 214,-75.5 214,-56.5 140,-56.5"/>
<text text-anchor="middle" x="177" y="-63.5" font-family="Helvetica,sans-Serif" font-size="10.00">glm/vec2.hpp</text>
</g>
<!-- Node13&#45;&gt;Node14 -->
<g id="edge17" class="edge"><title>Node13&#45;&gt;Node14</title>
<path fill="none" stroke="midnightblue" d="M168.651,-112.083C169.976,-104.927 171.882,-94.6353 173.539,-85.6911"/>
<polygon fill="midnightblue" stroke="midnightblue" points="177,-86.2212 175.379,-75.7511 170.117,-84.9466 177,-86.2212"/>
</g>
<!-- Node15 -->
<g id="node16" class="node"><title>Node15</title>
<polygon fill="white" stroke="#bfbfbf" points="232,-56.5 232,-75.5 306,-75.5 306,-56.5 232,-56.5"/>
<text text-anchor="middle" x="269" y="-63.5" font-family="Helvetica,sans-Serif" font-size="10.00">glm/vec3.hpp</text>
</g>
<!-- Node13&#45;&gt;Node15 -->
<g id="edge18" class="edge"><title>Node13&#45;&gt;Node15</title>
<path fill="none" stroke="midnightblue" d="M183.388,-112.324C199.671,-103.703 224.867,-90.3643 243.716,-80.3855"/>
<polygon fill="midnightblue" stroke="midnightblue" points="245.452,-83.4267 252.653,-75.6545 242.177,-77.2402 245.452,-83.4267"/>
</g>
<!-- Node13&#45;&gt;Node16 -->
<g id="edge19" class="edge"><title>Node13&#45;&gt;Node16</title>
<path fill="none" stroke="midnightblue" d="M191.754,-115.27C196.482,-114.181 201.394,-113.052 206,-112 257.57,-100.219 316.696,-86.8687 357.011,-77.7896"/>
<polygon fill="midnightblue" stroke="midnightblue" points="357.852,-81.1879 366.839,-75.5769 356.314,-74.3588 357.852,-81.1879"/>
</g>
</g>
</svg>
