<?xml version="1.0" encoding="UTF-8" standalone="no"?>
<!DOCTYPE svg PUBLIC "-//W3C//DTD SVG 1.1//EN"
 "http://www.w3.org/Graphics/SVG/1.1/DTD/svg11.dtd">
<!-- Generated by graphviz version 2.38.0 (20140413.2041)
 -->
<!-- Title: C:/Users/cfantacci/GitHub/superimpose&#45;mesh&#45;lib/src/SuperimposeMesh/include/SuperimposeMesh/SICAD.h Pages: 1 -->
<svg width="1157pt" height="285pt"
 viewBox="0.00 0.00 1156.84 285.00" xmlns="http://www.w3.org/2000/svg" xmlns:xlink="http://www.w3.org/1999/xlink">
<g id="graph0" class="graph" transform="scale(1 1) rotate(0) translate(4 281)">
<title>C:/Users/cfantacci/GitHub/superimpose&#45;mesh&#45;lib/src/SuperimposeMesh/include/SuperimposeMesh/SICAD.h</title>
<polygon fill="white" stroke="none" points="-4,4 -4,-281 1152.84,-281 1152.84,4 -4,4"/>
<!-- Node0 -->
<g id="node1" class="node"><title>Node0</title>
<polygon fill="#bfbfbf" stroke="black" points="763.344,-224.5 763.344,-276.5 938.344,-276.5 938.344,-224.5 763.344,-224.5"/>
<text text-anchor="start" x="771.344" y="-264.5" font-family="Helvetica,sans-Serif" font-size="10.00">C:/Users/cfantacci</text>
<text text-anchor="start" x="771.344" y="-253.5" font-family="Helvetica,sans-Serif" font-size="10.00">/GitHub/superimpose</text>
<text text-anchor="start" x="771.344" y="-242.5" font-family="Helvetica,sans-Serif" font-size="10.00">&#45;mesh&#45;lib/src/SuperimposeMesh</text>
<text text-anchor="middle" x="850.844" y="-231.5" font-family="Helvetica,sans-Serif" font-size="10.00">/include/SuperimposeMesh/SICAD.h</text>
</g>
<!-- Node1 -->
<g id="node2" class="node"><title>Node1</title>
<g id="a_node2"><a xlink:href="Superimpose_8h.html" target="_top" xlink:title="Superimpose.h">
<polygon fill="white" stroke="black" points="195.844,-168.5 195.844,-187.5 277.844,-187.5 277.844,-168.5 195.844,-168.5"/>
<text text-anchor="middle" x="236.844" y="-175.5" font-family="Helvetica,sans-Serif" font-size="10.00">Superimpose.h</text>
</a>
</g>
</g>
<!-- Node0&#45;&gt;Node1 -->
<g id="edge1" class="edge"><title>Node0&#45;&gt;Node1</title>
<path fill="none" stroke="midnightblue" d="M763.199,-239.437C633.011,-224.488 392.656,-196.89 287.892,-184.861"/>
<polygon fill="midnightblue" stroke="midnightblue" points="288.221,-181.376 277.887,-183.713 287.422,-188.33 288.221,-181.376"/>
</g>
<!-- Node2 -->
<g id="node3" class="node"><title>Node2</title>
<polygon fill="white" stroke="#bfbfbf" points="365.344,-112.5 365.344,-131.5 406.344,-131.5 406.344,-112.5 365.344,-112.5"/>
<text text-anchor="middle" x="385.844" y="-119.5" font-family="Helvetica,sans-Serif" font-size="10.00">string</text>
</g>
<!-- Node0&#45;&gt;Node2 -->
<g id="edge24" class="edge"><title>Node0&#45;&gt;Node2</title>
<path fill="none" stroke="midnightblue" d="M763.312,-246.172C653.957,-240.471 474.641,-225.556 420.844,-188 405.115,-177.019 395.814,-156.66 390.802,-141.642"/>
<polygon fill="midnightblue" stroke="midnightblue" points="394.096,-140.44 387.879,-131.861 387.389,-142.445 394.096,-140.44"/>
</g>
<!-- Node6 -->
<g id="node7" class="node"><title>Node6</title>
<polygon fill="white" stroke="#bfbfbf" points="398.844,-56.5 398.844,-75.5 440.844,-75.5 440.844,-56.5 398.844,-56.5"/>
<text text-anchor="middle" x="419.844" y="-63.5" font-family="Helvetica,sans-Serif" font-size="10.00">vector</text>
</g>
<!-- Node0&#45;&gt;Node6 -->
<g id="edge26" class="edge"><title>Node0&#45;&gt;Node6</title>
<path fill="none" stroke="midnightblue" d="M763.056,-240.5C677.664,-230.508 554.977,-212.499 513.844,-188 471.895,-163.014 441.777,-111.654 428.089,-84.5846"/>
<polygon fill="midnightblue" stroke="midnightblue" points="431.19,-82.9564 423.658,-75.505 424.899,-86.0269 431.19,-82.9564"/>
</g>
<!-- Node8 -->
<g id="node9" class="node"><title>Node8</title>
<g id="a_node9"><a xlink:href="Model_8h.html" target="_top" xlink:title="Model.h">
<polygon fill="white" stroke="black" points="523.344,-168.5 523.344,-187.5 574.344,-187.5 574.344,-168.5 523.344,-168.5"/>
<text text-anchor="middle" x="548.844" y="-175.5" font-family="Helvetica,sans-Serif" font-size="10.00">Model.h</text>
</a>
</g>
</g>
<!-- Node0&#45;&gt;Node8 -->
<g id="edge8" class="edge"><title>Node0&#45;&gt;Node8</title>
<path fill="none" stroke="midnightblue" d="M763.088,-229.014C703.595,-215.126 628.115,-197.505 584.467,-187.316"/>
<polygon fill="midnightblue" stroke="midnightblue" points="585.141,-183.879 574.607,-185.014 583.55,-190.696 585.141,-183.879"/>
</g>
<!-- Node9 -->
<g id="node10" class="node"><title>Node9</title>
<g id="a_node10"><a xlink:href="Shader_8h.html" target="_top" xlink:title="Shader.h">
<polygon fill="white" stroke="black" points="822.844,-56.5 822.844,-75.5 878.844,-75.5 878.844,-56.5 822.844,-56.5"/>
<text text-anchor="middle" x="850.844" y="-63.5" font-family="Helvetica,sans-Serif" font-size="10.00">Shader.h</text>
</a>
</g>
</g>
<!-- Node0&#45;&gt;Node9 -->
<g id="edge23" class="edge"><title>Node0&#45;&gt;Node9</title>
<path fill="none" stroke="midnightblue" d="M850.844,-224.124C850.844,-186.977 850.844,-118.642 850.844,-85.7114"/>
<polygon fill="midnightblue" stroke="midnightblue" points="854.344,-85.649 850.844,-75.649 847.344,-85.649 854.344,-85.649"/>
</g>
<!-- Node11 -->
<g id="node12" class="node"><title>Node11</title>
<polygon fill="white" stroke="#bfbfbf" points="661.844,-0.5 661.844,-19.5 721.844,-19.5 721.844,-0.5 661.844,-0.5"/>
<text text-anchor="middle" x="691.844" y="-7.5" font-family="Helvetica,sans-Serif" font-size="10.00">GL/glew.h</text>
</g>
<!-- Node0&#45;&gt;Node11 -->
<g id="edge27" class="edge"><title>Node0&#45;&gt;Node11</title>
<path fill="none" stroke="midnightblue" d="M867.091,-224.2C890.586,-184.079 927.157,-105.361 887.844,-56 868.767,-32.047 783.808,-19.7915 732.211,-14.4493"/>
<polygon fill="midnightblue" stroke="midnightblue" points="732.351,-10.9461 722.054,-13.4421 731.66,-17.912 732.351,-10.9461"/>
</g>
<!-- Node16 -->
<g id="node17" class="node"><title>Node16</title>
<polygon fill="white" stroke="#bfbfbf" points="920.844,-168.5 920.844,-187.5 964.844,-187.5 964.844,-168.5 920.844,-168.5"/>
<text text-anchor="middle" x="942.844" y="-175.5" font-family="Helvetica,sans-Serif" font-size="10.00">thread</text>
</g>
<!-- Node0&#45;&gt;Node16 -->
<g id="edge25" class="edge"><title>Node0&#45;&gt;Node16</title>
<path fill="none" stroke="midnightblue" d="M883.539,-224.446C896.874,-214.227 911.841,-202.758 923.403,-193.898"/>
<polygon fill="midnightblue" stroke="midnightblue" points="925.688,-196.556 931.497,-187.695 921.431,-191 925.688,-196.556"/>
</g>
<!-- Node17 -->
<g id="node18" class="node"><title>Node17</title>
<polygon fill="white" stroke="#bfbfbf" points="982.844,-168.5 982.844,-187.5 1060.84,-187.5 1060.84,-168.5 982.844,-168.5"/>
<text text-anchor="middle" x="1021.84" y="-175.5" font-family="Helvetica,sans-Serif" font-size="10.00">GLFW/glfw3.h</text>
</g>
<!-- Node0&#45;&gt;Node17 -->
<g id="edge28" class="edge"><title>Node0&#45;&gt;Node17</title>
<path fill="none" stroke="midnightblue" d="M911.614,-224.446C938.752,-213.257 969.528,-200.569 991.651,-191.448"/>
<polygon fill="midnightblue" stroke="midnightblue" points="993.251,-194.574 1001.16,-187.527 990.583,-188.103 993.251,-194.574"/>
</g>
<!-- Node18 -->
<g id="node19" class="node"><title>Node18</title>
<polygon fill="white" stroke="#bfbfbf" points="1078.84,-168.5 1078.84,-187.5 1148.84,-187.5 1148.84,-168.5 1078.84,-168.5"/>
<text text-anchor="middle" x="1113.84" y="-175.5" font-family="Helvetica,sans-Serif" font-size="10.00">glm/glm.hpp</text>
</g>
<!-- Node0&#45;&gt;Node18 -->
<g id="edge29" class="edge"><title>Node0&#45;&gt;Node18</title>
<path fill="none" stroke="midnightblue" d="M938.419,-226.025C983.436,-213.957 1036.21,-199.81 1072.03,-190.209"/>
<polygon fill="midnightblue" stroke="midnightblue" points="1073.37,-193.474 1082.12,-187.504 1071.55,-186.713 1073.37,-193.474"/>
</g>
<!-- Node1&#45;&gt;Node2 -->
<g id="edge2" class="edge"><title>Node1&#45;&gt;Node2</title>
<path fill="none" stroke="midnightblue" d="M260.454,-168.444C286.179,-159.12 327.412,-144.177 355.517,-133.991"/>
<polygon fill="midnightblue" stroke="midnightblue" points="357.015,-137.171 365.224,-130.473 354.63,-130.59 357.015,-137.171"/>
</g>
<!-- Node3 -->
<g id="node4" class="node"><title>Node3</title>
<polygon fill="white" stroke="#bfbfbf" points="312.344,-112.5 312.344,-131.5 347.344,-131.5 347.344,-112.5 312.344,-112.5"/>
<text text-anchor="middle" x="329.844" y="-119.5" font-family="Helvetica,sans-Serif" font-size="10.00">map</text>
</g>
<!-- Node1&#45;&gt;Node3 -->
<g id="edge3" class="edge"><title>Node1&#45;&gt;Node3</title>
<path fill="none" stroke="midnightblue" d="M251.786,-168.324C266.429,-159.822 288.978,-146.729 306.082,-136.797"/>
<polygon fill="midnightblue" stroke="midnightblue" points="308.049,-139.703 314.939,-131.655 304.534,-133.649 308.049,-139.703"/>
</g>
<!-- Node4 -->
<g id="node5" class="node"><title>Node4</title>
<polygon fill="white" stroke="#bfbfbf" points="20.3442,-112.5 20.3442,-131.5 103.344,-131.5 103.344,-112.5 20.3442,-112.5"/>
<text text-anchor="middle" x="61.8442" y="-119.5" font-family="Helvetica,sans-Serif" font-size="10.00">unordered_map</text>
</g>
<!-- Node1&#45;&gt;Node4 -->
<g id="edge4" class="edge"><title>Node1&#45;&gt;Node4</title>
<path fill="none" stroke="midnightblue" d="M209.115,-168.444C179.419,-159.28 132.128,-144.688 99.1749,-134.519"/>
<polygon fill="midnightblue" stroke="midnightblue" points="100.031,-131.121 89.4438,-131.516 97.9672,-137.809 100.031,-131.121"/>
</g>
<!-- Node5 -->
<g id="node6" class="node"><title>Node5</title>
<polygon fill="white" stroke="#bfbfbf" points="121.844,-112.5 121.844,-131.5 161.844,-131.5 161.844,-112.5 121.844,-112.5"/>
<text text-anchor="middle" x="141.844" y="-119.5" font-family="Helvetica,sans-Serif" font-size="10.00">utility</text>
</g>
<!-- Node1&#45;&gt;Node5 -->
<g id="edge5" class="edge"><title>Node1&#45;&gt;Node5</title>
<path fill="none" stroke="midnightblue" d="M221.581,-168.324C206.623,-159.822 183.589,-146.729 166.118,-136.797"/>
<polygon fill="midnightblue" stroke="midnightblue" points="167.493,-133.553 157.07,-131.655 164.034,-139.639 167.493,-133.553"/>
</g>
<!-- Node1&#45;&gt;Node6 -->
<g id="edge6" class="edge"><title>Node1&#45;&gt;Node6</title>
<path fill="none" stroke="midnightblue" d="M195.717,-177.786C117.063,-177.988 -42.3507,-171.369 10.8442,-112 35.9784,-83.9488 297.285,-71.5752 388.575,-68.086"/>
<polygon fill="midnightblue" stroke="midnightblue" points="388.731,-71.5827 398.594,-67.7129 388.47,-64.5876 388.731,-71.5827"/>
</g>
<!-- Node7 -->
<g id="node8" class="node"><title>Node7</title>
<polygon fill="white" stroke="#bfbfbf" points="179.844,-112.5 179.844,-131.5 293.844,-131.5 293.844,-112.5 179.844,-112.5"/>
<text text-anchor="middle" x="236.844" y="-119.5" font-family="Helvetica,sans-Serif" font-size="10.00">opencv2/core/core.hpp</text>
</g>
<!-- Node1&#45;&gt;Node7 -->
<g id="edge7" class="edge"><title>Node1&#45;&gt;Node7</title>
<path fill="none" stroke="midnightblue" d="M236.844,-168.083C236.844,-161.006 236.844,-150.861 236.844,-141.986"/>
<polygon fill="midnightblue" stroke="midnightblue" points="240.344,-141.751 236.844,-131.751 233.344,-141.751 240.344,-141.751"/>
</g>
<!-- Node8&#45;&gt;Node2 -->
<g id="edge20" class="edge"><title>Node8&#45;&gt;Node2</title>
<path fill="none" stroke="midnightblue" d="M523.016,-168.444C493.982,-158.825 446.89,-143.224 416.142,-133.037"/>
<polygon fill="midnightblue" stroke="midnightblue" points="416.984,-129.629 406.39,-129.807 414.782,-136.274 416.984,-129.629"/>
</g>
<!-- Node8&#45;&gt;Node6 -->
<g id="edge19" class="edge"><title>Node8&#45;&gt;Node6</title>
<path fill="none" stroke="midnightblue" d="M538.722,-168.368C516.868,-149.733 465.032,-105.532 437.592,-82.1338"/>
<polygon fill="midnightblue" stroke="midnightblue" points="439.8,-79.4167 429.92,-75.5914 435.258,-84.7431 439.8,-79.4167"/>
</g>
<!-- Node8&#45;&gt;Node9 -->
<g id="edge9" class="edge"><title>Node8&#45;&gt;Node9</title>
<path fill="none" stroke="midnightblue" d="M572.542,-168.368C626.019,-148.89 756.184,-101.479 817.654,-79.089"/>
<polygon fill="midnightblue" stroke="midnightblue" points="819.059,-82.3026 827.257,-75.5914 816.663,-75.7253 819.059,-82.3026"/>
</g>
<!-- Node8&#45;&gt;Node11 -->
<g id="edge21" class="edge"><title>Node8&#45;&gt;Node11</title>
<path fill="none" stroke="midnightblue" d="M541.874,-168.2C522.848,-143.686 472.446,-75.1646 487.844,-56 507.969,-30.9519 597.963,-19.0198 651.467,-14.047"/>
<polygon fill="midnightblue" stroke="midnightblue" points="651.998,-17.5137 661.65,-13.1434 651.379,-10.5411 651.998,-17.5137"/>
</g>
<!-- Node12 -->
<g id="node13" class="node"><title>Node12</title>
<g id="a_node13"><a xlink:href="Mesh_8h.html" target="_top" xlink:title="Mesh.h">
<polygon fill="white" stroke="black" points="586.344,-112.5 586.344,-131.5 635.344,-131.5 635.344,-112.5 586.344,-112.5"/>
<text text-anchor="middle" x="610.844" y="-119.5" font-family="Helvetica,sans-Serif" font-size="10.00">Mesh.h</text>
</a>
</g>
</g>
<!-- Node8&#45;&gt;Node12 -->
<g id="edge12" class="edge"><title>Node8&#45;&gt;Node12</title>
<path fill="none" stroke="midnightblue" d="M558.806,-168.324C567.971,-160.341 581.781,-148.313 592.872,-138.653"/>
<polygon fill="midnightblue" stroke="midnightblue" points="595.46,-141.041 600.702,-131.834 590.862,-135.762 595.46,-141.041"/>
</g>
<!-- Node15 -->
<g id="node16" class="node"><title>Node15</title>
<polygon fill="white" stroke="#bfbfbf" points="496.844,-56.5 496.844,-75.5 582.844,-75.5 582.844,-56.5 496.844,-56.5"/>
<text text-anchor="middle" x="539.844" y="-63.5" font-family="Helvetica,sans-Serif" font-size="10.00">assimp/scene.h</text>
</g>
<!-- Node8&#45;&gt;Node15 -->
<g id="edge22" class="edge"><title>Node8&#45;&gt;Node15</title>
<path fill="none" stroke="midnightblue" d="M548.138,-168.368C546.686,-150.617 543.335,-109.666 541.366,-85.5974"/>
<polygon fill="midnightblue" stroke="midnightblue" points="544.851,-85.2727 540.547,-75.5914 537.874,-85.8436 544.851,-85.2727"/>
</g>
<!-- Node10 -->
<g id="node11" class="node"><title>Node10</title>
<polygon fill="white" stroke="#bfbfbf" points="821.344,-0.5 821.344,-19.5 880.344,-19.5 880.344,-0.5 821.344,-0.5"/>
<text text-anchor="middle" x="850.844" y="-7.5" font-family="Helvetica,sans-Serif" font-size="10.00">exception</text>
</g>
<!-- Node9&#45;&gt;Node10 -->
<g id="edge10" class="edge"><title>Node9&#45;&gt;Node10</title>
<path fill="none" stroke="midnightblue" d="M850.844,-56.083C850.844,-49.0059 850.844,-38.8611 850.844,-29.9865"/>
<polygon fill="midnightblue" stroke="midnightblue" points="854.344,-29.751 850.844,-19.7511 847.344,-29.7511 854.344,-29.751"/>
</g>
<!-- Node9&#45;&gt;Node11 -->
<g id="edge11" class="edge"><title>Node9&#45;&gt;Node11</title>
<path fill="none" stroke="midnightblue" d="M825.65,-56.4435C798.902,-47.3591 756.442,-32.9388 726.539,-22.7831"/>
<polygon fill="midnightblue" stroke="midnightblue" points="727.515,-19.4182 716.92,-19.5164 725.264,-26.0464 727.515,-19.4182"/>
</g>
<!-- Node12&#45;&gt;Node6 -->
<g id="edge14" class="edge"><title>Node12&#45;&gt;Node6</title>
<path fill="none" stroke="midnightblue" d="M586.265,-114.051C551.73,-104.287 488.845,-86.5082 451.049,-75.8223"/>
<polygon fill="midnightblue" stroke="midnightblue" points="451.673,-72.3617 441.098,-73.009 449.769,-79.0977 451.673,-72.3617"/>
</g>
<!-- Node12&#45;&gt;Node9 -->
<g id="edge13" class="edge"><title>Node12&#45;&gt;Node9</title>
<path fill="none" stroke="midnightblue" d="M635.568,-115.69C672.111,-107.805 742.937,-92.3826 812.738,-76.2232"/>
<polygon fill="midnightblue" stroke="midnightblue" points="813.627,-79.6099 822.577,-73.9389 812.044,-72.7913 813.627,-79.6099"/>
</g>
<!-- Node12&#45;&gt;Node11 -->
<g id="edge15" class="edge"><title>Node12&#45;&gt;Node11</title>
<path fill="none" stroke="midnightblue" d="M611.6,-112.231C613.117,-98.9665 617.522,-73.4934 629.844,-56 639.028,-42.9629 653.209,-32.2668 665.692,-24.5785"/>
<polygon fill="midnightblue" stroke="midnightblue" points="667.502,-27.575 674.386,-19.5215 663.982,-21.5242 667.502,-27.575"/>
</g>
<!-- Node13 -->
<g id="node14" class="node"><title>Node13</title>
<polygon fill="white" stroke="#bfbfbf" points="638.844,-56.5 638.844,-75.5 712.844,-75.5 712.844,-56.5 638.844,-56.5"/>
<text text-anchor="middle" x="675.844" y="-63.5" font-family="Helvetica,sans-Serif" font-size="10.00">glm/vec2.hpp</text>
</g>
<!-- Node12&#45;&gt;Node13 -->
<g id="edge16" class="edge"><title>Node12&#45;&gt;Node13</title>
<path fill="none" stroke="midnightblue" d="M621.288,-112.324C630.99,-104.263 645.66,-92.0765 657.344,-82.3695"/>
<polygon fill="midnightblue" stroke="midnightblue" points="659.755,-84.9163 665.211,-75.8339 655.282,-79.532 659.755,-84.9163"/>
</g>
<!-- Node14 -->
<g id="node15" class="node"><title>Node14</title>
<polygon fill="white" stroke="#bfbfbf" points="730.844,-56.5 730.844,-75.5 804.844,-75.5 804.844,-56.5 730.844,-56.5"/>
<text text-anchor="middle" x="767.844" y="-63.5" font-family="Helvetica,sans-Serif" font-size="10.00">glm/vec3.hpp</text>
</g>
<!-- Node12&#45;&gt;Node14 -->
<g id="edge17" class="edge"><title>Node12&#45;&gt;Node14</title>
<path fill="none" stroke="midnightblue" d="M635.375,-112.563C661.72,-103.501 703.782,-89.0342 733.429,-78.837"/>
<polygon fill="midnightblue" stroke="midnightblue" points="734.649,-82.1187 742.967,-75.5565 732.372,-75.4993 734.649,-82.1187"/>
</g>
<!-- Node12&#45;&gt;Node15 -->
<g id="edge18" class="edge"><title>Node12&#45;&gt;Node15</title>
<path fill="none" stroke="midnightblue" d="M599.437,-112.324C588.735,-104.185 572.504,-91.8395 559.681,-82.0874"/>
<polygon fill="midnightblue" stroke="midnightblue" points="561.537,-79.1018 551.459,-75.8339 557.3,-84.6734 561.537,-79.1018"/>
</g>
</g>
</svg>
