<?xml version="1.0" encoding="UTF-8" standalone="no"?>
<!DOCTYPE svg PUBLIC "-//W3C//DTD SVG 1.1//EN"
 "http://www.w3.org/Graphics/SVG/1.1/DTD/svg11.dtd">
<!-- Generated by graphviz version 2.38.0 (20140413.2041)
 -->
<!-- Title: C:/Users/cfantacci/GitHub/superimpose&#45;mesh&#45;lib/src/SuperimposeMesh/src/SISkeleton.cpp Pages: 1 -->
<svg width="1077pt" height="229pt"
 viewBox="0.00 0.00 1076.50 229.00" xmlns="http://www.w3.org/2000/svg" xmlns:xlink="http://www.w3.org/1999/xlink">
<g id="graph0" class="graph" transform="scale(1 1) rotate(0) translate(4 225)">
<title>C:/Users/cfantacci/GitHub/superimpose&#45;mesh&#45;lib/src/SuperimposeMesh/src/SISkeleton.cpp</title>
<polygon fill="white" stroke="none" points="-4,4 -4,-225 1072.5,-225 1072.5,4 -4,4"/>
<!-- Node0 -->
<g id="node1" class="node"><title>Node0</title>
<polygon fill="#bfbfbf" stroke="black" points="474,-168.5 474,-220.5 631,-220.5 631,-168.5 474,-168.5"/>
<text text-anchor="start" x="482" y="-208.5" font-family="Helvetica,sans-Serif" font-size="10.00">C:/Users/cfantacci</text>
<text text-anchor="start" x="482" y="-197.5" font-family="Helvetica,sans-Serif" font-size="10.00">/GitHub/superimpose</text>
<text text-anchor="start" x="482" y="-186.5" font-family="Helvetica,sans-Serif" font-size="10.00">&#45;mesh&#45;lib/src/SuperimposeMesh</text>
<text text-anchor="middle" x="552.5" y="-175.5" font-family="Helvetica,sans-Serif" font-size="10.00">/src/SISkeleton.cpp</text>
</g>
<!-- Node1 -->
<g id="node2" class="node"><title>Node1</title>
<g id="a_node2"><a xlink:href="SISkeleton_8h.html" target="_top" xlink:title="SuperimposeMesh/SISkeleton.h">
<polygon fill="white" stroke="black" points="156.5,-112.5 156.5,-131.5 312.5,-131.5 312.5,-112.5 156.5,-112.5"/>
<text text-anchor="middle" x="234.5" y="-119.5" font-family="Helvetica,sans-Serif" font-size="10.00">SuperimposeMesh/SISkeleton.h</text>
</a>
</g>
</g>
<!-- Node0&#45;&gt;Node1 -->
<g id="edge1" class="edge"><title>Node0&#45;&gt;Node1</title>
<path fill="none" stroke="midnightblue" d="M473.893,-176.073C414.185,-162.836 333.952,-145.048 283.225,-133.802"/>
<polygon fill="midnightblue" stroke="midnightblue" points="283.698,-130.322 273.178,-131.575 282.183,-137.156 283.698,-130.322"/>
</g>
<!-- Node8 -->
<g id="node9" class="node"><title>Node8</title>
<polygon fill="white" stroke="#bfbfbf" points="331.5,-0.5 331.5,-19.5 445.5,-19.5 445.5,-0.5 331.5,-0.5"/>
<text text-anchor="middle" x="388.5" y="-7.5" font-family="Helvetica,sans-Serif" font-size="10.00">opencv2/core/core.hpp</text>
</g>
<!-- Node0&#45;&gt;Node8 -->
<g id="edge15" class="edge"><title>Node0&#45;&gt;Node8</title>
<path fill="none" stroke="midnightblue" d="M473.931,-179.595C446.13,-170.657 417.357,-156.002 399.5,-132 377.126,-101.926 380.514,-55.3003 384.679,-29.5928"/>
<polygon fill="midnightblue" stroke="midnightblue" points="388.136,-30.1431 386.498,-19.6757 381.251,-28.8801 388.136,-30.1431"/>
</g>
<!-- Node11 -->
<g id="node12" class="node"><title>Node11</title>
<polygon fill="white" stroke="#bfbfbf" points="408.5,-112.5 408.5,-131.5 462.5,-131.5 462.5,-112.5 408.5,-112.5"/>
<text text-anchor="middle" x="435.5" y="-119.5" font-family="Helvetica,sans-Serif" font-size="10.00">iostream</text>
</g>
<!-- Node0&#45;&gt;Node11 -->
<g id="edge12" class="edge"><title>Node0&#45;&gt;Node11</title>
<path fill="none" stroke="midnightblue" d="M510.921,-168.446C493.189,-157.761 473.187,-145.709 458.24,-136.702"/>
<polygon fill="midnightblue" stroke="midnightblue" points="460.023,-133.69 449.651,-131.527 456.41,-139.686 460.023,-133.69"/>
</g>
<!-- Node12 -->
<g id="node13" class="node"><title>Node12</title>
<polygon fill="white" stroke="#bfbfbf" points="481,-112.5 481,-131.5 624,-131.5 624,-112.5 481,-112.5"/>
<text text-anchor="middle" x="552.5" y="-119.5" font-family="Helvetica,sans-Serif" font-size="10.00">glm/gtc/matrix_transform.hpp</text>
</g>
<!-- Node0&#45;&gt;Node12 -->
<g id="edge13" class="edge"><title>Node0&#45;&gt;Node12</title>
<path fill="none" stroke="midnightblue" d="M552.5,-168.446C552.5,-159.73 552.5,-150.104 552.5,-141.964"/>
<polygon fill="midnightblue" stroke="midnightblue" points="556,-141.695 552.5,-131.695 549,-141.696 556,-141.695"/>
</g>
<!-- Node13 -->
<g id="node14" class="node"><title>Node13</title>
<polygon fill="white" stroke="#bfbfbf" points="642.5,-112.5 642.5,-131.5 748.5,-131.5 748.5,-112.5 642.5,-112.5"/>
<text text-anchor="middle" x="695.5" y="-119.5" font-family="Helvetica,sans-Serif" font-size="10.00">glm/gtc/type_ptr.hpp</text>
</g>
<!-- Node0&#45;&gt;Node13 -->
<g id="edge14" class="edge"><title>Node0&#45;&gt;Node13</title>
<path fill="none" stroke="midnightblue" d="M603.319,-168.446C625.503,-157.509 650.593,-145.14 668.989,-136.07"/>
<polygon fill="midnightblue" stroke="midnightblue" points="670.783,-139.088 678.204,-131.527 667.687,-132.81 670.783,-139.088"/>
</g>
<!-- Node14 -->
<g id="node15" class="node"><title>Node14</title>
<polygon fill="white" stroke="#bfbfbf" points="766.5,-112.5 766.5,-131.5 912.5,-131.5 912.5,-112.5 766.5,-112.5"/>
<text text-anchor="middle" x="839.5" y="-119.5" font-family="Helvetica,sans-Serif" font-size="10.00">opencv2/imgproc/imgproc.hpp</text>
</g>
<!-- Node0&#45;&gt;Node14 -->
<g id="edge16" class="edge"><title>Node0&#45;&gt;Node14</title>
<path fill="none" stroke="midnightblue" d="M631.304,-174.142C683.955,-161.209 751.303,-144.665 794.914,-133.952"/>
<polygon fill="midnightblue" stroke="midnightblue" points="795.778,-137.344 804.654,-131.56 794.108,-130.546 795.778,-137.344"/>
</g>
<!-- Node15 -->
<g id="node16" class="node"><title>Node15</title>
<polygon fill="white" stroke="#bfbfbf" points="930.5,-112.5 930.5,-131.5 1068.5,-131.5 1068.5,-112.5 930.5,-112.5"/>
<text text-anchor="middle" x="999.5" y="-119.5" font-family="Helvetica,sans-Serif" font-size="10.00">opencv2/calib3d/calib3d.hpp</text>
</g>
<!-- Node0&#45;&gt;Node15 -->
<g id="edge17" class="edge"><title>Node0&#45;&gt;Node15</title>
<path fill="none" stroke="midnightblue" d="M631.129,-181.099C717.734,-167.44 855.334,-145.738 935.577,-133.082"/>
<polygon fill="midnightblue" stroke="midnightblue" points="936.217,-136.524 945.549,-131.509 935.126,-129.61 936.217,-136.524"/>
</g>
<!-- Node2 -->
<g id="node3" class="node"><title>Node2</title>
<g id="a_node3"><a xlink:href="Superimpose_8h.html" target="_top" xlink:title="Superimpose.h">
<polygon fill="white" stroke="black" points="119.5,-56.5 119.5,-75.5 201.5,-75.5 201.5,-56.5 119.5,-56.5"/>
<text text-anchor="middle" x="160.5" y="-63.5" font-family="Helvetica,sans-Serif" font-size="10.00">Superimpose.h</text>
</a>
</g>
</g>
<!-- Node1&#45;&gt;Node2 -->
<g id="edge2" class="edge"><title>Node1&#45;&gt;Node2</title>
<path fill="none" stroke="midnightblue" d="M222.611,-112.324C211.35,-104.107 194.213,-91.6017 180.791,-81.8069"/>
<polygon fill="midnightblue" stroke="midnightblue" points="182.747,-78.9014 172.606,-75.8339 178.62,-84.5559 182.747,-78.9014"/>
</g>
<!-- Node3 -->
<g id="node4" class="node"><title>Node3</title>
<polygon fill="white" stroke="#bfbfbf" points="0,-0.5 0,-19.5 41,-19.5 41,-0.5 0,-0.5"/>
<text text-anchor="middle" x="20.5" y="-7.5" font-family="Helvetica,sans-Serif" font-size="10.00">string</text>
</g>
<!-- Node1&#45;&gt;Node3 -->
<g id="edge10" class="edge"><title>Node1&#45;&gt;Node3</title>
<path fill="none" stroke="midnightblue" d="M203.686,-112.432C177.966,-104.673 140.76,-92.0166 110.5,-76 83.8084,-61.8724 56.0749,-40.6885 38.5741,-26.3785"/>
<polygon fill="midnightblue" stroke="midnightblue" points="40.3421,-23.2969 30.4148,-19.5957 35.8673,-28.6798 40.3421,-23.2969"/>
</g>
<!-- Node9 -->
<g id="node10" class="node"><title>Node9</title>
<polygon fill="white" stroke="#bfbfbf" points="220,-56.5 220,-75.5 249,-75.5 249,-56.5 220,-56.5"/>
<text text-anchor="middle" x="234.5" y="-63.5" font-family="Helvetica,sans-Serif" font-size="10.00">list</text>
</g>
<!-- Node1&#45;&gt;Node9 -->
<g id="edge9" class="edge"><title>Node1&#45;&gt;Node9</title>
<path fill="none" stroke="midnightblue" d="M234.5,-112.083C234.5,-105.006 234.5,-94.8611 234.5,-85.9865"/>
<polygon fill="midnightblue" stroke="midnightblue" points="238,-85.751 234.5,-75.7511 231,-85.7511 238,-85.751"/>
</g>
<!-- Node10 -->
<g id="node11" class="node"><title>Node10</title>
<polygon fill="white" stroke="#bfbfbf" points="267.5,-56.5 267.5,-75.5 337.5,-75.5 337.5,-56.5 267.5,-56.5"/>
<text text-anchor="middle" x="302.5" y="-63.5" font-family="Helvetica,sans-Serif" font-size="10.00">glm/glm.hpp</text>
</g>
<!-- Node1&#45;&gt;Node10 -->
<g id="edge11" class="edge"><title>Node1&#45;&gt;Node10</title>
<path fill="none" stroke="midnightblue" d="M245.425,-112.324C255.675,-104.185 271.221,-91.8395 283.501,-82.0874"/>
<polygon fill="midnightblue" stroke="midnightblue" points="285.721,-84.7937 291.376,-75.8339 281.368,-79.3119 285.721,-84.7937"/>
</g>
<!-- Node2&#45;&gt;Node3 -->
<g id="edge3" class="edge"><title>Node2&#45;&gt;Node3</title>
<path fill="none" stroke="midnightblue" d="M138.317,-56.4435C114.661,-47.3194 77.051,-32.8125 50.7041,-22.6501"/>
<polygon fill="midnightblue" stroke="midnightblue" points="51.8,-19.3216 41.2104,-18.9883 49.2809,-25.8526 51.8,-19.3216"/>
</g>
<!-- Node4 -->
<g id="node5" class="node"><title>Node4</title>
<polygon fill="white" stroke="#bfbfbf" points="59,-0.5 59,-19.5 94,-19.5 94,-0.5 59,-0.5"/>
<text text-anchor="middle" x="76.5" y="-7.5" font-family="Helvetica,sans-Serif" font-size="10.00">map</text>
</g>
<!-- Node2&#45;&gt;Node4 -->
<g id="edge4" class="edge"><title>Node2&#45;&gt;Node4</title>
<path fill="none" stroke="midnightblue" d="M147.004,-56.324C133.9,-47.9002 113.788,-34.9709 98.3931,-25.0741"/>
<polygon fill="midnightblue" stroke="midnightblue" points="100.267,-22.118 89.9626,-19.6545 96.4817,-28.0063 100.267,-22.118"/>
</g>
<!-- Node5 -->
<g id="node6" class="node"><title>Node5</title>
<polygon fill="white" stroke="#bfbfbf" points="112,-0.5 112,-19.5 195,-19.5 195,-0.5 112,-0.5"/>
<text text-anchor="middle" x="153.5" y="-7.5" font-family="Helvetica,sans-Serif" font-size="10.00">unordered_map</text>
</g>
<!-- Node2&#45;&gt;Node5 -->
<g id="edge5" class="edge"><title>Node2&#45;&gt;Node5</title>
<path fill="none" stroke="midnightblue" d="M159.344,-56.083C158.416,-48.9272 157.082,-38.6353 155.923,-29.6911"/>
<polygon fill="midnightblue" stroke="midnightblue" points="159.391,-29.2181 154.634,-19.7511 152.449,-30.1181 159.391,-29.2181"/>
</g>
<!-- Node6 -->
<g id="node7" class="node"><title>Node6</title>
<polygon fill="white" stroke="#bfbfbf" points="213.5,-0.5 213.5,-19.5 253.5,-19.5 253.5,-0.5 213.5,-0.5"/>
<text text-anchor="middle" x="233.5" y="-7.5" font-family="Helvetica,sans-Serif" font-size="10.00">utility</text>
</g>
<!-- Node2&#45;&gt;Node6 -->
<g id="edge6" class="edge"><title>Node2&#45;&gt;Node6</title>
<path fill="none" stroke="midnightblue" d="M172.229,-56.324C183.337,-48.1066 200.242,-35.6017 213.483,-25.8069"/>
<polygon fill="midnightblue" stroke="midnightblue" points="215.6,-28.5948 221.558,-19.8339 211.437,-22.9671 215.6,-28.5948"/>
</g>
<!-- Node7 -->
<g id="node8" class="node"><title>Node7</title>
<polygon fill="white" stroke="#bfbfbf" points="271.5,-0.5 271.5,-19.5 313.5,-19.5 313.5,-0.5 271.5,-0.5"/>
<text text-anchor="middle" x="292.5" y="-7.5" font-family="Helvetica,sans-Serif" font-size="10.00">vector</text>
</g>
<!-- Node2&#45;&gt;Node7 -->
<g id="edge7" class="edge"><title>Node2&#45;&gt;Node7</title>
<path fill="none" stroke="midnightblue" d="M181.416,-56.4435C203.236,-47.5171 237.65,-33.4387 262.392,-23.3168"/>
<polygon fill="midnightblue" stroke="midnightblue" points="263.752,-26.5422 271.682,-19.5164 261.101,-20.0634 263.752,-26.5422"/>
</g>
<!-- Node2&#45;&gt;Node8 -->
<g id="edge8" class="edge"><title>Node2&#45;&gt;Node8</title>
<path fill="none" stroke="midnightblue" d="M196.627,-56.4435C236.151,-47.0826 299.597,-32.0561 342.613,-21.868"/>
<polygon fill="midnightblue" stroke="midnightblue" points="343.618,-25.2269 352.542,-19.5164 342.004,-18.4154 343.618,-25.2269"/>
</g>
</g>
</svg>
