<?xml version="1.0" encoding="UTF-8" standalone="no"?>
<!DOCTYPE svg PUBLIC "-//W3C//DTD SVG 1.1//EN"
 "http://www.w3.org/Graphics/SVG/1.1/DTD/svg11.dtd">
<!-- Generated by graphviz version 2.38.0 (20140413.2041)
 -->
<!-- Title: main Pages: 1 -->
<svg width="558pt" height="306pt"
 viewBox="0.00 0.00 558.00 306.00" xmlns="http://www.w3.org/2000/svg" xmlns:xlink="http://www.w3.org/1999/xlink">
<g id="graph0" class="graph" transform="scale(1 1) rotate(0) translate(4 302)">
<title>main</title>
<polygon fill="white" stroke="none" points="-4,4 -4,-302 554,-302 554,4 -4,4"/>
<!-- Node0 -->
<g id="node1" class="node"><title>Node0</title>
<polygon fill="#bfbfbf" stroke="black" points="0,-164.5 0,-183.5 38,-183.5 38,-164.5 0,-164.5"/>
<text text-anchor="middle" x="19" y="-171.5" font-family="Helvetica,sans-Serif" font-size="10.00">main</text>
</g>
<!-- Node1 -->
<g id="node2" class="node"><title>Node1</title>
<g id="a_node2"><a xlink:href="classSICAD.html#a07921943ad3d4016dcbe76135e799754" target="_top" xlink:title="SICAD::setBackgroundOpt">
<polygon fill="white" stroke="black" points="74,-183.5 74,-202.5 207,-202.5 207,-183.5 74,-183.5"/>
<text text-anchor="middle" x="140.5" y="-190.5" font-family="Helvetica,sans-Serif" font-size="10.00">SICAD::setBackgroundOpt</text>
</a>
</g>
</g>
<!-- Node0&#45;&gt;Node1 -->
<g id="edge1" class="edge"><title>Node0&#45;&gt;Node1</title>
<path fill="none" stroke="midnightblue" d="M38.1495,-176.886C46.9232,-178.281 58.0726,-180.053 69.7464,-181.909"/>
<polygon fill="midnightblue" stroke="midnightblue" points="69.2096,-185.368 79.6351,-183.482 70.3088,-178.455 69.2096,-185.368"/>
</g>
<!-- Node2 -->
<g id="node3" class="node"><title>Node2</title>
<g id="a_node3"><a xlink:href="classSICAD.html#a356e0ac8a0f130952a72326bedd4ab60" target="_top" xlink:title="Superimpose one of the mesh models loaded during SICAD object construction in a given pose from a par...">
<polygon fill="white" stroke="black" points="87,-145.5 87,-164.5 194,-164.5 194,-145.5 87,-145.5"/>
<text text-anchor="middle" x="140.5" y="-152.5" font-family="Helvetica,sans-Serif" font-size="10.00">SICAD::superimpose</text>
</a>
</g>
</g>
<!-- Node0&#45;&gt;Node2 -->
<g id="edge2" class="edge"><title>Node0&#45;&gt;Node2</title>
<path fill="none" stroke="midnightblue" d="M38.1495,-171.114C48.6049,-169.452 62.4343,-167.253 76.5043,-165.016"/>
<polygon fill="midnightblue" stroke="midnightblue" points="77.4209,-168.414 86.7472,-163.387 76.3217,-161.501 77.4209,-168.414"/>
</g>
<!-- Node3 -->
<g id="node4" class="node"><title>Node3</title>
<g id="a_node4"><a xlink:href="classSICAD.html#a170bd325654aed9eb81062ac610608fa" target="_top" xlink:title="SICAD::getBackgroundOpt">
<polygon fill="white" stroke="black" points="251.5,-278.5 251.5,-297.5 384.5,-297.5 384.5,-278.5 251.5,-278.5"/>
<text text-anchor="middle" x="318" y="-285.5" font-family="Helvetica,sans-Serif" font-size="10.00">SICAD::getBackgroundOpt</text>
</a>
</g>
</g>
<!-- Node2&#45;&gt;Node3 -->
<g id="edge3" class="edge"><title>Node2&#45;&gt;Node3</title>
<path fill="none" stroke="midnightblue" d="M192.288,-164.536C197.648,-167.003 202.701,-170.104 207,-174 238.921,-202.932 211.535,-234.573 243,-264 247.36,-268.078 252.421,-271.463 257.81,-274.273"/>
<polygon fill="midnightblue" stroke="midnightblue" points="256.571,-277.554 267.125,-278.48 259.452,-271.174 256.571,-277.554"/>
</g>
<!-- Node4 -->
<g id="node5" class="node"><title>Node4</title>
<g id="a_node5"><a xlink:href="classSICAD.html#a25b180f54f2e93d69b291cc225600c8e" target="_top" xlink:title="SICAD::setBackground">
<polygon fill="white" stroke="black" points="259.5,-202.5 259.5,-221.5 376.5,-221.5 376.5,-202.5 259.5,-202.5"/>
<text text-anchor="middle" x="318" y="-209.5" font-family="Helvetica,sans-Serif" font-size="10.00">SICAD::setBackground</text>
</a>
</g>
</g>
<!-- Node2&#45;&gt;Node4 -->
<g id="edge4" class="edge"><title>Node2&#45;&gt;Node4</title>
<path fill="none" stroke="midnightblue" d="M176.691,-164.587C186.554,-167.442 197.244,-170.695 207,-174 223.26,-179.508 226.828,-182.238 243,-188 253.812,-191.852 265.601,-195.792 276.526,-199.336"/>
<polygon fill="midnightblue" stroke="midnightblue" points="275.673,-202.738 286.264,-202.466 277.815,-196.074 275.673,-202.738"/>
</g>
<!-- Node6 -->
<g id="node7" class="node"><title>Node6</title>
<g id="a_node7"><a xlink:href="classShader.html#a8e53260be208ebf6c804a0d309e74097" target="_top" xlink:title="Shader::install">
<polygon fill="white" stroke="black" points="450,-240.5 450,-259.5 529,-259.5 529,-240.5 450,-240.5"/>
<text text-anchor="middle" x="489.5" y="-247.5" font-family="Helvetica,sans-Serif" font-size="10.00">Shader::install</text>
</a>
</g>
</g>
<!-- Node2&#45;&gt;Node6 -->
<g id="edge11" class="edge"><title>Node2&#45;&gt;Node6</title>
<path fill="none" stroke="midnightblue" d="M189.604,-164.506C195.804,-166.976 201.796,-170.085 207,-174 230.945,-192.011 217.337,-215.534 243,-231 303.07,-267.201 386.976,-264.805 439.495,-258.416"/>
<polygon fill="midnightblue" stroke="midnightblue" points="440.104,-261.866 449.564,-257.095 439.194,-254.925 440.104,-261.866"/>
</g>
<!-- Node7 -->
<g id="node8" class="node"><title>Node7</title>
<g id="a_node8"><a xlink:href="classShader.html#afa6fb33b37c9385cf62a836092da570b" target="_top" xlink:title="Shader::uninstall">
<polygon fill="white" stroke="black" points="445,-164.5 445,-183.5 534,-183.5 534,-164.5 445,-164.5"/>
<text text-anchor="middle" x="489.5" y="-171.5" font-family="Helvetica,sans-Serif" font-size="10.00">Shader::uninstall</text>
</a>
</g>
</g>
<!-- Node2&#45;&gt;Node7 -->
<g id="edge12" class="edge"><title>Node2&#45;&gt;Node7</title>
<path fill="none" stroke="midnightblue" d="M194.202,-157.886C259.26,-161.448 369.303,-167.473 434.812,-171.06"/>
<polygon fill="midnightblue" stroke="midnightblue" points="434.753,-174.562 444.93,-171.614 435.136,-167.573 434.753,-174.562"/>
</g>
<!-- Node8 -->
<g id="node9" class="node"><title>Node8</title>
<g id="a_node9"><a xlink:href="classSICAD.html#ae7af7aba5d81b9f1cc3e273a55811a70" target="_top" xlink:title="SICAD::setWireframe">
<polygon fill="white" stroke="black" points="263,-126.5 263,-145.5 373,-145.5 373,-126.5 263,-126.5"/>
<text text-anchor="middle" x="318" y="-133.5" font-family="Helvetica,sans-Serif" font-size="10.00">SICAD::setWireframe</text>
</a>
</g>
</g>
<!-- Node2&#45;&gt;Node8 -->
<g id="edge8" class="edge"><title>Node2&#45;&gt;Node8</title>
<path fill="none" stroke="midnightblue" d="M194.156,-149.299C212.556,-147.307 233.422,-145.048 252.666,-142.965"/>
<polygon fill="midnightblue" stroke="midnightblue" points="253.297,-146.417 262.862,-141.861 252.543,-139.458 253.297,-146.417"/>
</g>
<!-- Node9 -->
<g id="node10" class="node"><title>Node9</title>
<g id="a_node10"><a xlink:href="classSICAD.html#af65b5ad73e2c0e872face157b56bd68b" target="_top" xlink:title="SICAD::getWireframeOpt">
<polygon fill="white" stroke="black" points="255.5,-88.5 255.5,-107.5 380.5,-107.5 380.5,-88.5 255.5,-88.5"/>
<text text-anchor="middle" x="318" y="-95.5" font-family="Helvetica,sans-Serif" font-size="10.00">SICAD::getWireframeOpt</text>
</a>
</g>
</g>
<!-- Node2&#45;&gt;Node9 -->
<g id="edge9" class="edge"><title>Node2&#45;&gt;Node9</title>
<path fill="none" stroke="midnightblue" d="M165.04,-145.369C185.454,-137.215 215.897,-125.526 243,-117 250.562,-114.621 258.626,-112.317 266.546,-110.184"/>
<polygon fill="midnightblue" stroke="midnightblue" points="267.672,-113.507 276.453,-107.578 265.891,-106.737 267.672,-113.507"/>
</g>
<!-- Node10 -->
<g id="node11" class="node"><title>Node10</title>
<g id="a_node11"><a xlink:href="classSICAD.html#a1bdece095865249df4cb4e6a7ad2901e" target="_top" xlink:title="SICAD::getViewTransformation\lMatrix">
<polygon fill="white" stroke="black" points="243,-39 243,-69 393,-69 393,-39 243,-39"/>
<text text-anchor="start" x="251" y="-57" font-family="Helvetica,sans-Serif" font-size="10.00">SICAD::getViewTransformation</text>
<text text-anchor="middle" x="318" y="-46" font-family="Helvetica,sans-Serif" font-size="10.00">Matrix</text>
</a>
</g>
</g>
<!-- Node2&#45;&gt;Node10 -->
<g id="edge10" class="edge"><title>Node2&#45;&gt;Node10</title>
<path fill="none" stroke="midnightblue" d="M151.988,-145.336C169.601,-129.545 206.762,-98.0623 243,-79 247.204,-76.7884 251.644,-74.714 256.175,-72.7806"/>
<polygon fill="midnightblue" stroke="midnightblue" points="257.584,-75.9863 265.559,-69.0113 254.975,-69.4906 257.584,-75.9863"/>
</g>
<!-- Node11 -->
<g id="node12" class="node"><title>Node11</title>
<g id="a_node12"><a xlink:href="classSICAD.html#a8238a2b2c488c8b7ba85d5b2a0bf00ac" target="_top" xlink:title="SICAD::pollOrPostEvent">
<polygon fill="white" stroke="black" points="257,-0.5 257,-19.5 379,-19.5 379,-0.5 257,-0.5"/>
<text text-anchor="middle" x="318" y="-7.5" font-family="Helvetica,sans-Serif" font-size="10.00">SICAD::pollOrPostEvent</text>
</a>
</g>
</g>
<!-- Node2&#45;&gt;Node11 -->
<g id="edge13" class="edge"><title>Node2&#45;&gt;Node11</title>
<path fill="none" stroke="midnightblue" d="M146.398,-145.355C158.973,-121.613 194.818,-60.0191 243,-29 246.293,-26.8797 249.812,-24.9957 253.459,-23.3217"/>
<polygon fill="midnightblue" stroke="midnightblue" points="254.774,-26.5657 262.738,-19.5784 252.154,-20.0741 254.774,-26.5657"/>
</g>
<!-- Node5 -->
<g id="node6" class="node"><title>Node5</title>
<g id="a_node6"><a xlink:href="classSICAD.html#a8033a99745f595ea5205e3830cabc389" target="_top" xlink:title="SICAD::getMipmapsOpt">
<polygon fill="white" stroke="black" points="429,-202.5 429,-221.5 550,-221.5 550,-202.5 429,-202.5"/>
<text text-anchor="middle" x="489.5" y="-209.5" font-family="Helvetica,sans-Serif" font-size="10.00">SICAD::getMipmapsOpt</text>
</a>
</g>
</g>
<!-- Node4&#45;&gt;Node5 -->
<g id="edge5" class="edge"><title>Node4&#45;&gt;Node5</title>
<path fill="none" stroke="midnightblue" d="M376.858,-212C390.363,-212 404.885,-212 418.842,-212"/>
<polygon fill="midnightblue" stroke="midnightblue" points="418.883,-215.5 428.883,-212 418.883,-208.5 418.883,-215.5"/>
</g>
<!-- Node4&#45;&gt;Node6 -->
<g id="edge6" class="edge"><title>Node4&#45;&gt;Node6</title>
<path fill="none" stroke="midnightblue" d="M361.772,-221.589C385.562,-226.922 415.256,-233.58 439.92,-239.109"/>
<polygon fill="midnightblue" stroke="midnightblue" points="439.276,-242.551 449.799,-241.324 440.807,-235.721 439.276,-242.551"/>
</g>
<!-- Node4&#45;&gt;Node7 -->
<g id="edge7" class="edge"><title>Node4&#45;&gt;Node7</title>
<path fill="none" stroke="midnightblue" d="M361.772,-202.411C384.341,-197.351 412.223,-191.1 436.083,-185.751"/>
<polygon fill="midnightblue" stroke="midnightblue" points="437.043,-189.123 446.036,-183.52 435.512,-182.292 437.043,-189.123"/>
</g>
</g>
</svg>
