<?xml version="1.0" encoding="UTF-8" standalone="no"?>
<!DOCTYPE svg PUBLIC "-//W3C//DTD SVG 1.1//EN"
 "http://www.w3.org/Graphics/SVG/1.1/DTD/svg11.dtd">
<!-- Generated by graphviz version 2.38.0 (20140413.2041)
 -->
<!-- Title: main Pages: 1 -->
<!--zoomable 306 -->
<svg id="main" version="1.1" xmlns="http://www.w3.org/2000/svg" xmlns:xlink="http://www.w3.org/1999/xlink" xml:space="preserve" onload="init(evt)">
<style type="text/css"><![CDATA[
.edge:hover path { stroke: red; }
.edge:hover polygon { stroke: red; fill: red; }
]]></style>
<script type="text/javascript"><![CDATA[
var edges = document.getElementsByTagName('g');
if (edges && edges.length) {
  for (var i=0;i<edges.length;i++) {
    if (edges[i].id.substr(0,4)=='edge') {
      edges[i].setAttribute('class','edge');
    }
  }
}
]]></script>
        <defs>
                <circle id="rim" cx="0" cy="0" r="7"/>
                <circle id="rim2" cx="0" cy="0" r="3.5"/>
                <g id="zoomPlus">
                        <use xlink:href="#rim" fill="#404040">
                                <set attributeName="fill" to="#808080" begin="zoomplus.mouseover" end="zoomplus.mouseout"/>
                        </use>
                        <path d="M-4,0h8M0,-4v8" fill="none" stroke="white" stroke-width="1.5" pointer-events="none"/>
                </g>
                <g id="zoomMin">
                        <use xlink:href="#rim" fill="#404040">
                                <set attributeName="fill" to="#808080" begin="zoomminus.mouseover" end="zoomminus.mouseout"/>
                        </use>
                        <path d="M-4,0h8" fill="none" stroke="white" stroke-width="1.5" pointer-events="none"/>
                </g>
                <g id="dirArrow">
                        <path fill="none" stroke="white" stroke-width="1.5" d="M0,-3.0v7 M-2.5,-0.5L0,-3.0L2.5,-0.5"/>
                </g>
               <g id="resetDef">
                       <use xlink:href="#rim2" fill="#404040">
                               <set attributeName="fill" to="#808080" begin="reset.mouseover" end="reset.mouseout"/>
                       </use>
               </g>
        </defs>

<script type="text/javascript">
var viewWidth = 532;
var viewHeight = 306;
var sectionId = 'dynsection-1';
</script>
<script xlink:href="svgpan.js"/>
<svg id="graph" class="graph">
<g id="viewport">
<title>main</title>
<polygon fill="white" stroke="none" points="-4,4 -4,-302 528,-302 528,4 -4,4"/>
<!-- Node0 -->
<g id="node1" class="node"><title>Node0</title>
<polygon fill="#bfbfbf" stroke="black" points="0,-145.5 0,-164.5 38,-164.5 38,-145.5 0,-145.5"/>
<text text-anchor="middle" x="19" y="-152.5" font-family="Helvetica,sans-Serif" font-size="10.00">main</text>
</g>
<!-- Node1 -->
<g id="node2" class="node"><title>Node1</title>
<g id="a_node2"><a xlink:href="classSICAD.html#a356e0ac8a0f130952a72326bedd4ab60" target="_top" xlink:title="Superimpose one of the mesh models loaded during SICAD object construction in a given pose from a par...">
<polygon fill="white" stroke="black" points="74,-145.5 74,-164.5 181,-164.5 181,-145.5 74,-145.5"/>
<text text-anchor="middle" x="127.5" y="-152.5" font-family="Helvetica,sans-Serif" font-size="10.00">SICAD::superimpose</text>
</a>
</g>
</g>
<!-- Node0&#45;&gt;Node1 -->
<g id="edge1" class="edge"><title>Node0&#45;&gt;Node1</title>
<path fill="none" stroke="midnightblue" d="M38.0663,-155C45.388,-155 54.3161,-155 63.6512,-155"/>
<polygon fill="midnightblue" stroke="midnightblue" points="63.8838,-158.5 73.8838,-155 63.8837,-151.5 63.8838,-158.5"/>
</g>
<!-- Node2 -->
<g id="node3" class="node"><title>Node2</title>
<g id="a_node3"><a xlink:href="classSICAD.html#a170bd325654aed9eb81062ac610608fa" target="_top" xlink:title="SICAD::getBackgroundOpt">
<polygon fill="white" stroke="black" points="225.5,-278.5 225.5,-297.5 358.5,-297.5 358.5,-278.5 225.5,-278.5"/>
<text text-anchor="middle" x="292" y="-285.5" font-family="Helvetica,sans-Serif" font-size="10.00">SICAD::getBackgroundOpt</text>
</a>
</g>
</g>
<!-- Node1&#45;&gt;Node2 -->
<g id="edge2" class="edge"><title>Node1&#45;&gt;Node2</title>
<path fill="none" stroke="midnightblue" d="M133.759,-164.724C145.71,-185.917 176.998,-236.562 217,-264 223.422,-268.405 230.704,-272.043 238.134,-275.036"/>
<polygon fill="midnightblue" stroke="midnightblue" points="236.977,-278.34 247.571,-278.492 239.384,-271.766 236.977,-278.34"/>
</g>
<!-- Node3 -->
<g id="node4" class="node"><title>Node3</title>
<g id="a_node4"><a xlink:href="classSICAD.html#a25b180f54f2e93d69b291cc225600c8e" target="_top" xlink:title="SICAD::setBackground">
<polygon fill="white" stroke="black" points="233.5,-202.5 233.5,-221.5 350.5,-221.5 350.5,-202.5 233.5,-202.5"/>
<text text-anchor="middle" x="292" y="-209.5" font-family="Helvetica,sans-Serif" font-size="10.00">SICAD::setBackground</text>
</a>
</g>
</g>
<!-- Node1&#45;&gt;Node3 -->
<g id="edge3" class="edge"><title>Node1&#45;&gt;Node3</title>
<path fill="none" stroke="midnightblue" d="M153.192,-164.534C170.886,-171.285 195.321,-180.447 217,-188 227.937,-191.811 239.849,-195.761 250.857,-199.33"/>
<polygon fill="midnightblue" stroke="midnightblue" points="250.066,-202.753 260.658,-202.486 252.212,-196.089 250.066,-202.753"/>
</g>
<!-- Node5 -->
<g id="node6" class="node"><title>Node5</title>
<g id="a_node6"><a xlink:href="classShader.html#a8e53260be208ebf6c804a0d309e74097" target="_top" xlink:title="Shader::install">
<polygon fill="white" stroke="black" points="424,-240.5 424,-259.5 503,-259.5 503,-240.5 424,-240.5"/>
<text text-anchor="middle" x="463.5" y="-247.5" font-family="Helvetica,sans-Serif" font-size="10.00">Shader::install</text>
</a>
</g>
</g>
<!-- Node1&#45;&gt;Node5 -->
<g id="edge10" class="edge"><title>Node1&#45;&gt;Node5</title>
<path fill="none" stroke="midnightblue" d="M136.027,-164.609C149.925,-181.53 181.46,-216.25 217,-231 281.089,-257.599 362.603,-258.106 413.68,-254.915"/>
<polygon fill="midnightblue" stroke="midnightblue" points="414.055,-258.398 423.787,-254.21 413.568,-251.414 414.055,-258.398"/>
</g>
<!-- Node6 -->
<g id="node7" class="node"><title>Node6</title>
<g id="a_node7"><a xlink:href="classShader.html#afa6fb33b37c9385cf62a836092da570b" target="_top" xlink:title="Shader::uninstall">
<polygon fill="white" stroke="black" points="419,-164.5 419,-183.5 508,-183.5 508,-164.5 419,-164.5"/>
<text text-anchor="middle" x="463.5" y="-171.5" font-family="Helvetica,sans-Serif" font-size="10.00">Shader::uninstall</text>
</a>
</g>
</g>
<!-- Node1&#45;&gt;Node6 -->
<g id="edge11" class="edge"><title>Node1&#45;&gt;Node6</title>
<path fill="none" stroke="midnightblue" d="M181.055,-157.99C243.181,-161.524 346.02,-167.374 408.689,-170.939"/>
<polygon fill="midnightblue" stroke="midnightblue" points="408.585,-174.439 418.768,-171.512 408.983,-167.45 408.585,-174.439"/>
</g>
<!-- Node7 -->
<g id="node8" class="node"><title>Node7</title>
<g id="a_node8"><a xlink:href="classSICAD.html#ae7af7aba5d81b9f1cc3e273a55811a70" target="_top" xlink:title="SICAD::setWireframe">
<polygon fill="white" stroke="black" points="237,-126.5 237,-145.5 347,-145.5 347,-126.5 237,-126.5"/>
<text text-anchor="middle" x="292" y="-133.5" font-family="Helvetica,sans-Serif" font-size="10.00">SICAD::setWireframe</text>
</a>
</g>
</g>
<!-- Node1&#45;&gt;Node7 -->
<g id="edge7" class="edge"><title>Node1&#45;&gt;Node7</title>
<path fill="none" stroke="midnightblue" d="M181.259,-148.831C195.716,-147.141 211.551,-145.289 226.582,-143.532"/>
<polygon fill="midnightblue" stroke="midnightblue" points="227.308,-146.971 236.833,-142.333 226.495,-140.018 227.308,-146.971"/>
</g>
<!-- Node8 -->
<g id="node9" class="node"><title>Node8</title>
<g id="a_node9"><a xlink:href="classSICAD.html#af65b5ad73e2c0e872face157b56bd68b" target="_top" xlink:title="SICAD::getWireframeOpt">
<polygon fill="white" stroke="black" points="229.5,-88.5 229.5,-107.5 354.5,-107.5 354.5,-88.5 229.5,-88.5"/>
<text text-anchor="middle" x="292" y="-95.5" font-family="Helvetica,sans-Serif" font-size="10.00">SICAD::getWireframeOpt</text>
</a>
</g>
</g>
<!-- Node1&#45;&gt;Node8 -->
<g id="edge8" class="edge"><title>Node1&#45;&gt;Node8</title>
<path fill="none" stroke="midnightblue" d="M148.539,-145.34C166.254,-137.058 192.943,-125.199 217,-117 224.158,-114.561 231.799,-112.265 239.351,-110.171"/>
<polygon fill="midnightblue" stroke="midnightblue" points="240.427,-113.506 249.181,-107.538 238.616,-106.744 240.427,-113.506"/>
</g>
<!-- Node9 -->
<g id="node10" class="node"><title>Node9</title>
<g id="a_node10"><a xlink:href="classSICAD.html#a1bdece095865249df4cb4e6a7ad2901e" target="_top" xlink:title="SICAD::getViewTransformation\lMatrix">
<polygon fill="white" stroke="black" points="217,-39 217,-69 367,-69 367,-39 217,-39"/>
<text text-anchor="start" x="225" y="-57" font-family="Helvetica,sans-Serif" font-size="10.00">SICAD::getViewTransformation</text>
<text text-anchor="middle" x="292" y="-46" font-family="Helvetica,sans-Serif" font-size="10.00">Matrix</text>
</a>
</g>
</g>
<!-- Node1&#45;&gt;Node9 -->
<g id="edge9" class="edge"><title>Node1&#45;&gt;Node9</title>
<path fill="none" stroke="midnightblue" d="M137.15,-145.497C152.037,-129.655 184.09,-97.7416 217,-79 220.712,-76.8862 224.631,-74.914 228.649,-73.0807"/>
<polygon fill="midnightblue" stroke="midnightblue" points="230.314,-76.1767 238.157,-69.0535 227.584,-69.7311 230.314,-76.1767"/>
</g>
<!-- Node10 -->
<g id="node11" class="node"><title>Node10</title>
<g id="a_node11"><a xlink:href="classSICAD.html#a8238a2b2c488c8b7ba85d5b2a0bf00ac" target="_top" xlink:title="SICAD::pollOrPostEvent">
<polygon fill="white" stroke="black" points="231,-0.5 231,-19.5 353,-19.5 353,-0.5 231,-0.5"/>
<text text-anchor="middle" x="292" y="-7.5" font-family="Helvetica,sans-Serif" font-size="10.00">SICAD::pollOrPostEvent</text>
</a>
</g>
</g>
<!-- Node1&#45;&gt;Node10 -->
<g id="edge12" class="edge"><title>Node1&#45;&gt;Node10</title>
<path fill="none" stroke="midnightblue" d="M132.419,-145.354C142.579,-121.61 172.144,-60.0117 217,-29 219.869,-27.0164 222.93,-25.2399 226.112,-23.6488"/>
<polygon fill="midnightblue" stroke="midnightblue" points="227.568,-26.8325 235.345,-19.6377 224.778,-20.4121 227.568,-26.8325"/>
</g>
<!-- Node4 -->
<g id="node5" class="node"><title>Node4</title>
<g id="a_node5"><a xlink:href="classSICAD.html#a8033a99745f595ea5205e3830cabc389" target="_top" xlink:title="SICAD::getMipmapsOpt">
<polygon fill="white" stroke="black" points="403,-202.5 403,-221.5 524,-221.5 524,-202.5 403,-202.5"/>
<text text-anchor="middle" x="463.5" y="-209.5" font-family="Helvetica,sans-Serif" font-size="10.00">SICAD::getMipmapsOpt</text>
</a>
</g>
</g>
<!-- Node3&#45;&gt;Node4 -->
<g id="edge4" class="edge"><title>Node3&#45;&gt;Node4</title>
<path fill="none" stroke="midnightblue" d="M350.858,-212C364.363,-212 378.885,-212 392.842,-212"/>
<polygon fill="midnightblue" stroke="midnightblue" points="392.883,-215.5 402.883,-212 392.883,-208.5 392.883,-215.5"/>
</g>
<!-- Node3&#45;&gt;Node5 -->
<g id="edge5" class="edge"><title>Node3&#45;&gt;Node5</title>
<path fill="none" stroke="midnightblue" d="M335.772,-221.589C359.562,-226.922 389.256,-233.58 413.92,-239.109"/>
<polygon fill="midnightblue" stroke="midnightblue" points="413.276,-242.551 423.799,-241.324 414.807,-235.721 413.276,-242.551"/>
</g>
<!-- Node3&#45;&gt;Node6 -->
<g id="edge6" class="edge"><title>Node3&#45;&gt;Node6</title>
<path fill="none" stroke="midnightblue" d="M335.772,-202.411C358.341,-197.351 386.223,-191.1 410.083,-185.751"/>
<polygon fill="midnightblue" stroke="midnightblue" points="411.043,-189.123 420.036,-183.52 409.512,-182.292 411.043,-189.123"/>
</g>
</g>
</svg>
        <g id="navigator" transform="translate(0 0)" fill="#404254">
                <rect fill="#f2f5e9" fill-opacity="0.5" stroke="#606060" stroke-width=".5" x="0" y="0" width="60" height="60"/>
                <use id="zoomplus" xlink:href="#zoomPlus" x="17" y="9" onmousedown="handleZoom(evt,'in')"/>
                <use id="zoomminus" xlink:href="#zoomMin" x="42" y="9" onmousedown="handleZoom(evt,'out')"/>
                <use id="reset" xlink:href="#resetDef" x="30" y="36" onmousedown="handleReset()"/>
                <g id="arrowUp" xlink:href="#dirArrow" transform="translate(30 24)" onmousedown="handlePan(0,-1)">
                  <use xlink:href="#rim" fill="#404040">
                        <set attributeName="fill" to="#808080" begin="arrowUp.mouseover" end="arrowUp.mouseout"/>
                  </use>
                  <path fill="none" stroke="white" stroke-width="1.5" d="M0,-3.0v7 M-2.5,-0.5L0,-3.0L2.5,-0.5"/>
                </g>
                <g id="arrowRight" xlink:href="#dirArrow" transform="rotate(90) translate(36 -43)" onmousedown="handlePan(1,0)">
                  <use xlink:href="#rim" fill="#404040">
                        <set attributeName="fill" to="#808080" begin="arrowRight.mouseover" end="arrowRight.mouseout"/>
                  </use>
                  <path fill="none" stroke="white" stroke-width="1.5" d="M0,-3.0v7 M-2.5,-0.5L0,-3.0L2.5,-0.5"/>
                </g>
                <g id="arrowDown" xlink:href="#dirArrow" transform="rotate(180) translate(-30 -48)" onmousedown="handlePan(0,1)">
                  <use xlink:href="#rim" fill="#404040">
                        <set attributeName="fill" to="#808080" begin="arrowDown.mouseover" end="arrowDown.mouseout"/>
                  </use>
                  <path fill="none" stroke="white" stroke-width="1.5" d="M0,-3.0v7 M-2.5,-0.5L0,-3.0L2.5,-0.5"/>
                </g>
                <g id="arrowLeft" xlink:href="#dirArrow" transform="rotate(270) translate(-36 17)" onmousedown="handlePan(-1,0)">
                  <use xlink:href="#rim" fill="#404040">
                        <set attributeName="fill" to="#808080" begin="arrowLeft.mouseover" end="arrowLeft.mouseout"/>
                  </use>
                  <path fill="none" stroke="white" stroke-width="1.5" d="M0,-3.0v7 M-2.5,-0.5L0,-3.0L2.5,-0.5"/>
                </g>
        </g>
        <svg viewBox="0 0 15 15" width="100%" height="30px" preserveAspectRatio="xMaxYMin meet">
         <g id="arrow_out" transform="scale(0.3 0.3)">
          <a xlink:href="tutorial__superimpose_8cpp_ae66f6b31b5ad750f1fe042a706a4e3d4_cgraph_org.svg" target="_base">
           <rect id="button" ry="5" rx="5" y="6" x="6" height="38" width="38"
                fill="#f2f5e9" fill-opacity="0.5" stroke="#606060" stroke-width="1.0"/>
           <path id="arrow"
             d="M 11.500037,31.436501 C 11.940474,20.09759 22.043105,11.32322 32.158766,21.979434 L 37.068811,17.246167 C 37.068811,17.246167 37.088388,32 37.088388,32 L 22.160133,31.978069 C 22.160133,31.978069 26.997745,27.140456 26.997745,27.140456 C 18.528582,18.264221 13.291696,25.230495 11.500037,31.436501 z"
             style="fill:#404040;"/>
          </a>
         </g>
        </svg>
</svg>
