<?xml version="1.0" encoding="UTF-8" standalone="no"?>
<!DOCTYPE svg PUBLIC "-//W3C//DTD SVG 1.1//EN"
 "http://www.w3.org/Graphics/SVG/1.1/DTD/svg11.dtd">
<!-- Generated by graphviz version 2.38.0 (20140413.2041)
 -->
<!-- Title: tutorial_code/tutorial_superimpose.cpp Pages: 1 -->
<svg width="1297pt" height="319pt"
 viewBox="0.00 0.00 1297.00 319.00" xmlns="http://www.w3.org/2000/svg" xmlns:xlink="http://www.w3.org/1999/xlink">
<g id="graph0" class="graph" transform="scale(1 1) rotate(0) translate(4 315)">
<title>tutorial_code/tutorial_superimpose.cpp</title>
<polygon fill="white" stroke="none" points="-4,4 -4,-315 1293,-315 1293,4 -4,4"/>
<!-- Node0 -->
<g id="node1" class="node"><title>Node0</title>
<polygon fill="#bfbfbf" stroke="black" points="621,-280.5 621,-310.5 725,-310.5 725,-280.5 621,-280.5"/>
<text text-anchor="start" x="629" y="-298.5" font-family="Helvetica,sans-Serif" font-size="10.00">tutorial_code/tutorial</text>
<text text-anchor="middle" x="673" y="-287.5" font-family="Helvetica,sans-Serif" font-size="10.00">_superimpose.cpp</text>
</g>
<!-- Node1 -->
<g id="node2" class="node"><title>Node1</title>
<polygon fill="white" stroke="#bfbfbf" points="0,-224.5 0,-243.5 44,-243.5 44,-224.5 0,-224.5"/>
<text text-anchor="middle" x="22" y="-231.5" font-family="Helvetica,sans-Serif" font-size="10.00">cmath</text>
</g>
<!-- Node0&#45;&gt;Node1 -->
<g id="edge1" class="edge"><title>Node0&#45;&gt;Node1</title>
<path fill="none" stroke="midnightblue" d="M620.814,-293.082C514.338,-289.56 264.648,-278.082 58,-244 56.7486,-243.794 55.4767,-243.566 54.1949,-243.321"/>
<polygon fill="midnightblue" stroke="midnightblue" points="54.8649,-239.885 44.3504,-241.187 53.382,-246.726 54.8649,-239.885"/>
</g>
<!-- Node2 -->
<g id="node3" class="node"><title>Node2</title>
<polygon fill="white" stroke="#bfbfbf" points="79.5,-0.5 79.5,-19.5 138.5,-19.5 138.5,-0.5 79.5,-0.5"/>
<text text-anchor="middle" x="109" y="-7.5" font-family="Helvetica,sans-Serif" font-size="10.00">exception</text>
</g>
<!-- Node0&#45;&gt;Node2 -->
<g id="edge2" class="edge"><title>Node0&#45;&gt;Node2</title>
<path fill="none" stroke="midnightblue" d="M620.978,-289.984C474.977,-276.618 72,-234.681 72,-179 72,-179 72,-179 72,-121 72,-86.889 88.1815,-49.787 99.1424,-28.5681"/>
<polygon fill="midnightblue" stroke="midnightblue" points="102.359,-29.9756 104.01,-19.5101 96.1933,-26.662 102.359,-29.9756"/>
</g>
<!-- Node3 -->
<g id="node4" class="node"><title>Node3</title>
<polygon fill="white" stroke="#bfbfbf" points="720,-224.5 720,-243.5 774,-243.5 774,-224.5 720,-224.5"/>
<text text-anchor="middle" x="747" y="-231.5" font-family="Helvetica,sans-Serif" font-size="10.00">iostream</text>
</g>
<!-- Node0&#45;&gt;Node3 -->
<g id="edge3" class="edge"><title>Node0&#45;&gt;Node3</title>
<path fill="none" stroke="midnightblue" d="M690.537,-280.399C701.844,-271.308 716.542,-259.49 728.107,-250.191"/>
<polygon fill="midnightblue" stroke="midnightblue" points="730.632,-252.652 736.232,-243.658 726.246,-247.196 730.632,-252.652"/>
</g>
<!-- Node4 -->
<g id="node5" class="node"><title>Node4</title>
<polygon fill="white" stroke="#bfbfbf" points="434.5,-112.5 434.5,-131.5 475.5,-131.5 475.5,-112.5 434.5,-112.5"/>
<text text-anchor="middle" x="455" y="-119.5" font-family="Helvetica,sans-Serif" font-size="10.00">string</text>
</g>
<!-- Node0&#45;&gt;Node4 -->
<g id="edge4" class="edge"><title>Node0&#45;&gt;Node4</title>
<path fill="none" stroke="midnightblue" d="M646.528,-280.385C612.857,-261.744 553.825,-226.721 510,-188 493.461,-173.387 477.507,-153.711 467.08,-139.848"/>
<polygon fill="midnightblue" stroke="midnightblue" points="469.822,-137.668 461.076,-131.688 464.184,-141.817 469.822,-137.668"/>
</g>
<!-- Node5 -->
<g id="node6" class="node"><title>Node5</title>
<polygon fill="white" stroke="#bfbfbf" points="619,-168.5 619,-187.5 689,-187.5 689,-168.5 619,-168.5"/>
<text text-anchor="middle" x="654" y="-175.5" font-family="Helvetica,sans-Serif" font-size="10.00">glm/glm.hpp</text>
</g>
<!-- Node0&#45;&gt;Node5 -->
<g id="edge5" class="edge"><title>Node0&#45;&gt;Node5</title>
<path fill="none" stroke="midnightblue" d="M670.67,-280.337C667.247,-259.527 660.854,-220.663 657.057,-197.583"/>
<polygon fill="midnightblue" stroke="midnightblue" points="660.503,-196.969 655.426,-187.669 653.596,-198.105 660.503,-196.969"/>
</g>
<!-- Node6 -->
<g id="node7" class="node"><title>Node6</title>
<polygon fill="white" stroke="#bfbfbf" points="792.5,-224.5 792.5,-243.5 935.5,-243.5 935.5,-224.5 792.5,-224.5"/>
<text text-anchor="middle" x="864" y="-231.5" font-family="Helvetica,sans-Serif" font-size="10.00">glm/gtc/matrix_transform.hpp</text>
</g>
<!-- Node0&#45;&gt;Node6 -->
<g id="edge6" class="edge"><title>Node0&#45;&gt;Node6</title>
<path fill="none" stroke="midnightblue" d="M718.264,-280.399C751.412,-270.073 795.847,-256.231 826.904,-246.556"/>
<polygon fill="midnightblue" stroke="midnightblue" points="827.98,-249.887 836.487,-243.571 825.898,-243.204 827.98,-249.887"/>
</g>
<!-- Node7 -->
<g id="node8" class="node"><title>Node7</title>
<polygon fill="white" stroke="#bfbfbf" points="745,-112.5 745,-131.5 859,-131.5 859,-112.5 745,-112.5"/>
<text text-anchor="middle" x="802" y="-119.5" font-family="Helvetica,sans-Serif" font-size="10.00">opencv2/core/core.hpp</text>
</g>
<!-- Node0&#45;&gt;Node7 -->
<g id="edge7" class="edge"><title>Node0&#45;&gt;Node7</title>
<path fill="none" stroke="midnightblue" d="M679.36,-280.412C686.254,-265.754 698.025,-242.413 711,-224 733.959,-191.419 766.227,-157.872 785.532,-138.811"/>
<polygon fill="midnightblue" stroke="midnightblue" points="788.235,-141.064 792.946,-131.575 783.345,-136.055 788.235,-141.064"/>
</g>
<!-- Node8 -->
<g id="node9" class="node"><title>Node8</title>
<polygon fill="white" stroke="#bfbfbf" points="953.5,-224.5 953.5,-243.5 1124.5,-243.5 1124.5,-224.5 953.5,-224.5"/>
<text text-anchor="middle" x="1039" y="-231.5" font-family="Helvetica,sans-Serif" font-size="10.00">opencv2/imgcodecs/imgcodecs.hpp</text>
</g>
<!-- Node0&#45;&gt;Node8 -->
<g id="edge8" class="edge"><title>Node0&#45;&gt;Node8</title>
<path fill="none" stroke="midnightblue" d="M725.05,-286.038C791.263,-275.274 905.506,-256.702 976.402,-245.176"/>
<polygon fill="midnightblue" stroke="midnightblue" points="977.228,-248.588 986.537,-243.529 976.105,-241.679 977.228,-248.588"/>
</g>
<!-- Node9 -->
<g id="node10" class="node"><title>Node9</title>
<polygon fill="white" stroke="#bfbfbf" points="1143,-224.5 1143,-243.5 1289,-243.5 1289,-224.5 1143,-224.5"/>
<text text-anchor="middle" x="1216" y="-231.5" font-family="Helvetica,sans-Serif" font-size="10.00">opencv2/imgproc/imgproc.hpp</text>
</g>
<!-- Node0&#45;&gt;Node9 -->
<g id="edge9" class="edge"><title>Node0&#45;&gt;Node9</title>
<path fill="none" stroke="midnightblue" d="M725.197,-288.786C808.814,-279.631 978.255,-261.076 1132.54,-244.16"/>
<polygon fill="midnightblue" stroke="midnightblue" points="1133.12,-247.617 1142.68,-243.048 1132.36,-240.659 1133.12,-247.617"/>
</g>
<!-- Node10 -->
<g id="node11" class="node"><title>Node10</title>
<g id="a_node11"><a xlink:href="SICAD_8h.html" target="_top" xlink:title="SuperimposeMesh/SICAD.h">
<polygon fill="white" stroke="black" points="284,-224.5 284,-243.5 422,-243.5 422,-224.5 284,-224.5"/>
<text text-anchor="middle" x="353" y="-231.5" font-family="Helvetica,sans-Serif" font-size="10.00">SuperimposeMesh/SICAD.h</text>
</a>
</g>
</g>
<!-- Node0&#45;&gt;Node10 -->
<g id="edge10" class="edge"><title>Node0&#45;&gt;Node10</title>
<path fill="none" stroke="midnightblue" d="M620.874,-284.808C562.614,-273.975 468.634,-256.501 408.887,-245.391"/>
<polygon fill="midnightblue" stroke="midnightblue" points="409.346,-241.917 398.875,-243.53 408.066,-248.799 409.346,-241.917"/>
</g>
<!-- Node10&#45;&gt;Node4 -->
<g id="edge34" class="edge"><title>Node10&#45;&gt;Node4</title>
<path fill="none" stroke="midnightblue" d="M379.011,-224.371C396.813,-217.224 419.697,-205.397 434,-188 444.934,-174.7 450.221,-155.579 452.749,-141.517"/>
<polygon fill="midnightblue" stroke="midnightblue" points="456.224,-141.94 454.239,-131.533 449.301,-140.906 456.224,-141.94"/>
</g>
<!-- Node10&#45;&gt;Node5 -->
<g id="edge39" class="edge"><title>Node10&#45;&gt;Node5</title>
<path fill="none" stroke="midnightblue" d="M404.277,-224.463C454.076,-216.072 532.073,-202.669 609.08,-188.133"/>
<polygon fill="midnightblue" stroke="midnightblue" points="609.78,-191.563 618.953,-186.262 608.476,-184.685 609.78,-191.563"/>
</g>
<!-- Node11 -->
<g id="node12" class="node"><title>Node11</title>
<g id="a_node12"><a xlink:href="Superimpose_8h.html" target="_top" xlink:title="Superimpose.h">
<polygon fill="white" stroke="black" points="519,-168.5 519,-187.5 601,-187.5 601,-168.5 519,-168.5"/>
<text text-anchor="middle" x="560" y="-175.5" font-family="Helvetica,sans-Serif" font-size="10.00">Superimpose.h</text>
</a>
</g>
</g>
<!-- Node10&#45;&gt;Node11 -->
<g id="edge11" class="edge"><title>Node10&#45;&gt;Node11</title>
<path fill="none" stroke="midnightblue" d="M385.8,-224.444C421.38,-215.162 478.314,-200.309 517.347,-190.127"/>
<polygon fill="midnightblue" stroke="midnightblue" points="518.561,-193.427 527.354,-187.516 516.794,-186.654 518.561,-193.427"/>
</g>
<!-- Node15 -->
<g id="node16" class="node"><title>Node15</title>
<polygon fill="white" stroke="#bfbfbf" points="578,-56.5 578,-75.5 620,-75.5 620,-56.5 578,-56.5"/>
<text text-anchor="middle" x="599" y="-63.5" font-family="Helvetica,sans-Serif" font-size="10.00">vector</text>
</g>
<!-- Node10&#45;&gt;Node15 -->
<g id="edge36" class="edge"><title>Node10&#45;&gt;Node15</title>
<path fill="none" stroke="midnightblue" d="M347.434,-224.485C339.745,-211.55 327.905,-186.503 338,-168 343.506,-157.908 414.45,-116.566 425,-112 482.705,-87.026 503.439,-92.8368 567.893,-76.1462"/>
<polygon fill="midnightblue" stroke="midnightblue" points="568.975,-79.4802 577.73,-73.5141 567.165,-72.7181 568.975,-79.4802"/>
</g>
<!-- Node16 -->
<g id="node17" class="node"><title>Node16</title>
<g id="a_node17"><a xlink:href="Model_8h.html" target="_top" xlink:title="Model.h">
<polygon fill="white" stroke="black" points="239.5,-168.5 239.5,-187.5 290.5,-187.5 290.5,-168.5 239.5,-168.5"/>
<text text-anchor="middle" x="265" y="-175.5" font-family="Helvetica,sans-Serif" font-size="10.00">Model.h</text>
</a>
</g>
</g>
<!-- Node10&#45;&gt;Node16 -->
<g id="edge18" class="edge"><title>Node10&#45;&gt;Node16</title>
<path fill="none" stroke="midnightblue" d="M338.861,-224.324C325.134,-215.9 304.064,-202.971 287.936,-193.074"/>
<polygon fill="midnightblue" stroke="midnightblue" points="289.457,-189.902 279.104,-187.655 285.796,-195.868 289.457,-189.902"/>
</g>
<!-- Node17 -->
<g id="node18" class="node"><title>Node17</title>
<g id="a_node18"><a xlink:href="Shader_8h.html" target="_top" xlink:title="Shader.h">
<polygon fill="white" stroke="black" points="140,-56.5 140,-75.5 196,-75.5 196,-56.5 140,-56.5"/>
<text text-anchor="middle" x="168" y="-63.5" font-family="Helvetica,sans-Serif" font-size="10.00">Shader.h</text>
</a>
</g>
</g>
<!-- Node10&#45;&gt;Node17 -->
<g id="edge33" class="edge"><title>Node10&#45;&gt;Node17</title>
<path fill="none" stroke="midnightblue" d="M283.873,-228.514C225.483,-223.113 148.354,-211.628 129,-188 103.479,-156.842 134.159,-108.621 153.885,-83.4958"/>
<polygon fill="midnightblue" stroke="midnightblue" points="156.686,-85.5989 160.295,-75.6376 151.262,-81.1741 156.686,-85.5989"/>
</g>
<!-- Node18 -->
<g id="node19" class="node"><title>Node18</title>
<polygon fill="white" stroke="#bfbfbf" points="166,-0.5 166,-19.5 226,-19.5 226,-0.5 166,-0.5"/>
<text text-anchor="middle" x="196" y="-7.5" font-family="Helvetica,sans-Serif" font-size="10.00">GL/glew.h</text>
</g>
<!-- Node10&#45;&gt;Node18 -->
<g id="edge37" class="edge"><title>Node10&#45;&gt;Node18</title>
<path fill="none" stroke="midnightblue" d="M315.491,-224.481C289.881,-217.467 256.013,-205.752 230,-188 175.124,-150.551 154.524,-138.133 131,-76 127.853,-67.687 126.875,-63.8736 131,-56 138.279,-42.1082 152.009,-31.6523 164.983,-24.3328"/>
<polygon fill="midnightblue" stroke="midnightblue" points="166.928,-27.2662 174.192,-19.553 163.704,-21.0532 166.928,-27.2662"/>
</g>
<!-- Node23 -->
<g id="node24" class="node"><title>Node23</title>
<polygon fill="white" stroke="#bfbfbf" points="138,-168.5 138,-187.5 182,-187.5 182,-168.5 138,-168.5"/>
<text text-anchor="middle" x="160" y="-175.5" font-family="Helvetica,sans-Serif" font-size="10.00">thread</text>
</g>
<!-- Node10&#45;&gt;Node23 -->
<g id="edge35" class="edge"><title>Node10&#45;&gt;Node23</title>
<path fill="none" stroke="midnightblue" d="M322.419,-224.444C286.818,-214.483 228.289,-198.107 192.065,-187.972"/>
<polygon fill="midnightblue" stroke="midnightblue" points="192.607,-184.489 182.034,-185.165 190.721,-191.23 192.607,-184.489"/>
</g>
<!-- Node24 -->
<g id="node25" class="node"><title>Node24</title>
<polygon fill="white" stroke="#bfbfbf" points="347,-168.5 347,-187.5 425,-187.5 425,-168.5 347,-168.5"/>
<text text-anchor="middle" x="386" y="-175.5" font-family="Helvetica,sans-Serif" font-size="10.00">GLFW/glfw3.h</text>
</g>
<!-- Node10&#45;&gt;Node24 -->
<g id="edge38" class="edge"><title>Node10&#45;&gt;Node24</title>
<path fill="none" stroke="midnightblue" d="M358.449,-224.083C363.014,-216.613 369.668,-205.724 375.293,-196.52"/>
<polygon fill="midnightblue" stroke="midnightblue" points="378.424,-198.109 380.652,-187.751 372.451,-194.459 378.424,-198.109"/>
</g>
<!-- Node11&#45;&gt;Node4 -->
<g id="edge12" class="edge"><title>Node11&#45;&gt;Node4</title>
<path fill="none" stroke="midnightblue" d="M543.13,-168.324C526.291,-159.664 500.193,-146.242 480.762,-136.249"/>
<polygon fill="midnightblue" stroke="midnightblue" points="482.322,-133.116 471.828,-131.655 479.12,-139.341 482.322,-133.116"/>
</g>
<!-- Node11&#45;&gt;Node7 -->
<g id="edge17" class="edge"><title>Node11&#45;&gt;Node7</title>
<path fill="none" stroke="midnightblue" d="M598.346,-168.444C640.473,-159.043 708.206,-143.929 753.872,-133.739"/>
<polygon fill="midnightblue" stroke="midnightblue" points="754.836,-137.11 763.834,-131.516 753.312,-130.278 754.836,-137.11"/>
</g>
<!-- Node12 -->
<g id="node13" class="node"><title>Node12</title>
<polygon fill="white" stroke="#bfbfbf" points="590.5,-112.5 590.5,-131.5 625.5,-131.5 625.5,-112.5 590.5,-112.5"/>
<text text-anchor="middle" x="608" y="-119.5" font-family="Helvetica,sans-Serif" font-size="10.00">map</text>
</g>
<!-- Node11&#45;&gt;Node12 -->
<g id="edge13" class="edge"><title>Node11&#45;&gt;Node12</title>
<path fill="none" stroke="midnightblue" d="M567.926,-168.083C574.846,-160.298 585.065,-148.801 593.452,-139.367"/>
<polygon fill="midnightblue" stroke="midnightblue" points="596.194,-141.55 600.221,-131.751 590.962,-136.9 596.194,-141.55"/>
</g>
<!-- Node13 -->
<g id="node14" class="node"><title>Node13</title>
<polygon fill="white" stroke="#bfbfbf" points="643.5,-112.5 643.5,-131.5 726.5,-131.5 726.5,-112.5 643.5,-112.5"/>
<text text-anchor="middle" x="685" y="-119.5" font-family="Helvetica,sans-Serif" font-size="10.00">unordered_map</text>
</g>
<!-- Node11&#45;&gt;Node13 -->
<g id="edge14" class="edge"><title>Node11&#45;&gt;Node13</title>
<path fill="none" stroke="midnightblue" d="M579.807,-168.444C600.287,-159.596 632.483,-145.687 655.865,-135.586"/>
<polygon fill="midnightblue" stroke="midnightblue" points="657.494,-138.695 665.286,-131.516 654.718,-132.269 657.494,-138.695"/>
</g>
<!-- Node14 -->
<g id="node15" class="node"><title>Node14</title>
<polygon fill="white" stroke="#bfbfbf" points="532,-112.5 532,-131.5 572,-131.5 572,-112.5 532,-112.5"/>
<text text-anchor="middle" x="552" y="-119.5" font-family="Helvetica,sans-Serif" font-size="10.00">utility</text>
</g>
<!-- Node11&#45;&gt;Node14 -->
<g id="edge15" class="edge"><title>Node11&#45;&gt;Node14</title>
<path fill="none" stroke="midnightblue" d="M558.679,-168.083C557.619,-160.927 556.094,-150.635 554.769,-141.691"/>
<polygon fill="midnightblue" stroke="midnightblue" points="558.224,-141.13 553.296,-131.751 551.3,-142.156 558.224,-141.13"/>
</g>
<!-- Node11&#45;&gt;Node15 -->
<g id="edge16" class="edge"><title>Node11&#45;&gt;Node15</title>
<path fill="none" stroke="midnightblue" d="M548.601,-168.167C533.913,-155.661 511.554,-132.08 523,-112 532.776,-94.8507 551.938,-83.5696 568.575,-76.5915"/>
<polygon fill="midnightblue" stroke="midnightblue" points="569.913,-79.8269 577.988,-72.9683 567.399,-73.2941 569.913,-79.8269"/>
</g>
<!-- Node16&#45;&gt;Node4 -->
<g id="edge30" class="edge"><title>Node16&#45;&gt;Node4</title>
<path fill="none" stroke="midnightblue" d="M290.624,-169.717C325.437,-159.823 387.58,-142.162 424.675,-131.619"/>
<polygon fill="midnightblue" stroke="midnightblue" points="425.767,-134.947 434.43,-128.846 423.854,-128.214 425.767,-134.947"/>
</g>
<!-- Node16&#45;&gt;Node15 -->
<g id="edge29" class="edge"><title>Node16&#45;&gt;Node15</title>
<path fill="none" stroke="midnightblue" d="M280.636,-168.317C309.342,-152.492 369.558,-119.859 392,-112 464.806,-86.5034 489.234,-94.8217 567.893,-76.0582"/>
<polygon fill="midnightblue" stroke="midnightblue" points="568.886,-79.4183 577.761,-73.6316 567.214,-72.6208 568.886,-79.4183"/>
</g>
<!-- Node16&#45;&gt;Node17 -->
<g id="edge19" class="edge"><title>Node16&#45;&gt;Node17</title>
<path fill="none" stroke="midnightblue" d="M252.251,-168.334C240.444,-159.921 222.826,-146.35 210,-132 196.887,-117.329 185.032,-98.171 177.287,-84.4613"/>
<polygon fill="midnightblue" stroke="midnightblue" points="180.294,-82.666 172.415,-75.5835 174.158,-86.034 180.294,-82.666"/>
</g>
<!-- Node16&#45;&gt;Node18 -->
<g id="edge31" class="edge"><title>Node16&#45;&gt;Node18</title>
<path fill="none" stroke="midnightblue" d="M261.29,-168.075C250.382,-141.832 218.257,-64.5453 203.53,-29.1165"/>
<polygon fill="midnightblue" stroke="midnightblue" points="206.632,-27.4588 199.561,-19.5681 200.168,-30.1456 206.632,-27.4588"/>
</g>
<!-- Node19 -->
<g id="node20" class="node"><title>Node19</title>
<g id="a_node20"><a xlink:href="Mesh_8h.html" target="_top" xlink:title="Mesh.h">
<polygon fill="white" stroke="black" points="290.5,-112.5 290.5,-131.5 339.5,-131.5 339.5,-112.5 290.5,-112.5"/>
<text text-anchor="middle" x="315" y="-119.5" font-family="Helvetica,sans-Serif" font-size="10.00">Mesh.h</text>
</a>
</g>
</g>
<!-- Node16&#45;&gt;Node19 -->
<g id="edge22" class="edge"><title>Node16&#45;&gt;Node19</title>
<path fill="none" stroke="midnightblue" d="M273.256,-168.083C280.465,-160.298 291.11,-148.801 299.846,-139.367"/>
<polygon fill="midnightblue" stroke="midnightblue" points="302.671,-141.467 306.897,-131.751 297.535,-136.711 302.671,-141.467"/>
</g>
<!-- Node22 -->
<g id="node23" class="node"><title>Node22</title>
<polygon fill="white" stroke="#bfbfbf" points="252,-56.5 252,-75.5 338,-75.5 338,-56.5 252,-56.5"/>
<text text-anchor="middle" x="295" y="-63.5" font-family="Helvetica,sans-Serif" font-size="10.00">assimp/scene.h</text>
</g>
<!-- Node16&#45;&gt;Node22 -->
<g id="edge32" class="edge"><title>Node16&#45;&gt;Node22</title>
<path fill="none" stroke="midnightblue" d="M267.006,-168.125C269.884,-155.569 275.453,-131.929 281,-112 283.471,-103.121 286.478,-93.344 289.071,-85.1775"/>
<polygon fill="midnightblue" stroke="midnightblue" points="292.428,-86.1726 292.161,-75.5811 285.765,-84.0271 292.428,-86.1726"/>
</g>
<!-- Node17&#45;&gt;Node2 -->
<g id="edge20" class="edge"><title>Node17&#45;&gt;Node2</title>
<path fill="none" stroke="midnightblue" d="M158.521,-56.324C149.799,-48.3414 136.657,-36.3128 126.102,-26.6529"/>
<polygon fill="midnightblue" stroke="midnightblue" points="128.392,-24.0036 118.652,-19.8339 123.666,-29.1674 128.392,-24.0036"/>
</g>
<!-- Node17&#45;&gt;Node18 -->
<g id="edge21" class="edge"><title>Node17&#45;&gt;Node18</title>
<path fill="none" stroke="midnightblue" d="M172.624,-56.083C176.456,-48.6913 182.024,-37.9533 186.765,-28.8111"/>
<polygon fill="midnightblue" stroke="midnightblue" points="189.966,-30.2398 191.462,-19.7511 183.752,-27.0175 189.966,-30.2398"/>
</g>
<!-- Node19&#45;&gt;Node15 -->
<g id="edge24" class="edge"><title>Node19&#45;&gt;Node15</title>
<path fill="none" stroke="midnightblue" d="M339.709,-115.059C344.442,-113.989 349.366,-112.922 354,-112 445.869,-93.726 472.859,-97.6664 567.76,-76.0444"/>
<polygon fill="midnightblue" stroke="midnightblue" points="568.83,-79.3893 577.783,-73.7243 567.252,-72.5696 568.83,-79.3893"/>
</g>
<!-- Node19&#45;&gt;Node17 -->
<g id="edge23" class="edge"><title>Node19&#45;&gt;Node17</title>
<path fill="none" stroke="midnightblue" d="M291.707,-112.444C267.193,-103.438 228.404,-89.1891 200.8,-79.049"/>
<polygon fill="midnightblue" stroke="midnightblue" points="201.777,-75.6793 191.184,-75.5164 199.363,-82.25 201.777,-75.6793"/>
</g>
<!-- Node19&#45;&gt;Node18 -->
<g id="edge25" class="edge"><title>Node19&#45;&gt;Node18</title>
<path fill="none" stroke="midnightblue" d="M339.733,-113.688C374.184,-103.258 433.085,-84.4391 439,-76 444.102,-68.7211 444.684,-62.8337 439,-56 413.711,-25.5984 298.849,-15.6469 236.521,-12.4577"/>
<polygon fill="midnightblue" stroke="midnightblue" points="236.414,-8.9487 226.259,-11.9694 236.082,-15.9408 236.414,-8.9487"/>
</g>
<!-- Node20 -->
<g id="node21" class="node"><title>Node20</title>
<polygon fill="white" stroke="#bfbfbf" points="486,-56.5 486,-75.5 560,-75.5 560,-56.5 486,-56.5"/>
<text text-anchor="middle" x="523" y="-63.5" font-family="Helvetica,sans-Serif" font-size="10.00">glm/vec2.hpp</text>
</g>
<!-- Node19&#45;&gt;Node20 -->
<g id="edge26" class="edge"><title>Node19&#45;&gt;Node20</title>
<path fill="none" stroke="midnightblue" d="M339.677,-114.593C374.346,-105.593 437.971,-89.0749 480.384,-78.0639"/>
<polygon fill="midnightblue" stroke="midnightblue" points="481.35,-81.4291 490.149,-75.5285 479.591,-74.6538 481.35,-81.4291"/>
</g>
<!-- Node21 -->
<g id="node22" class="node"><title>Node21</title>
<polygon fill="white" stroke="#bfbfbf" points="356,-56.5 356,-75.5 430,-75.5 430,-56.5 356,-56.5"/>
<text text-anchor="middle" x="393" y="-63.5" font-family="Helvetica,sans-Serif" font-size="10.00">glm/vec3.hpp</text>
</g>
<!-- Node19&#45;&gt;Node21 -->
<g id="edge27" class="edge"><title>Node19&#45;&gt;Node21</title>
<path fill="none" stroke="midnightblue" d="M327.532,-112.324C339.586,-103.979 358.027,-91.2122 372.269,-81.3524"/>
<polygon fill="midnightblue" stroke="midnightblue" points="374.269,-84.2243 380.499,-75.6545 370.285,-78.469 374.269,-84.2243"/>
</g>
<!-- Node19&#45;&gt;Node22 -->
<g id="edge28" class="edge"><title>Node19&#45;&gt;Node22</title>
<path fill="none" stroke="midnightblue" d="M311.697,-112.083C309.018,-104.849 305.151,-94.4087 301.814,-85.3968"/>
<polygon fill="midnightblue" stroke="midnightblue" points="304.996,-83.9129 298.241,-75.7511 298.432,-86.3442 304.996,-83.9129"/>
</g>
</g>
</svg>
